<?xml version="1.0" encoding="UTF-8"?>
<svg width="1821px" height="911px" viewBox="0 0 1821 911" version="1.1" xmlns="http://www.w3.org/2000/svg" xmlns:xlink="http://www.w3.org/1999/xlink">
    <title>Group_3112 Copy</title>
    <defs>
        <filter id="filter-1">
            <feColorMatrix in="SourceGraphic" type="matrix" values="0 0 0 0 1.000000 0 0 0 0 1.000000 0 0 0 0 1.000000 0 0 0 1.000000 0"></feColorMatrix>
        </filter>
    </defs>
    <g id="CSTV---Landing-Page" stroke="none" stroke-width="1" fill="none" fill-rule="evenodd">
        <g filter="url(#filter-1)" id="Group_3112-Copy">
            <g id="Group_3111">
                <g id="Group_3109">
                    <g id="Group_3106">
                        <g id="Group_3105">
                            <path d="M1128.99243,463.23039 C1128.99243,411.929935 1117.65717,373.056822 1095.34936,347.623561 C1073.04156,322.1903 1038.95642,309.365186 994.057433,309.365186 L913.905772,309.365186 C889.750321,309.365186 877.995651,322.105924 877.995651,348.334728 L877.995651,578.089891 C877.995651,604.282534 889.750321,617.071486 913.905772,617.071486 L992.878566,617.071486 C1035.77121,617.071486 1069.57297,603.511098 1093.22967,576.824254 C1116.88637,550.137411 1128.99243,511.842875 1128.99243,463.23039 M1053.26152,532.514933 C1041.53073,553.77788 1019.68652,566.378447 996.528521,565.24067 L938.503298,565.24067 L938.503298,361.232164 L996.120452,361.232164 C1044.17064,361.232164 1068.50746,395.536933 1068.50746,463.23039 C1069.44311,487.369618 1064.17214,511.323349 1053.26152,532.514933" id="Path_11687" fill="#004692" fill-rule="nonzero"></path>
                            <path d="M1324.7638,581.175632 C1322.5705,572.217015 1321.51826,562.985809 1321.63527,553.729407 L1321.63527,449.573572 C1321.63527,408.494637 1291.39278,388.497584 1229.26419,388.497584 C1205.5505,387.430837 1182.06062,393.757194 1161.68334,406.698639 C1146.47141,417.161231 1138.77477,428.98589 1138.77477,441.847165 C1138.70273,447.519886 1140.98317,452.938589 1145.00916,456.661135 C1149.33307,460.947673 1155.09785,463.202488 1161.00322,462.916994 C1167.32889,462.514945 1173.28099,459.597688 1177.6774,454.7446 C1183.33485,448.764639 1189.39653,443.23328 1195.81382,438.1949 C1205.77406,431.849238 1217.22616,428.646945 1228.83345,428.961782 C1255.08592,428.961782 1268.33685,438.435974 1268.33685,457.131229 C1268.33685,467.376855 1263.5647,480.129647 1240.78082,482.817617 L1205.08607,487.072566 C1185.20737,488.394972 1165.86886,494.49004 1148.52309,504.899956 C1132.93392,516.340492 1124.20533,535.702009 1125.58052,555.790586 C1125.29128,572.971038 1132.50909,589.323261 1145.12252,600.063746 C1157.47693,610.941377 1173.08912,616.748967 1189.12602,616.432641 C1218.78964,617.452317 1247.38049,604.581756 1267.33935,581.223847 L1271.61274,576.185409 L1271.9528,582.899308 C1272.93897,605.584331 1283.39008,616.432641 1303.8389,616.432641 C1309.99977,616.608914 1316.01469,614.422673 1320.78512,610.273212 C1325.17937,606.754827 1327.738,601.223748 1327.67803,595.374865 C1327.11503,590.54935 1326.13993,585.788474 1324.7638,581.151525 M1268.32602,533.262261 C1268.38565,546.037641 1263.06707,558.171459 1253.82771,566.337554 C1242.75966,576.39698 1228.53334,581.651959 1213.98425,581.055095 C1204.93209,581.519766 1196.00211,578.683314 1188.6726,573.015292 C1182.55996,568.326798 1178.92083,560.815684 1178.87894,552.801274 C1178.87894,534.913615 1192.31123,523.727801 1218.84708,519.509014 L1240.04403,516.146038 C1248.6362,515.510689 1256.8986,512.374899 1263.92743,507.081672 L1268.32602,502.670025 L1268.32602,533.262261 Z" id="Path_11688" fill="#004692" fill-rule="nonzero"></path>
                            <path d="M1388.60402,416.811675 C1388.60402,401.167577 1376.67783,388.485531 1361.96614,388.485531 C1347.25445,388.485531 1335.32827,401.167577 1335.32827,416.811675 L1335.32827,588.166766 C1335.32827,603.810863 1347.25445,616.49291 1361.96614,616.49291 C1376.67783,616.49291 1388.60402,603.810863 1388.60402,588.166766 L1388.60402,416.811675 Z" id="Path_11689" fill="#004692" fill-rule="nonzero"></path>
                            <path d="M1529.60338,396.296314 C1523.67945,390.976457 1516.09744,388.207244 1508.34976,388.533745 C1486.46136,388.533745 1471.40813,405.107553 1462.33992,439.219463 L1461.80716,441.196266 L1456.34356,441.196266 L1456.34356,414.678174 C1456.78095,407.550861 1454.3879,400.555084 1449.74644,395.392288 C1439.88763,386.294418 1425.23672,386.294418 1415.37791,395.392288 C1410.69782,400.534363 1408.27375,407.536623 1408.70144,414.678174 L1408.70144,588.166766 C1408.70144,603.810863 1420.62762,616.49291 1435.33932,616.49291 C1450.05101,616.49291 1461.97719,603.810863 1461.97719,588.166766 L1461.97719,515.844696 C1461.97719,468.365257 1475.13743,444.2579 1501.10652,444.2579 L1511.52363,444.2579 C1529.42202,444.2579 1537.79878,435.241749 1537.79878,415.931756 C1538.01451,408.392969 1534.99471,401.158926 1529.59205,396.272207" id="Path_11690" fill="#004692" fill-rule="nonzero"></path>
                            <path d="M1725.59012,432.517618 C1727.90996,426.567064 1729.36247,420.274973 1729.89752,413.858524 C1729.67352,408.185068 1727.59725,402.771962 1724.02585,398.550352 C1718.7682,391.738495 1710.76168,388.014756 1702.48885,388.533745 C1689.54398,388.533745 1681.16722,396.874891 1676.91649,414.099597 L1640.73432,556.875417 L1635.9055,556.875417 L1597.70566,409.88081 C1595.01575,396.279809 1583.07751,387.054287 1570.08161,388.533745 C1563.23182,388.314793 1556.59768,391.094802 1551.72982,396.223992 C1546.79293,401.244271 1544.07998,408.248554 1544.25988,415.509877 C1545.40653,425.151732 1547.79021,434.581037 1551.34442,443.53468 L1612.54352,628.48632 L1612.36215,629.233648 C1611.14127,641.715642 1601.15137,651.135096 1589.35157,650.930269 L1583.35521,650.930269 C1566.78305,650.930269 1559.10908,657.993724 1559.10908,673.265735 C1559.10908,690.598924 1570.29698,699.024445 1593.33024,699.024445 C1608.20596,699.827018 1622.74497,694.136555 1633.58177,683.270288 C1644.79335,669.668109 1653.07251,653.623658 1657.83924,636.260942 L1725.59012,432.517618 Z" id="Path_11691" fill="#004692" fill-rule="nonzero"></path>
                            <path d="M395.283375,576.173356 C395.283375,576.173356 351.07584,623.447882 300.384533,615.733528 C160.155965,594.494947 234.515306,441.268588 248.763734,363.534417 C265.766632,272.167535 282.248108,160.90003 248.763734,71.509952 C225.782281,13.9298177 164.359778,-14.3503548 109.14727,7.22768554 C33.5750561,36.8797342 11.2899243,160.90003 3.8653255,237.248029 C1.45595392,260.869648 0.165880922,284.605227 0,308.364731 C0,426.020685 51.1333822,689.923918 228.972361,689.923918 C338.709065,689.923918 383.857427,584.068515 395.260704,576.173356" id="Path_11692" fill="#004692" fill-rule="nonzero"></path>
                            <path d="M246.66671,562.106713 C262.038421,573.290525 280.933949,577.586291 299.262342,574.063962 C354.567101,564.963435 324.925382,466.123273 314.576285,427.587663 C302.481557,382.458692 281.556657,329.157326 294.592212,282.123873 C304.512984,256.363383 328.049424,239.494004 354.227043,239.38153 C419.042091,239.38153 437.439227,334.798447 437.439227,387.641773 C437.439227,446.897656 422.44267,571.797871 329.380142,592.023943 C271.672306,604.583876 249.22848,564.505395 246.632704,562.106713" id="Path_11693" fill="#0097D8" fill-rule="nonzero"></path>
                            <path d="M1390.25897,338.414551 C1390.26522,355.017263 1377.61332,368.481817 1362.00015,368.488476 C1346.38698,368.49513 1333.72493,355.041369 1333.71866,338.438657 C1333.7124,321.835944 1346.36431,308.371389 1361.97748,308.364731 C1377.58806,308.364731 1390.24645,321.814595 1390.25897,338.414551" id="Path_11694" fill="#0097D8"></path>
                            <path d="M850.314933,581.175632 C848.155816,572.210823 847.115377,562.98288 847.220406,553.729407 L847.220406,449.573572 C847.220406,408.494637 816.977918,388.497584 754.849328,388.497584 C731.138287,387.460767 707.658383,393.807506 687.291146,406.758907 C672.101891,417.2215 664.37124,429.046158 664.37124,441.907433 C664.311315,447.580047 666.594369,452.99512 670.616971,456.721404 C674.953281,461.002249 680.722582,463.255638 686.633701,462.977263 C692.95663,462.563614 698.904952,459.648206 703.307876,454.804869 C708.956477,448.814728 715.018895,443.282701 721.444301,438.255168 C731.388319,431.900028 742.832214,428.696729 754.429923,429.022051 C780.648392,429.022051 793.955994,438.496242 793.955994,457.191497 C793.955994,467.437124 789.183847,480.189915 766.399963,482.877886 L730.671207,487.132834 C710.803726,488.458149 691.476877,494.553206 674.142238,504.960224 C658.55306,516.40076 649.824477,535.762277 651.199661,555.850854 C650.910425,573.031306 658.128232,589.383529 670.741659,600.124015 C683.099589,610.971678 698.700986,616.756865 714.722489,616.432641 C744.386401,617.45396 772.977874,604.583119 792.93582,581.223847 L797.209215,576.185409 L797.481261,582.899308 C798.51277,605.499955 808.929879,616.432641 829.412704,616.432641 C835.591663,616.614833 841.626287,614.428744 846.415602,610.273212 C850.802659,606.748502 853.359378,601.221549 853.308219,595.374865 C852.733038,590.5474 851.742707,585.786272 850.348939,581.151525 M793.911157,533.262261 C793.970788,546.037641 788.652205,558.171459 779.412848,566.337554 C768.328736,576.392007 754.093882,581.645653 739.535384,581.055095 C730.494371,581.514354 721.576785,578.678028 714.257743,573.015292 C708.127889,568.339903 704.477486,560.822916 704.441403,552.801274 C704.441403,534.913615 717.907698,523.727801 744.432219,519.509014 L765.640501,516.146038 C774.206825,515.503438 782.441886,512.367602 789.444558,507.081672 L793.865311,502.670025 L793.911157,533.262261 Z" id="Path_11695" fill="#004692" fill-rule="nonzero"></path>
                            <path d="M520.45871,416.811675 C520.45871,401.167577 508.532528,388.485531 493.820837,388.485531 C479.109145,388.485531 467.182963,401.167577 467.182963,416.811675 L467.182963,588.166766 C467.182963,603.810863 479.109145,616.49291 493.820837,616.49291 C508.532528,616.49291 520.45871,603.810863 520.45871,588.166766 L520.45871,416.811675 Z" id="Path_11696" fill="#004692" fill-rule="nonzero"></path>
                            <path d="M522.113771,338.414551 C522.145764,350.615796 515.255647,361.633496 504.662015,366.320753 C494.068382,371.008009 481.862188,368.439659 473.745535,359.815503 C465.628882,351.191346 463.203821,338.213605 467.603215,326.944808 C472.002609,315.676012 482.358113,308.340376 493.832172,308.36467 C509.442757,308.36467 522.101146,321.814595 522.113771,338.414551" id="Path_11697" fill="#004692"></path>
                            <path d="M539.173233,416.413903 C534.617026,416.523917 530.218787,414.636557 527.010494,411.194661 C521.984443,406.026465 520.445867,398.113415 523.132453,391.249502 C525.819038,384.385589 532.183064,379.970176 539.173233,380.120278 L550.735204,380.120278 L550.735204,329.326078 C550.657711,322.572929 553.180441,316.079779 557.717728,311.354043 C562.130208,306.497418 568.234731,303.797022 574.584603,303.892816 C580.882775,303.771847 586.936887,306.480893 591.258778,311.354043 C595.709605,316.126135 598.16172,322.605838 598.059937,329.326078 L598.059937,380.180546 L639.025586,380.180546 C645.227271,380.010568 651.027513,383.431674 654.17542,389.116239 C657.323326,394.800803 657.323326,401.853915 654.17542,407.53848 C651.027513,413.223044 645.227271,416.64415 639.025586,416.474172 L598.059937,416.474172 L598.059937,549.353922 C597.406212,556.138339 598.984523,562.95394 602.526032,568.639807 C608.149419,572.946723 615.106536,574.809169 621.977347,573.846996 L630.886866,573.846996 C636.241666,573.727835 641.41079,575.934869 645.201242,579.95873 C648.991693,583.982591 651.075941,589.475579 650.972956,595.169953 C651.115973,600.867092 649.021283,606.370199 645.191971,610.357587 C641.413371,614.39435 636.241544,616.601661 630.886866,616.468802 L603.580211,616.468802 C589.385853,617.478645 575.362468,612.703304 564.360193,603.113327 C554.176936,590.875582 549.248046,574.680038 550.757875,558.418288 L550.757875,416.413903 L539.173233,416.413903 Z" id="Path_11698" fill="#004692" fill-rule="nonzero"></path>
                        </g>
                        <g id="Nghĩa_vụ_vun_bồi_sức_sống" transform="translate(95.454270, 759.799091)" fill="#004692" fill-rule="nonzero" font-family="ArialMT, Arial" font-size="129.874236" font-weight="normal">
                            <text id="Nghĩa-vụ-vun-bồi-sức-sống">
                                <tspan x="0" y="118">Nghĩa vụ vun bồi sức sống</tspan>
                            </text>
                        </g>
                    </g>
                    <g id="Group_3108">
                        <g id="Group_3107">
                            <path d="M1128.99243,463.23039 C1128.99243,411.929935 1117.65717,373.056822 1095.34936,347.623561 C1073.04156,322.1903 1038.95642,309.365186 994.057433,309.365186 L913.905772,309.365186 C889.750321,309.365186 877.995651,322.105924 877.995651,348.334728 L877.995651,578.089891 C877.995651,604.282534 889.750321,617.071486 913.905772,617.071486 L992.878566,617.071486 C1035.77121,617.071486 1069.57297,603.511098 1093.22967,576.824254 C1116.88637,550.137411 1128.99243,511.842875 1128.99243,463.23039 M1053.26152,532.514933 C1041.53073,553.77788 1019.68652,566.378447 996.528521,565.24067 L938.503298,565.24067 L938.503298,361.232164 L996.120452,361.232164 C1044.17064,361.232164 1068.50746,395.536933 1068.50746,463.23039 C1069.44311,487.369618 1064.17214,511.323349 1053.26152,532.514933" id="Path_11699" fill="#004692" fill-rule="nonzero"></path>
                            <path d="M1324.7638,581.175632 C1322.5705,572.217015 1321.51826,562.985809 1321.63527,553.729407 L1321.63527,449.573572 C1321.63527,408.494637 1291.39278,388.497584 1229.26419,388.497584 C1205.5505,387.430837 1182.06062,393.757194 1161.68334,406.698639 C1146.47141,417.161231 1138.77477,428.98589 1138.77477,441.847165 C1138.70273,447.519886 1140.98317,452.938589 1145.00916,456.661135 C1149.33307,460.947673 1155.09785,463.202488 1161.00322,462.916994 C1167.32889,462.514945 1173.28099,459.597688 1177.6774,454.7446 C1183.33485,448.764639 1189.39653,443.23328 1195.81382,438.1949 C1205.77406,431.849238 1217.22616,428.646945 1228.83345,428.961782 C1255.08592,428.961782 1268.33685,438.435974 1268.33685,457.131229 C1268.33685,467.376855 1263.5647,480.129647 1240.78082,482.817617 L1205.08607,487.072566 C1185.20737,488.394972 1165.86886,494.49004 1148.52309,504.899956 C1132.93392,516.340492 1124.20533,535.702009 1125.58052,555.790586 C1125.29128,572.971038 1132.50909,589.323261 1145.12252,600.063746 C1157.47693,610.941377 1173.08912,616.748967 1189.12602,616.432641 C1218.78964,617.452317 1247.38049,604.581756 1267.33935,581.223847 L1271.61274,576.185409 L1271.9528,582.899308 C1272.93897,605.584331 1283.39008,616.432641 1303.8389,616.432641 C1309.99977,616.608914 1316.01469,614.422673 1320.78512,610.273212 C1325.17937,606.754827 1327.738,601.223748 1327.67803,595.374865 C1327.11503,590.54935 1326.13993,585.788474 1324.7638,581.151525 M1268.32602,533.262261 C1268.38565,546.037641 1263.06707,558.171459 1253.82771,566.337554 C1242.75966,576.39698 1228.53334,581.651959 1213.98425,581.055095 C1204.93209,581.519766 1196.00211,578.683314 1188.6726,573.015292 C1182.55996,568.326798 1178.92083,560.815684 1178.87894,552.801274 C1178.87894,534.913615 1192.31123,523.727801 1218.84708,519.509014 L1240.04403,516.146038 C1248.6362,515.510689 1256.8986,512.374899 1263.92743,507.081672 L1268.32602,502.670025 L1268.32602,533.262261 Z" id="Path_11700" fill="#004692" fill-rule="nonzero"></path>
                            <path d="M1388.60402,416.811675 C1388.60402,401.167577 1376.67783,388.485531 1361.96614,388.485531 C1347.25445,388.485531 1335.32827,401.167577 1335.32827,416.811675 L1335.32827,588.166766 C1335.32827,603.810863 1347.25445,616.49291 1361.96614,616.49291 C1376.67783,616.49291 1388.60402,603.810863 1388.60402,588.166766 L1388.60402,416.811675 Z" id="Path_11701" fill="#004692" fill-rule="nonzero"></path>
                            <path d="M1529.60338,396.296314 C1523.67945,390.976457 1516.09744,388.207244 1508.34976,388.533745 C1486.46136,388.533745 1471.40813,405.107553 1462.33992,439.219463 L1461.80716,441.196266 L1456.34356,441.196266 L1456.34356,414.678174 C1456.78095,407.550861 1454.3879,400.555084 1449.74644,395.392288 C1439.88763,386.294418 1425.23672,386.294418 1415.37791,395.392288 C1410.69782,400.534363 1408.27375,407.536623 1408.70144,414.678174 L1408.70144,588.166766 C1408.70144,603.810863 1420.62762,616.49291 1435.33932,616.49291 C1450.05101,616.49291 1461.97719,603.810863 1461.97719,588.166766 L1461.97719,515.844696 C1461.97719,468.365257 1475.13743,444.2579 1501.10652,444.2579 L1511.52363,444.2579 C1529.42202,444.2579 1537.79878,435.241749 1537.79878,415.931756 C1538.01451,408.392969 1534.99471,401.158926 1529.59205,396.272207" id="Path_11702" fill="#004692" fill-rule="nonzero"></path>
                            <path d="M1725.59012,432.517618 C1727.90996,426.567064 1729.36247,420.274973 1729.89752,413.858524 C1729.67352,408.185068 1727.59725,402.771962 1724.02585,398.550352 C1718.7682,391.738495 1710.76168,388.014756 1702.48885,388.533745 C1689.54398,388.533745 1681.16722,396.874891 1676.91649,414.099597 L1640.73432,556.875417 L1635.9055,556.875417 L1597.70566,409.88081 C1595.01575,396.279809 1583.07751,387.054287 1570.08161,388.533745 C1563.23182,388.314793 1556.59768,391.094802 1551.72982,396.223992 C1546.79293,401.244271 1544.07998,408.248554 1544.25988,415.509877 C1545.40653,425.151732 1547.79021,434.581037 1551.34442,443.53468 L1612.54352,628.48632 L1612.36215,629.233648 C1611.14127,641.715642 1601.15137,651.135096 1589.35157,650.930269 L1583.35521,650.930269 C1566.78305,650.930269 1559.10908,657.993724 1559.10908,673.265735 C1559.10908,690.598924 1570.29698,699.024445 1593.33024,699.024445 C1608.20596,699.827018 1622.74497,694.136555 1633.58177,683.270288 C1644.79335,669.668109 1653.07251,653.623658 1657.83924,636.260942 L1725.59012,432.517618 Z" id="Path_11703" fill="#004692" fill-rule="nonzero"></path>
                            <path d="M395.283375,576.173356 C395.283375,576.173356 351.07584,623.447882 300.384533,615.733528 C160.155965,594.494947 234.515306,441.268588 248.763734,363.534417 C265.766632,272.167535 282.248108,160.90003 248.763734,71.509952 C225.782281,13.9298177 164.359778,-14.3503548 109.14727,7.22768554 C33.5750561,36.8797342 11.2899243,160.90003 3.8653255,237.248029 C1.45595392,260.869648 0.165880922,284.605227 0,308.364731 C0,426.020685 51.1333822,689.923918 228.972361,689.923918 C338.709065,689.923918 383.857427,584.068515 395.260704,576.173356" id="Path_11704" fill="#004692" fill-rule="nonzero"></path>
                            <path d="M246.66671,562.106713 C262.038421,573.290525 280.933949,577.586291 299.262342,574.063962 C354.567101,564.963435 324.925382,466.123273 314.576285,427.587663 C302.481557,382.458692 281.556657,329.157326 294.592212,282.123873 C304.512984,256.363383 328.049424,239.494004 354.227043,239.38153 C419.042091,239.38153 437.439227,334.798447 437.439227,387.641773 C437.439227,446.897656 422.44267,571.797871 329.380142,592.023943 C271.672306,604.583876 249.22848,564.505395 246.632704,562.106713" id="Path_11705" fill="#0097D8" fill-rule="nonzero"></path>
                            <path d="M1390.25897,338.414551 C1390.26522,355.017263 1377.61332,368.481817 1362.00015,368.488476 C1346.38698,368.49513 1333.72493,355.041369 1333.71866,338.438657 C1333.7124,321.835944 1346.36431,308.371389 1361.97748,308.364731 C1377.58806,308.364731 1390.24645,321.814595 1390.25897,338.414551" id="Path_11706" fill="#0097D8"></path>
                            <path d="M850.314933,581.175632 C848.155816,572.210823 847.115377,562.98288 847.220406,553.729407 L847.220406,449.573572 C847.220406,408.494637 816.977918,388.497584 754.849328,388.497584 C731.138287,387.460767 707.658383,393.807506 687.291146,406.758907 C672.101891,417.2215 664.37124,429.046158 664.37124,441.907433 C664.311315,447.580047 666.594369,452.99512 670.616971,456.721404 C674.953281,461.002249 680.722582,463.255638 686.633701,462.977263 C692.95663,462.563614 698.904952,459.648206 703.307876,454.804869 C708.956477,448.814728 715.018895,443.282701 721.444301,438.255168 C731.388319,431.900028 742.832214,428.696729 754.429923,429.022051 C780.648392,429.022051 793.955994,438.496242 793.955994,457.191497 C793.955994,467.437124 789.183847,480.189915 766.399963,482.877886 L730.671207,487.132834 C710.803726,488.458149 691.476877,494.553206 674.142238,504.960224 C658.55306,516.40076 649.824477,535.762277 651.199661,555.850854 C650.910425,573.031306 658.128232,589.383529 670.741659,600.124015 C683.099589,610.971678 698.700986,616.756865 714.722489,616.432641 C744.386401,617.45396 772.977874,604.583119 792.93582,581.223847 L797.209215,576.185409 L797.481261,582.899308 C798.51277,605.499955 808.929879,616.432641 829.412704,616.432641 C835.591663,616.614833 841.626287,614.428744 846.415602,610.273212 C850.802659,606.748502 853.359378,601.221549 853.308219,595.374865 C852.733038,590.5474 851.742707,585.786272 850.348939,581.151525 M793.911157,533.262261 C793.970788,546.037641 788.652205,558.171459 779.412848,566.337554 C768.328736,576.392007 754.093882,581.645653 739.535384,581.055095 C730.494371,581.514354 721.576785,578.678028 714.257743,573.015292 C708.127889,568.339903 704.477486,560.822916 704.441403,552.801274 C704.441403,534.913615 717.907698,523.727801 744.432219,519.509014 L765.640501,516.146038 C774.206825,515.503438 782.441886,512.367602 789.444558,507.081672 L793.865311,502.670025 L793.911157,533.262261 Z" id="Path_11707" fill="#004692" fill-rule="nonzero"></path>
                            <path d="M520.45871,416.811675 C520.45871,401.167577 508.532528,388.485531 493.820837,388.485531 C479.109145,388.485531 467.182963,401.167577 467.182963,416.811675 L467.182963,588.166766 C467.182963,603.810863 479.109145,616.49291 493.820837,616.49291 C508.532528,616.49291 520.45871,603.810863 520.45871,588.166766 L520.45871,416.811675 Z" id="Path_11708" fill="#004692" fill-rule="nonzero"></path>
                            <path d="M522.113771,338.414551 C522.145764,350.615796 515.255647,361.633496 504.662015,366.320753 C494.068382,371.008009 481.862188,368.439659 473.745535,359.815503 C465.628882,351.191346 463.203821,338.213605 467.603215,326.944808 C472.002609,315.676012 482.358113,308.340376 493.832172,308.36467 C509.442757,308.36467 522.101146,321.814595 522.113771,338.414551" id="Path_11709" fill="#004692"></path>
                            <path d="M539.173233,416.413903 C534.617026,416.523917 530.218787,414.636557 527.010494,411.194661 C521.984443,406.026465 520.445867,398.113415 523.132453,391.249502 C525.819038,384.385589 532.183064,379.970176 539.173233,380.120278 L550.735204,380.120278 L550.735204,329.326078 C550.657711,322.572929 553.180441,316.079779 557.717728,311.354043 C562.130208,306.497418 568.234731,303.797022 574.584603,303.892816 C580.882775,303.771847 586.936887,306.480893 591.258778,311.354043 C595.709605,316.126135 598.16172,322.605838 598.059937,329.326078 L598.059937,380.180546 L639.025586,380.180546 C645.227271,380.010568 651.027513,383.431674 654.17542,389.116239 C657.323326,394.800803 657.323326,401.853915 654.17542,407.53848 C651.027513,413.223044 645.227271,416.64415 639.025586,416.474172 L598.059937,416.474172 L598.059937,549.353922 C597.406212,556.138339 598.984523,562.95394 602.526032,568.639807 C608.149419,572.946723 615.106536,574.809169 621.977347,573.846996 L630.886866,573.846996 C636.241666,573.727835 641.41079,575.934869 645.201242,579.95873 C648.991693,583.982591 651.075941,589.475579 650.972956,595.169953 C651.115973,600.867092 649.021283,606.370199 645.191971,610.357587 C641.413371,614.39435 636.241544,616.601661 630.886866,616.468802 L603.580211,616.468802 C589.385853,617.478645 575.362468,612.703304 564.360193,603.113327 C554.176936,590.875582 549.248046,574.680038 550.757875,558.418288 L550.757875,416.413903 L539.173233,416.413903 Z" id="Path_11710" fill="#004692" fill-rule="nonzero"></path>
                        </g>
                        <g id="Nghĩa_vụ_vun_bồi_sức_sống-2" transform="translate(95.454270, 759.799091)" fill="#004692" fill-rule="nonzero" font-family="ArialMT, Arial" font-size="129.874236" font-weight="normal">
                            <text id="Nghĩa-vụ-vun-bồi-sức-sống">
                                <tspan x="0" y="118">Nghĩa vụ vun bồi sức sống</tspan>
                            </text>
                        </g>
                    </g>
                </g>
                <g id="Group_3110" transform="translate(1749.583700, 300.385173)" fill="#004692" fill-rule="nonzero">
                    <path d="M58.7085165,13.5001431 C47.7333272,1.81569155 30.5248247,0.00200598137 17.6062355,9.16817904 C4.68764638,18.3343521 -0.343385635,35.9277347 5.58968205,51.1897408 C11.5227497,66.451747 26.767642,75.1321247 42.0019057,71.9227081 C57.2361694,68.7132916 68.2172784,54.5078579 68.2301548,37.9932174 C68.2385385,28.8087374 64.8131595,19.9974176 58.7085165,13.5001431 M26.9697734,34.9436368 L39.1551837,34.9436368 C41.2023737,35.027626 43.2483394,34.7465045 45.2082154,34.111933 C46.5669397,33.6043987 47.7329608,32.6395448 48.5294482,31.3636943 C49.2721156,30.1474271 49.6659636,28.7276628 49.6629747,27.2774974 C49.7168105,25.2496497 48.9191915,23.301507 47.4866038,21.9618252 C45.4851433,20.4034278 43.021301,19.6670887 40.5494213,19.8885926 L26.9471029,19.8885926 L26.9697734,34.9436368 Z M21.3021407,60.376898 L21.3021407,14.9224771 L40.277375,14.9224771 C43.2189611,14.7916818 46.1598076,15.1994045 48.9715235,16.1278449 C50.9790501,16.9610077 52.6668501,18.4842289 53.7663408,20.4551155 C54.9418404,22.5279788 55.5575808,24.9051517 55.5459775,27.3257121 C55.6157247,30.3646834 54.5474576,33.3086727 52.5761379,35.5101597 C50.0935362,37.9737412 46.8943204,39.4621064 43.5079256,39.7289471 C44.7365997,40.309355 45.8815527,41.0723332 46.9085052,41.9950386 C48.7029645,43.7815678 50.272685,45.8073047 51.5786346,48.0218778 L58.9692276,60.4010054 L51.896022,60.4010054 L46.2283893,50.9509216 C44.5961111,48.2147366 43.2018734,46.1294503 42.159029,44.6709552 C41.3461931,43.5047564 40.3715946,42.4765176 39.2685364,41.6213746 C38.4769757,41.0758386 37.6082347,40.668878 36.6954311,40.4160067 C35.6520167,40.2574146 34.5978625,40.1928986 33.5442273,40.2231479 L26.9697734,40.2231479 L26.9697734,60.4251127 L21.3021407,60.376898 Z M35.7205983,1.16566272e-05 C52.7546696,0.0070802513 67.4120533,12.8082581 70.7292039,30.5751516 C74.0463544,48.3420451 65.0994432,66.126563 49.3598455,73.0527987 C33.6202478,79.9790344 15.4714516,74.1180268 6.01213357,59.0540042 C-3.44718449,43.9899816 -1.58259831,23.9182838 10.465627,11.1135148 C17.1625417,3.99045645 26.2486013,-0.00787890388 35.7205983,1.16566272e-05" id="Path_11711"></path>
                </g>
            </g>
        </g>
    </g>
</svg>