<?xml version="1.0" encoding="UTF-8"?>
<svg width="22px" height="52px" viewBox="0 0 22 52" version="1.1" xmlns="http://www.w3.org/2000/svg" xmlns:xlink="http://www.w3.org/1999/xlink">
    <title>0B264A25-6335-470D-9235-B78B813EF8CD</title>
    <g id="Update-CSTV-19.11" stroke="none" stroke-width="1" fill="none" fill-rule="evenodd">
        <g id="Chính-sách-thành-viên" transform="translate(-69.000000, -1625.000000)" fill="#40B7E2" fill-rule="nonzero">
            <path d="M99.522667,1665 C99.4221804,1664.99938 99.3234341,1664.97408 99.2353478,1664.92639 C99.0336823,1664.84088 98.9066803,1664.64128 98.916339,1664.42503 C98.9369889,1664.1692 99.0108201,1663.9203 99.1332368,1663.69382 C99.3318251,1663.35148 99.5494271,1663.01053 99.7606912,1662.68138 C99.9402656,1662.40362 100.125474,1662.11197 100.298006,1661.82171 C101.150809,1660.39401 101.977556,1658.97464 102.602193,1657.89137 C102.619572,1657.83263 102.614563,1657.76965 102.588109,1657.7143 C102.578535,1657.68493 102.570775,1657.65501 102.56487,1657.62472 C102.533884,1657.63375 102.500082,1657.64069 102.466984,1657.64763 C102.398469,1657.65553 102.332827,1657.67933 102.275438,1657.71707 C100.666931,1659.02749 98.8895422,1660.12213 96.9896105,1660.97245 C94.5632543,1662.08795 91.975864,1662.82494 89.3200199,1663.15705 C88.9418572,1663.20843 88.5580608,1663.26399 88.1869402,1663.31676 L88.1869402,1663.31676 C87.3066732,1663.44314 86.3968291,1663.57369 85.4982526,1663.66952 C84.5067846,1663.77881 83.5100272,1663.83491 82.5123868,1663.83756 C81.2129988,1663.84517 79.9159082,1663.72889 78.6392118,1663.49036 C77.2727483,1663.23636 75.9551249,1662.77265 74.7343473,1662.11613 C73.7248443,1661.58573 72.837683,1660.85491 72.1287568,1659.96973 C71.4540629,1659.09835 70.9873295,1658.08816 70.7632866,1657.01434 C70.7470897,1656.93934 70.7351181,1656.86157 70.7231464,1656.78726 C70.7066717,1656.65966 70.6798252,1656.53357 70.6428661,1656.4102 C70.567685,1656.14462 70.3379938,1655.94963 70.0604814,1655.91579 C69.7231631,1655.86857 69.3795068,1655.82829 69.0464138,1655.7894 C68.6689553,1655.74566 68.2788209,1655.69983 67.8971371,1655.64427 C66.1296065,1655.39401 64.4279133,1654.80874 62.885953,1653.92076 C61.3955343,1653.03943 60.0699029,1651.91196 58.9670041,1650.58761 C58.0257634,1649.48427 57.2282642,1648.26911 56.5931,1646.97045 C55.9713183,1645.68756 55.5185875,1644.33149 55.2459393,1642.93526 L55.2325593,1642.86929 C55.1299342,1642.38899 55.0535344,1641.90359 55.0036898,1641.41521 C54.9640742,1640.87707 55.2460292,1640.3655 55.7255088,1640.10556 C55.8336881,1640.03653 55.9600316,1640.00031 56.088883,1640.0014 C56.3513376,1639.983 56.5911356,1640.14797 56.6642256,1640.39721 C56.7212669,1640.66317 56.7719703,1640.93468 56.8212652,1641.19716 C56.8916866,1641.58048 56.9670374,1641.97698 57.0628105,1642.36168 C57.7525143,1645.27856 59.2601005,1647.94542 61.4134423,1650.05778 C62.2282814,1650.85008 63.1344421,1651.54552 64.1133973,1652.12989 C65.9533521,1653.17429 68.0199829,1653.76953 70.1407618,1653.8659 C70.1654092,1653.8659 70.1893525,1653.8659 70.2111831,1653.8659 C70.4687743,1653.87866 70.6987725,1653.70797 70.7576529,1653.46037 C70.8118773,1653.30135 70.8618765,1653.13886 70.9104673,1652.98192 C70.9668043,1652.79929 71.0252541,1652.61111 71.0893375,1652.4264 C71.3932436,1651.54111 71.8167672,1650.70026 72.3484715,1649.92654 C72.8527729,1649.20105 73.4631232,1648.5531 74.1597089,1648.00373 C74.8749832,1647.44609 75.6641997,1646.98747 76.5054445,1646.64061 C77.4272894,1646.26338 78.3884686,1645.98743 79.371594,1645.81774 C79.8881081,1645.71973 80.4125076,1645.66767 80.9384693,1645.66219 C81.4208382,1645.65843 81.9014983,1645.71916 82.3673188,1645.84274 C82.8502388,1645.96076 83.3180135,1646.13245 83.7616618,1646.35451 C84.3165424,1646.63918 84.7664446,1647.08889 85.0475558,1647.63986 C85.3073442,1648.18069 85.3784053,1648.79106 85.2496651,1649.37587 C84.9948379,1650.56307 84.3583983,1651.63752 83.4349066,1652.43959 C82.7426303,1653.05568 81.9619309,1653.56765 81.1180438,1653.95895 C78.9635243,1655.00298 76.6324247,1655.64678 74.2413977,1655.85815 C73.8421086,1655.89218 73.4385942,1655.95884 73.049164,1656.02342 L72.9188845,1656.04495 C72.826605,1656.06282 72.7464304,1656.11864 72.6984657,1656.19841 C72.6323456,1656.29699 72.6150011,1656.41977 72.6512833,1656.53242 C72.6639592,1656.56783 72.676635,1656.60186 72.6886067,1656.63797 C72.7097331,1656.69908 72.7322679,1656.76227 72.759028,1656.82407 C73.486192,1658.56933 74.8958258,1659.95208 76.6695263,1660.65996 C78.4292322,1661.37008 80.3018253,1661.76965 82.2018286,1661.84045 C82.5637944,1661.86476 82.9433655,1661.87726 83.3285704,1661.87726 C84.7457549,1661.85121 86.1597334,1661.73454 87.5615985,1661.52797 C88.3080649,1661.43214 89.0643904,1661.31965 89.7953641,1661.20646 C90.3143696,1661.12799 90.8516846,1661.04675 91.3791406,1660.97245 C92.375472,1660.84837 93.3481299,1660.58169 94.2664164,1660.18082 C95.9959651,1659.39754 97.7529781,1658.56355 99.4888647,1657.70319 C99.8613942,1657.50345 100.214928,1657.27104 100.545185,1657.00878 C100.681803,1656.9067 100.826871,1656.80046 100.967713,1656.70185 C100.995178,1656.68241 100.993769,1656.60811 100.981798,1656.56297 C100.969826,1656.51784 100.932503,1656.46506 100.8987,1656.46159 L100.888137,1656.46159 C100.670898,1656.43336 100.452276,1656.41667 100.233219,1656.41159 C99.8332252,1656.41159 99.4149223,1656.41159 98.8332418,1656.41159 L96.931865,1656.41159 C96.8029939,1656.41576 96.6656723,1656.41784 96.5227169,1656.41784 C95.6649847,1656.41784 94.6741561,1656.34493 93.6248778,1656.26785 C93.094605,1656.22896 92.5467268,1656.18869 92.000257,1656.15674 C91.844496,1656.14453 91.6895576,1656.12367 91.5361802,1656.09425 L91.5030822,1656.08869 C91.2315358,1656.0377 91.0336144,1655.80571 91.0291464,1655.53317 C91.0510979,1655.1809 91.1990732,1654.84773 91.4467451,1654.59294 C91.6933247,1654.347 92.0305248,1654.21019 92.3812366,1654.2138 L92.4516579,1654.2138 C93.2262929,1654.2138 94.0009279,1654.26171 94.7347185,1654.31032 C96.463563,1654.42629 98.036072,1654.48323 99.5437934,1654.48323 C101.040247,1654.48323 102.43459,1654.42837 103.806398,1654.31518 C103.923298,1654.30546 104.031043,1654.3006 104.126816,1654.3006 C104.385461,1654.26809 104.646119,1654.34361 104.845818,1654.50892 C105.006378,1654.68183 105.040181,1654.97487 104.953562,1655.45748 C104.732533,1656.7376 104.285636,1657.9696 103.633162,1659.09755 C102.750078,1660.60927 101.802206,1662.12308 100.886729,1663.58758 L100.882503,1663.59452 L100.422652,1664.33059 C100.269255,1664.54683 100.078574,1664.73486 99.8592811,1664.88612 C99.7626982,1664.95931 99.6444727,1664.9993 99.522667,1665 Z M80.641457,1647.81699 L80.641457,1647.81699 C80.464517,1647.81684 80.2877733,1647.828 80.1124619,1647.85038 L79.8132818,1647.89097 C79.3137143,1647.95645 78.797331,1648.02192 78.2977634,1648.1162 C75.7394284,1648.52866 73.6221751,1650.20606 72.768188,1652.49704 C72.6868749,1652.72252 72.6339686,1652.95609 72.6105405,1653.19302 C72.6035339,1653.24475 72.5958267,1653.29582 72.5881195,1653.34689 C72.5730595,1653.45665 72.6119528,1653.56689 72.6939185,1653.64676 C72.7967401,1653.74938 72.9393906,1653.80907 73.089789,1653.8124 C73.1878808,1653.8124 73.2929792,1653.81699 73.4211992,1653.81699 L73.6727346,1653.81699 L73.92427,1653.81699 L74.0826183,1653.81699 C75.0884118,1653.79149 76.088066,1653.66171 77.0632079,1653.43004 C78.7746331,1653.01847 80.4285,1652.42076 81.99092,1651.64916 C82.5333224,1651.41492 82.989967,1651.0367 83.3039489,1650.56164 C83.6132142,1650.10683 83.6707795,1649.54116 83.4587938,1649.04004 C83.2329148,1648.56541 82.7911215,1648.21048 82.2550672,1648.07299 C81.7348276,1647.91205 81.1914857,1647.82574 80.6435589,1647.81699 L80.641457,1647.81699 Z" id="Fill_19-2" transform="translate(80.000000, 1652.500000) rotate(60.000000) translate(-80.000000, -1652.500000) "></path>
        </g>
    </g>
</svg>