<svg width="141" height="29" viewBox="0 0 141 29" fill="none" xmlns="http://www.w3.org/2000/svg">
<rect x="1.28809" y="0.5" width="139" height="28" rx="9.5" stroke="#40B7E2"/>
<g clip-path="url(#clip0_11166_41824)">
<path d="M24.2618 9.47891V15.1669L19.6298 9.47891H18.3458V17.8789H19.8938V12.1909L24.5258 17.8789H25.8098V9.47891H24.2618ZM31.5526 11.3989C30.6646 11.3989 29.9086 11.6869 29.4166 12.2149V8.97491H27.9166V17.8789H29.4166V14.6389C29.4166 13.3549 30.1366 12.7069 31.2046 12.7069C32.1646 12.7069 32.7286 13.2589 32.7286 14.3989V17.8789H34.2286V14.2069C34.2286 12.2749 33.0886 11.3989 31.5526 11.3989ZM38.7115 9.70691L39.7675 10.5949H41.0035L39.3955 8.95091H38.0275L36.4195 10.5949H37.6555L38.7115 9.70691ZM38.5795 11.3989C37.5475 11.3989 36.5515 11.6629 35.8675 12.1909L36.4555 13.2829C36.9355 12.8869 37.6795 12.6469 38.3995 12.6469C39.4675 12.6469 39.9955 13.1629 39.9955 14.0389V14.1349H38.3395C36.3955 14.1349 35.6755 14.9749 35.6755 16.0429C35.6755 17.1589 36.5995 17.9629 38.0635 17.9629C39.0235 17.9629 39.7195 17.6509 40.0795 17.0989V17.8789H41.4955V14.1229C41.4955 12.2749 40.4275 11.3989 38.5795 11.3989ZM38.3755 16.8709C37.6075 16.8709 37.1515 16.5229 37.1515 15.9829C37.1515 15.5149 37.4275 15.1309 38.4475 15.1309H39.9955V15.8749C39.7435 16.5349 39.1075 16.8709 38.3755 16.8709ZM38.6395 18.8749C38.2315 18.8749 37.9195 19.1869 37.9195 19.6069C37.9195 20.0389 38.2315 20.3149 38.6395 20.3149C39.0475 20.3149 39.3595 20.0389 39.3595 19.6069C39.3595 19.1869 39.0475 18.8749 38.6395 18.8749ZM46.9725 11.3989C46.0965 11.3989 45.3525 11.6989 44.8485 12.3109V11.4709H43.4205V20.2069H44.9205V17.0989C45.4365 17.6869 46.1565 17.9629 46.9725 17.9629C48.8445 17.9629 50.2245 16.6669 50.2245 14.6749C50.2245 12.6949 48.8445 11.3989 46.9725 11.3989ZM46.8045 16.6789C45.7245 16.6789 44.8965 15.8989 44.8965 14.6749C44.8965 13.4509 45.7245 12.6709 46.8045 12.6709C47.8845 12.6709 48.7005 13.4509 48.7005 14.6749C48.7005 15.8989 47.8845 16.6789 46.8045 16.6789ZM63.0515 11.3989C62.0315 11.3989 61.1675 11.8069 60.6515 12.4669C60.2075 11.7469 59.4275 11.3989 58.4915 11.3989C57.6155 11.3989 56.8715 11.7109 56.3915 12.2869V11.4709H54.9635V17.8789H56.4635V14.6269C56.4635 13.3549 57.1355 12.7069 58.1315 12.7069C59.0435 12.7069 59.5715 13.2589 59.5715 14.3989V17.8789H61.0715V14.6269C61.0715 13.3549 61.7555 12.7069 62.7395 12.7069C63.6515 12.7069 64.1795 13.2589 64.1795 14.3989V17.8789H65.6795V14.2069C65.6795 12.2749 64.5995 11.3989 63.0515 11.3989ZM69.4083 9.80291C69.8403 9.80291 70.2483 10.5949 71.0403 10.5949C71.8083 10.5949 72.3123 9.95891 72.3363 9.02291H71.5323C71.5083 9.45491 71.2803 9.70691 70.9443 9.70691C70.5123 9.70691 70.1043 8.91491 69.3123 8.91491C68.5443 8.91491 68.0403 9.53891 68.0163 10.5229H68.8203C68.8443 10.0669 69.0723 9.80291 69.4083 9.80291ZM70.0443 11.3989C69.0123 11.3989 68.0163 11.6629 67.3323 12.1909L67.9203 13.2829C68.4003 12.8869 69.1443 12.6469 69.8643 12.6469C70.9323 12.6469 71.4603 13.1629 71.4603 14.0389V14.1349H69.8043C67.8603 14.1349 67.1403 14.9749 67.1403 16.0429C67.1403 17.1589 68.0643 17.9629 69.5283 17.9629C70.4883 17.9629 71.1843 17.6509 71.5443 17.0989V17.8789H72.9603V14.1229C72.9603 12.2749 71.8923 11.3989 70.0443 11.3989ZM69.8403 16.8709C69.0723 16.8709 68.6163 16.5229 68.6163 15.9829C68.6163 15.5149 68.8923 15.1309 69.9123 15.1309H71.4603V15.8749C71.2083 16.5349 70.5723 16.8709 69.8403 16.8709ZM86.2898 11.3989C85.2698 11.3989 84.4058 11.8069 83.8898 12.4669C83.4458 11.7469 82.6658 11.3989 81.7298 11.3989C80.8538 11.3989 80.1098 11.7109 79.6298 12.2869V11.4709H78.2018V17.8789H79.7018V14.6269C79.7018 13.3549 80.3738 12.7069 81.3698 12.7069C82.2818 12.7069 82.8098 13.2589 82.8098 14.3989V17.8789H84.3098V14.6269C84.3098 13.3549 84.9938 12.7069 85.9778 12.7069C86.8898 12.7069 87.4178 13.2589 87.4178 14.3989V17.8789H88.9178V14.2069C88.9178 12.2749 87.8378 11.3989 86.2898 11.3989ZM95.5386 11.4709V14.7109C95.5386 15.9949 94.8306 16.6429 93.7866 16.6429C92.8386 16.6429 92.2866 16.0909 92.2866 14.9269V11.4709H90.7866V15.1309C90.7866 17.0629 91.9026 17.9629 93.5466 17.9629C94.3746 17.9629 95.1306 17.6509 95.6106 17.0629V17.8789H97.0386V11.4709H95.5386ZM101.091 8.25491C101.511 8.25491 101.931 8.90291 102.747 8.90291C103.503 8.90291 103.983 8.38691 103.995 7.53491H103.203C103.179 7.87091 103.011 8.09891 102.675 8.09891C102.231 8.09891 101.799 7.46291 101.019 7.46291C100.251 7.46291 99.7586 7.96691 99.7466 8.83091H100.563C100.575 8.47091 100.743 8.25491 101.091 8.25491ZM101.871 9.93491L102.915 10.5949H104.163L102.543 9.31091H101.199L99.5786 10.5949H100.827L101.871 9.93491ZM101.883 11.3989C99.9146 11.3989 98.4746 12.7549 98.4746 14.6749C98.4746 16.5949 99.9146 17.9629 101.883 17.9629C103.875 17.9629 105.303 16.5949 105.303 14.6749C105.303 12.7549 103.875 11.3989 101.883 11.3989ZM101.883 16.6789C100.803 16.6789 99.9866 15.8989 99.9866 14.6749C99.9866 13.4509 100.803 12.6709 101.883 12.6709C102.975 12.6709 103.791 13.4509 103.791 14.6749C103.791 15.8989 102.975 16.6789 101.883 16.6789ZM110.373 11.3989C109.437 11.3989 108.657 11.7109 108.165 12.2989V11.4709H106.737V17.8789H108.237V14.6389C108.237 13.3549 108.957 12.7069 110.025 12.7069C110.985 12.7069 111.549 13.2589 111.549 14.3989V17.8789H113.049V14.2069C113.049 12.2749 111.909 11.3989 110.373 11.3989ZM119.942 11.4709V12.3229C119.414 11.6869 118.622 11.3989 117.722 11.3989C115.886 11.3989 114.482 12.6229 114.482 14.4829C114.482 16.3429 115.886 17.5909 117.722 17.5909C118.586 17.5909 119.342 17.3149 119.87 16.7389V17.0749C119.87 18.3709 119.246 19.0189 117.83 19.0189C116.942 19.0189 116.03 18.7189 115.466 18.2509L114.794 19.3789C115.526 19.9789 116.714 20.2909 117.914 20.2909C120.158 20.2909 121.37 19.2349 121.37 16.9069V11.4709H119.942ZM117.95 16.3189C116.81 16.3189 115.994 15.5749 115.994 14.4829C115.994 13.4029 116.81 12.6709 117.95 12.6709C119.078 12.6709 119.894 13.4029 119.894 14.4829C119.894 15.5749 119.078 16.3189 117.95 16.3189Z" fill="#007AD4"/>
</g>
<defs>
<clipPath id="clip0_11166_41824">
<rect width="103" height="16.4595" fill="white" transform="translate(18.7881 5.87891)"/>
</clipPath>
</defs>
</svg>
