<svg width="140" height="29" viewBox="0 0 140 29" fill="none" xmlns="http://www.w3.org/2000/svg">
<g clip-path="url(#clip0_11166_41909)">
<rect x="0.5" y="0.5" width="139" height="28" rx="9.5" stroke="#40B7E2"/>
<path d="M15.6968 19.12C15.0408 19.12 14.4368 19.012 13.8848 18.796C13.3328 18.58 12.8528 18.28 12.4448 17.896C12.0368 17.504 11.7208 17.048 11.4968 16.528C11.2728 16 11.1608 15.424 11.1608 14.8C11.1608 14.176 11.2728 13.604 11.4968 13.084C11.7208 12.556 12.0368 12.1 12.4448 11.716C12.8528 11.324 13.3328 11.02 13.8848 10.804C14.4368 10.588 15.0368 10.48 15.6848 10.48C16.3408 10.48 16.9408 10.588 17.4848 10.804C18.0368 11.02 18.5168 11.32 18.9248 11.704C19.3328 12.088 19.6488 12.544 19.8728 13.072C20.0968 13.6 20.2088 14.176 20.2088 14.8C20.2088 15.424 20.0968 16 19.8728 16.528C19.6488 17.056 19.3328 17.512 18.9248 17.896C18.5168 18.28 18.0368 18.58 17.4848 18.796C16.9408 19.012 16.3448 19.12 15.6968 19.12ZM18.4328 20.836C18.1368 20.836 17.8488 20.8 17.5688 20.728C17.2968 20.664 17.0248 20.552 16.7528 20.392C16.4888 20.24 16.2128 20.036 15.9248 19.78C15.6368 19.532 15.3208 19.224 14.9768 18.856L16.6328 18.424C16.8568 18.72 17.0688 18.956 17.2688 19.132C17.4768 19.316 17.6768 19.448 17.8688 19.528C18.0608 19.608 18.2608 19.648 18.4688 19.648C19.0208 19.648 19.5008 19.424 19.9088 18.976L20.6288 19.84C20.0688 20.504 19.3368 20.836 18.4328 20.836ZM15.6848 17.752C16.1088 17.752 16.5008 17.68 16.8608 17.536C17.2208 17.392 17.5328 17.188 17.7968 16.924C18.0608 16.652 18.2648 16.336 18.4088 15.976C18.5608 15.616 18.6368 15.224 18.6368 14.8C18.6368 14.368 18.5608 13.976 18.4088 13.624C18.2648 13.264 18.0608 12.952 17.7968 12.688C17.5328 12.416 17.2208 12.208 16.8608 12.064C16.5008 11.92 16.1088 11.848 15.6848 11.848C15.2608 11.848 14.8688 11.92 14.5088 12.064C14.1488 12.208 13.8368 12.416 13.5728 12.688C13.3088 12.952 13.1008 13.264 12.9488 13.624C12.8048 13.976 12.7328 14.368 12.7328 14.8C12.7328 15.224 12.8048 15.616 12.9488 15.976C13.1008 16.336 13.3088 16.652 13.5728 16.924C13.8368 17.188 14.1488 17.392 14.5088 17.536C14.8688 17.68 15.2608 17.752 15.6848 17.752ZM24.4304 19.084C23.8864 19.084 23.4064 18.984 22.9904 18.784C22.5744 18.576 22.2504 18.264 22.0184 17.848C21.7864 17.424 21.6704 16.892 21.6704 16.252V12.592H23.1704V16.048C23.1704 16.624 23.2984 17.056 23.5544 17.344C23.8184 17.624 24.1904 17.764 24.6704 17.764C25.0224 17.764 25.3264 17.692 25.5824 17.548C25.8464 17.404 26.0504 17.188 26.1944 16.9C26.3464 16.612 26.4224 16.256 26.4224 15.832V12.592H27.9224V19H26.4944V17.272L26.7464 17.8C26.5304 18.216 26.2144 18.536 25.7984 18.76C25.3824 18.976 24.9264 19.084 24.4304 19.084ZM32.8983 19.084C32.1863 19.084 31.5623 18.944 31.0263 18.664C30.4983 18.376 30.0863 17.984 29.7903 17.488C29.5023 16.992 29.3583 16.428 29.3583 15.796C29.3583 15.156 29.4983 14.592 29.7783 14.104C30.0663 13.608 30.4583 13.22 30.9543 12.94C31.4583 12.66 32.0303 12.52 32.6703 12.52C33.2943 12.52 33.8503 12.656 34.3383 12.928C34.8263 13.2 35.2103 13.584 35.4903 14.08C35.7703 14.576 35.9103 15.16 35.9103 15.832C35.9103 15.896 35.9063 15.968 35.8983 16.048C35.8983 16.128 35.8943 16.204 35.8863 16.276H30.5463V15.28H35.0943L34.5063 15.592C34.5143 15.224 34.4383 14.9 34.2783 14.62C34.1183 14.34 33.8983 14.12 33.6183 13.96C33.3463 13.8 33.0303 13.72 32.6703 13.72C32.3023 13.72 31.9783 13.8 31.6983 13.96C31.4263 14.12 31.2103 14.344 31.0503 14.632C30.8983 14.912 30.8223 15.244 30.8223 15.628V15.868C30.8223 16.252 30.9103 16.592 31.0863 16.888C31.2623 17.184 31.5103 17.412 31.8303 17.572C32.1503 17.732 32.5183 17.812 32.9343 17.812C33.2943 17.812 33.6183 17.756 33.9063 17.644C34.1943 17.532 34.4503 17.356 34.6743 17.116L35.4783 18.04C35.1903 18.376 34.8263 18.636 34.3863 18.82C33.9543 18.996 33.4583 19.084 32.8983 19.084ZM31.6263 11.716L33.2463 10.072H35.0103L32.9223 11.716H31.6263ZM39.7632 19.084C39.0592 19.084 38.5152 18.904 38.1312 18.544C37.7472 18.176 37.5552 17.636 37.5552 16.924V11.176H39.0552V16.888C39.0552 17.192 39.1312 17.428 39.2832 17.596C39.4432 17.764 39.6632 17.848 39.9432 17.848C40.2792 17.848 40.5592 17.76 40.7832 17.584L41.2032 18.652C41.0272 18.796 40.8112 18.904 40.5552 18.976C40.2992 19.048 40.0352 19.084 39.7632 19.084ZM36.4992 13.84V12.64H40.7712V13.84H36.4992ZM53.8415 12.52C54.3535 12.52 54.8055 12.62 55.1975 12.82C55.5975 13.02 55.9095 13.328 56.1335 13.744C56.3575 14.152 56.4695 14.68 56.4695 15.328V19H54.9695V15.52C54.9695 14.952 54.8455 14.528 54.5975 14.248C54.3495 13.968 53.9935 13.828 53.5295 13.828C53.2015 13.828 52.9095 13.9 52.6535 14.044C52.4055 14.188 52.2095 14.4 52.0655 14.68C51.9295 14.96 51.8615 15.316 51.8615 15.748V19H50.3615V15.52C50.3615 14.952 50.2375 14.528 49.9895 14.248C49.7415 13.968 49.3855 13.828 48.9215 13.828C48.5935 13.828 48.3015 13.9 48.0455 14.044C47.7975 14.188 47.6015 14.4 47.4575 14.68C47.3215 14.96 47.2535 15.316 47.2535 15.748V19H45.7535V12.592H47.1815V14.296L46.9295 13.792C47.1455 13.376 47.4575 13.06 47.8655 12.844C48.2815 12.628 48.7535 12.52 49.2815 12.52C49.8815 12.52 50.4015 12.668 50.8415 12.964C51.2895 13.26 51.5855 13.708 51.7295 14.308L51.1415 14.104C51.3495 13.624 51.6935 13.24 52.1735 12.952C52.6535 12.664 53.2095 12.52 53.8415 12.52ZM62.3343 19V17.704L62.2503 17.428V15.16C62.2503 14.72 62.1183 14.38 61.8543 14.14C61.5903 13.892 61.1903 13.768 60.6543 13.768C60.2943 13.768 59.9383 13.824 59.5863 13.936C59.2423 14.048 58.9503 14.204 58.7103 14.404L58.1223 13.312C58.4663 13.048 58.8743 12.852 59.3463 12.724C59.8263 12.588 60.3223 12.52 60.8343 12.52C61.7623 12.52 62.4783 12.744 62.9823 13.192C63.4943 13.632 63.7503 14.316 63.7503 15.244V19H62.3343ZM60.3183 19.084C59.8383 19.084 59.4183 19.004 59.0583 18.844C58.6983 18.676 58.4183 18.448 58.2183 18.16C58.0263 17.864 57.9303 17.532 57.9303 17.164C57.9303 16.804 58.0143 16.48 58.1823 16.192C58.3583 15.904 58.6423 15.676 59.0343 15.508C59.4263 15.34 59.9463 15.256 60.5943 15.256H62.4543V16.252H60.7023C60.1903 16.252 59.8463 16.336 59.6703 16.504C59.4943 16.664 59.4063 16.864 59.4063 17.104C59.4063 17.376 59.5143 17.592 59.7303 17.752C59.9463 17.912 60.2463 17.992 60.6303 17.992C60.9983 17.992 61.3263 17.908 61.6143 17.74C61.9103 17.572 62.1223 17.324 62.2503 16.996L62.5023 17.896C62.3583 18.272 62.0983 18.564 61.7223 18.772C61.3543 18.98 60.8863 19.084 60.3183 19.084ZM61.8303 11.716C61.6383 11.716 61.4623 11.68 61.3023 11.608C61.1503 11.528 61.0103 11.436 60.8823 11.332C60.7623 11.22 60.6463 11.124 60.5343 11.044C60.4223 10.964 60.3103 10.924 60.1983 10.924C60.0303 10.924 59.8943 10.988 59.7903 11.116C59.6863 11.244 59.6263 11.42 59.6103 11.644H58.8063C58.8223 11.148 58.9423 10.756 59.1663 10.468C59.3983 10.18 59.7103 10.036 60.1023 10.036C60.2943 10.036 60.4703 10.076 60.6303 10.156C60.7903 10.236 60.9303 10.328 61.0503 10.432C61.1783 10.536 61.2983 10.628 61.4103 10.708C61.5223 10.788 61.6303 10.828 61.7343 10.828C61.9023 10.828 62.0383 10.768 62.1423 10.648C62.2543 10.528 62.3143 10.36 62.3223 10.144H63.1263C63.1183 10.608 62.9983 10.988 62.7663 11.284C62.5343 11.572 62.2223 11.716 61.8303 11.716ZM70.9718 19.084C70.4358 19.084 69.9198 19.016 69.4238 18.88C68.9358 18.736 68.5478 18.564 68.2598 18.364L68.8358 17.224C69.1238 17.408 69.4678 17.56 69.8678 17.68C70.2678 17.8 70.6678 17.86 71.0678 17.86C71.5398 17.86 71.8798 17.796 72.0878 17.668C72.3038 17.54 72.4118 17.368 72.4118 17.152C72.4118 16.976 72.3398 16.844 72.1958 16.756C72.0518 16.66 71.8638 16.588 71.6318 16.54C71.3998 16.492 71.1398 16.448 70.8518 16.408C70.5718 16.368 70.2878 16.316 69.9998 16.252C69.7198 16.18 69.4638 16.08 69.2318 15.952C68.9998 15.816 68.8118 15.636 68.6678 15.412C68.5238 15.188 68.4518 14.892 68.4518 14.524C68.4518 14.116 68.5678 13.764 68.7998 13.468C69.0318 13.164 69.3558 12.932 69.7718 12.772C70.1958 12.604 70.6958 12.52 71.2718 12.52C71.7038 12.52 72.1398 12.568 72.5798 12.664C73.0198 12.76 73.3838 12.896 73.6718 13.072L73.0958 14.212C72.7918 14.028 72.4838 13.904 72.1718 13.84C71.8678 13.768 71.5638 13.732 71.2598 13.732C70.8038 13.732 70.4638 13.8 70.2398 13.936C70.0238 14.072 69.9158 14.244 69.9158 14.452C69.9158 14.644 69.9878 14.788 70.1318 14.884C70.2758 14.98 70.4638 15.056 70.6958 15.112C70.9278 15.168 71.1838 15.216 71.4638 15.256C71.7518 15.288 72.0358 15.34 72.3158 15.412C72.5958 15.484 72.8518 15.584 73.0838 15.712C73.3238 15.832 73.5158 16.004 73.6598 16.228C73.8038 16.452 73.8758 16.744 73.8758 17.104C73.8758 17.504 73.7558 17.852 73.5158 18.148C73.2838 18.444 72.9518 18.676 72.5198 18.844C72.0878 19.004 71.5718 19.084 70.9718 19.084ZM79.1156 19V17.704L79.0316 17.428V15.16C79.0316 14.72 78.8996 14.38 78.6356 14.14C78.3716 13.892 77.9716 13.768 77.4356 13.768C77.0756 13.768 76.7196 13.824 76.3676 13.936C76.0236 14.048 75.7316 14.204 75.4916 14.404L74.9036 13.312C75.2476 13.048 75.6556 12.852 76.1276 12.724C76.6076 12.588 77.1036 12.52 77.6156 12.52C78.5436 12.52 79.2596 12.744 79.7636 13.192C80.2756 13.632 80.5316 14.316 80.5316 15.244V19H79.1156ZM77.0996 19.084C76.6196 19.084 76.1996 19.004 75.8396 18.844C75.4796 18.676 75.1996 18.448 74.9996 18.16C74.8076 17.864 74.7116 17.532 74.7116 17.164C74.7116 16.804 74.7956 16.48 74.9636 16.192C75.1396 15.904 75.4236 15.676 75.8156 15.508C76.2076 15.34 76.7276 15.256 77.3756 15.256H79.2356V16.252H77.4836C76.9716 16.252 76.6276 16.336 76.4516 16.504C76.2756 16.664 76.1876 16.864 76.1876 17.104C76.1876 17.376 76.2956 17.592 76.5116 17.752C76.7276 17.912 77.0276 17.992 77.4116 17.992C77.7796 17.992 78.1076 17.908 78.3956 17.74C78.6916 17.572 78.9036 17.324 79.0316 16.996L79.2836 17.896C79.1396 18.272 78.8796 18.564 78.5036 18.772C78.1356 18.98 77.6676 19.084 77.0996 19.084ZM78.0476 11.836L77.5556 11.284C77.7876 11.172 77.9516 11.056 78.0476 10.936C78.1516 10.808 78.2036 10.668 78.2036 10.516C78.2036 10.356 78.1476 10.228 78.0356 10.132C77.9236 10.036 77.7796 9.988 77.6036 9.988C77.3556 9.988 77.1156 10.064 76.8836 10.216L76.5596 9.556C76.7276 9.436 76.9156 9.344 77.1236 9.28C77.3316 9.216 77.5436 9.184 77.7596 9.184C78.1516 9.184 78.4676 9.296 78.7076 9.52C78.9556 9.736 79.0796 10.024 79.0796 10.384C79.0796 10.712 78.9956 10.996 78.8276 11.236C78.6596 11.476 78.3996 11.676 78.0476 11.836ZM86.0927 12.52C86.6047 12.52 87.0607 12.62 87.4607 12.82C87.8687 13.02 88.1887 13.328 88.4207 13.744C88.6527 14.152 88.7687 14.68 88.7687 15.328V19H87.2687V15.52C87.2687 14.952 87.1327 14.528 86.8607 14.248C86.5967 13.968 86.2247 13.828 85.7447 13.828C85.3927 13.828 85.0807 13.9 84.8087 14.044C84.5367 14.188 84.3247 14.404 84.1727 14.692C84.0287 14.972 83.9567 15.328 83.9567 15.76V19H82.4567V12.592H83.8847V14.32L83.6327 13.792C83.8567 13.384 84.1807 13.072 84.6047 12.856C85.0367 12.632 85.5327 12.52 86.0927 12.52ZM97.5399 19.084C97.0199 19.084 96.5439 18.964 96.1119 18.724C95.6879 18.484 95.3479 18.124 95.0919 17.644C94.8439 17.156 94.7199 16.54 94.7199 15.796C94.7199 15.044 94.8399 14.428 95.0799 13.948C95.3279 13.468 95.6639 13.112 96.0879 12.88C96.5119 12.64 96.9959 12.52 97.5399 12.52C98.1719 12.52 98.7279 12.656 99.2079 12.928C99.6959 13.2 100.08 13.58 100.36 14.068C100.648 14.556 100.792 15.132 100.792 15.796C100.792 16.46 100.648 17.04 100.36 17.536C100.08 18.024 99.6959 18.404 99.2079 18.676C98.7279 18.948 98.1719 19.084 97.5399 19.084ZM93.9879 21.328V12.592H95.4159V14.104L95.3679 15.808L95.4879 17.512V21.328H93.9879ZM97.3719 17.8C97.7319 17.8 98.0519 17.72 98.3319 17.56C98.6199 17.4 98.8479 17.168 99.0159 16.864C99.1839 16.56 99.2679 16.204 99.2679 15.796C99.2679 15.38 99.1839 15.024 99.0159 14.728C98.8479 14.424 98.6199 14.192 98.3319 14.032C98.0519 13.872 97.7319 13.792 97.3719 13.792C97.0119 13.792 96.6879 13.872 96.3999 14.032C96.1119 14.192 95.8839 14.424 95.7159 14.728C95.5479 15.024 95.4639 15.38 95.4639 15.796C95.4639 16.204 95.5479 16.56 95.7159 16.864C95.8839 17.168 96.1119 17.4 96.3999 17.56C96.6879 17.72 97.0119 17.8 97.3719 17.8ZM105.85 12.52C106.362 12.52 106.818 12.62 107.218 12.82C107.626 13.02 107.946 13.328 108.178 13.744C108.41 14.152 108.526 14.68 108.526 15.328V19H107.026V15.52C107.026 14.952 106.89 14.528 106.618 14.248C106.354 13.968 105.982 13.828 105.502 13.828C105.15 13.828 104.838 13.9 104.566 14.044C104.294 14.188 104.082 14.404 103.93 14.692C103.786 14.972 103.714 15.328 103.714 15.76V19H102.214V10.096H103.714V14.32L103.39 13.792C103.614 13.384 103.938 13.072 104.362 12.856C104.794 12.632 105.29 12.52 105.85 12.52ZM114.377 19V17.704L114.293 17.428V15.16C114.293 14.72 114.161 14.38 113.897 14.14C113.633 13.892 113.233 13.768 112.697 13.768C112.337 13.768 111.981 13.824 111.629 13.936C111.285 14.048 110.993 14.204 110.753 14.404L110.165 13.312C110.509 13.048 110.917 12.852 111.389 12.724C111.869 12.588 112.365 12.52 112.877 12.52C113.805 12.52 114.521 12.744 115.025 13.192C115.537 13.632 115.793 14.316 115.793 15.244V19H114.377ZM112.361 19.084C111.881 19.084 111.461 19.004 111.101 18.844C110.741 18.676 110.461 18.448 110.261 18.16C110.069 17.864 109.973 17.532 109.973 17.164C109.973 16.804 110.057 16.48 110.225 16.192C110.401 15.904 110.685 15.676 111.077 15.508C111.469 15.34 111.989 15.256 112.637 15.256H114.497V16.252H112.745C112.233 16.252 111.889 16.336 111.713 16.504C111.537 16.664 111.449 16.864 111.449 17.104C111.449 17.376 111.557 17.592 111.773 17.752C111.989 17.912 112.289 17.992 112.673 17.992C113.041 17.992 113.369 17.908 113.657 17.74C113.953 17.572 114.165 17.324 114.293 16.996L114.545 17.896C114.401 18.272 114.141 18.564 113.765 18.772C113.397 18.98 112.929 19.084 112.361 19.084ZM110.717 11.716L112.337 10.432H113.681L115.301 11.716H114.053L112.445 10.696H113.573L111.965 11.716H110.717ZM114.941 10.84L114.557 10.432C114.717 10.352 114.833 10.268 114.905 10.18C114.985 10.084 115.025 9.992 115.025 9.904C115.025 9.792 114.985 9.704 114.905 9.64C114.825 9.568 114.721 9.532 114.593 9.532C114.425 9.532 114.249 9.58 114.065 9.676L113.801 9.172C113.929 9.084 114.073 9.02 114.233 8.98C114.401 8.94 114.565 8.92 114.725 8.92C115.037 8.92 115.281 9.004 115.457 9.172C115.641 9.34 115.733 9.556 115.733 9.82C115.733 10.052 115.661 10.26 115.517 10.444C115.373 10.62 115.181 10.752 114.941 10.84ZM125.806 12.52C126.318 12.52 126.77 12.62 127.162 12.82C127.562 13.02 127.874 13.328 128.098 13.744C128.322 14.152 128.434 14.68 128.434 15.328V19H126.934V15.52C126.934 14.952 126.81 14.528 126.562 14.248C126.314 13.968 125.958 13.828 125.494 13.828C125.166 13.828 124.874 13.9 124.618 14.044C124.37 14.188 124.174 14.4 124.03 14.68C123.894 14.96 123.826 15.316 123.826 15.748V19H122.326V15.52C122.326 14.952 122.202 14.528 121.954 14.248C121.706 13.968 121.35 13.828 120.886 13.828C120.558 13.828 120.266 13.9 120.01 14.044C119.762 14.188 119.566 14.4 119.422 14.68C119.286 14.96 119.218 15.316 119.218 15.748V19H117.718V12.592H119.146V14.296L118.894 13.792C119.11 13.376 119.422 13.06 119.83 12.844C120.246 12.628 120.718 12.52 121.246 12.52C121.846 12.52 122.366 12.668 122.806 12.964C123.254 13.26 123.55 13.708 123.694 14.308L123.106 14.104C123.314 13.624 123.658 13.24 124.138 12.952C124.618 12.664 125.174 12.52 125.806 12.52Z" fill="#007AD4"/>
</g>
<defs>
<clipPath id="clip0_11166_41909">
<rect width="140" height="29" fill="white"/>
</clipPath>
</defs>
</svg>
