<?xml version="1.0" encoding="UTF-8"?>
<svg width="22px" height="52px" viewBox="0 0 22 52" version="1.1" xmlns="http://www.w3.org/2000/svg" xmlns:xlink="http://www.w3.org/1999/xlink">
    <title>B4EA6B47-E274-44FF-9785-21FE59C8D36C</title>
    <g id="Update-CSTV-19.11" stroke="none" stroke-width="1" fill="none" fill-rule="evenodd">
        <g id="Chính-sách-thành-viên" transform="translate(-288.000000, -1625.000000)" fill="#40B7E2" fill-rule="nonzero">
            <path d="M318.522667,1665 C318.42218,1664.99938 318.323434,1664.97408 318.235348,1664.92639 C318.033682,1664.84088 317.90668,1664.64128 317.916339,1664.42503 C317.936989,1664.1692 318.01082,1663.9203 318.133237,1663.69382 C318.331825,1663.35148 318.549427,1663.01053 318.760691,1662.68138 C318.940266,1662.40362 319.125474,1662.11197 319.298006,1661.82171 C320.150809,1660.39401 320.977556,1658.97464 321.602193,1657.89137 C321.619572,1657.83263 321.614563,1657.76965 321.588109,1657.7143 C321.578535,1657.68493 321.570775,1657.65501 321.56487,1657.62472 C321.533884,1657.63375 321.500082,1657.64069 321.466984,1657.64763 C321.398469,1657.65553 321.332827,1657.67933 321.275438,1657.71707 C319.666931,1659.02749 317.889542,1660.12213 315.989611,1660.97245 C313.563254,1662.08795 310.975864,1662.82494 308.32002,1663.15705 C307.941857,1663.20843 307.558061,1663.26399 307.18694,1663.31676 L307.18694,1663.31676 C306.306673,1663.44314 305.396829,1663.57369 304.498253,1663.66952 C303.506785,1663.77881 302.510027,1663.83491 301.512387,1663.83756 C300.212999,1663.84517 298.915908,1663.72889 297.639212,1663.49036 C296.272748,1663.23636 294.955125,1662.77265 293.734347,1662.11613 C292.724844,1661.58573 291.837683,1660.85491 291.128757,1659.96973 C290.454063,1659.09835 289.98733,1658.08816 289.763287,1657.01434 C289.74709,1656.93934 289.735118,1656.86157 289.723146,1656.78726 C289.706672,1656.65966 289.679825,1656.53357 289.642866,1656.4102 C289.567685,1656.14462 289.337994,1655.94963 289.060481,1655.91579 C288.723163,1655.86857 288.379507,1655.82829 288.046414,1655.7894 C287.668955,1655.74566 287.278821,1655.69983 286.897137,1655.64427 C285.129606,1655.39401 283.427913,1654.80874 281.885953,1653.92076 C280.395534,1653.03943 279.069903,1651.91196 277.967004,1650.58761 C277.025763,1649.48427 276.228264,1648.26911 275.5931,1646.97045 C274.971318,1645.68756 274.518587,1644.33149 274.245939,1642.93526 L274.232559,1642.86929 C274.129934,1642.38899 274.053534,1641.90359 274.00369,1641.41521 C273.964074,1640.87707 274.246029,1640.3655 274.725509,1640.10556 C274.833688,1640.03653 274.960032,1640.00031 275.088883,1640.0014 C275.351338,1639.983 275.591136,1640.14797 275.664226,1640.39721 C275.721267,1640.66317 275.77197,1640.93468 275.821265,1641.19716 C275.891687,1641.58048 275.967037,1641.97698 276.06281,1642.36168 C276.752514,1645.27856 278.260101,1647.94542 280.413442,1650.05778 C281.228281,1650.85008 282.134442,1651.54552 283.113397,1652.12989 C284.953352,1653.17429 287.019983,1653.76953 289.140762,1653.8659 C289.165409,1653.8659 289.189353,1653.8659 289.211183,1653.8659 C289.468774,1653.87866 289.698773,1653.70797 289.757653,1653.46037 C289.811877,1653.30135 289.861877,1653.13886 289.910467,1652.98192 C289.966804,1652.79929 290.025254,1652.61111 290.089338,1652.4264 C290.393244,1651.54111 290.816767,1650.70026 291.348471,1649.92654 C291.852773,1649.20105 292.463123,1648.5531 293.159709,1648.00373 C293.874983,1647.44609 294.6642,1646.98747 295.505445,1646.64061 C296.427289,1646.26338 297.388469,1645.98743 298.371594,1645.81774 C298.888108,1645.71973 299.412508,1645.66767 299.938469,1645.66219 C300.420838,1645.65843 300.901498,1645.71916 301.367319,1645.84274 C301.850239,1645.96076 302.318014,1646.13245 302.761662,1646.35451 C303.316542,1646.63918 303.766445,1647.08889 304.047556,1647.63986 C304.307344,1648.18069 304.378405,1648.79106 304.249665,1649.37587 C303.994838,1650.56307 303.358398,1651.63752 302.434907,1652.43959 C301.74263,1653.05568 300.961931,1653.56765 300.118044,1653.95895 C297.963524,1655.00298 295.632425,1655.64678 293.241398,1655.85815 C292.842109,1655.89218 292.438594,1655.95884 292.049164,1656.02342 L291.918885,1656.04495 C291.826605,1656.06282 291.74643,1656.11864 291.698466,1656.19841 C291.632346,1656.29699 291.615001,1656.41977 291.651283,1656.53242 C291.663959,1656.56783 291.676635,1656.60186 291.688607,1656.63797 C291.709733,1656.69908 291.732268,1656.76227 291.759028,1656.82407 C292.486192,1658.56933 293.895826,1659.95208 295.669526,1660.65996 C297.429232,1661.37008 299.301825,1661.76965 301.201829,1661.84045 C301.563794,1661.86476 301.943366,1661.87726 302.32857,1661.87726 C303.745755,1661.85121 305.159733,1661.73454 306.561598,1661.52797 C307.308065,1661.43214 308.06439,1661.31965 308.795364,1661.20646 C309.31437,1661.12799 309.851685,1661.04675 310.379141,1660.97245 C311.375472,1660.84837 312.34813,1660.58169 313.266416,1660.18082 C314.995965,1659.39754 316.752978,1658.56355 318.488865,1657.70319 C318.861394,1657.50345 319.214928,1657.27104 319.545185,1657.00878 C319.681803,1656.9067 319.826871,1656.80046 319.967713,1656.70185 C319.995178,1656.68241 319.993769,1656.60811 319.981798,1656.56297 C319.969826,1656.51784 319.932503,1656.46506 319.8987,1656.46159 L319.888137,1656.46159 C319.670898,1656.43336 319.452276,1656.41667 319.233219,1656.41159 C318.833225,1656.41159 318.414922,1656.41159 317.833242,1656.41159 L315.931865,1656.41159 C315.802994,1656.41576 315.665672,1656.41784 315.522717,1656.41784 C314.664985,1656.41784 313.674156,1656.34493 312.624878,1656.26785 C312.094605,1656.22896 311.546727,1656.18869 311.000257,1656.15674 C310.844496,1656.14453 310.689558,1656.12367 310.53618,1656.09425 L310.503082,1656.08869 C310.231536,1656.0377 310.033614,1655.80571 310.029146,1655.53317 C310.051098,1655.1809 310.199073,1654.84773 310.446745,1654.59294 C310.693325,1654.347 311.030525,1654.21019 311.381237,1654.2138 L311.451658,1654.2138 C312.226293,1654.2138 313.000928,1654.26171 313.734718,1654.31032 C315.463563,1654.42629 317.036072,1654.48323 318.543793,1654.48323 C320.040247,1654.48323 321.43459,1654.42837 322.806398,1654.31518 C322.923298,1654.30546 323.031043,1654.3006 323.126816,1654.3006 C323.385461,1654.26809 323.646119,1654.34361 323.845818,1654.50892 C324.006378,1654.68183 324.040181,1654.97487 323.953562,1655.45748 C323.732533,1656.7376 323.285636,1657.9696 322.633162,1659.09755 C321.750078,1660.60927 320.802206,1662.12308 319.886729,1663.58758 L319.882503,1663.59452 L319.422652,1664.33059 C319.269255,1664.54683 319.078574,1664.73486 318.859281,1664.88612 C318.762698,1664.95931 318.644473,1664.9993 318.522667,1665 Z M299.641457,1647.81699 L299.641457,1647.81699 C299.464517,1647.81684 299.287773,1647.828 299.112462,1647.85038 L298.813282,1647.89097 C298.313714,1647.95645 297.797331,1648.02192 297.297763,1648.1162 C294.739428,1648.52866 292.622175,1650.20606 291.768188,1652.49704 C291.686875,1652.72252 291.633969,1652.95609 291.61054,1653.19302 C291.603534,1653.24475 291.595827,1653.29582 291.588119,1653.34689 C291.573059,1653.45665 291.611953,1653.56689 291.693919,1653.64676 C291.79674,1653.74938 291.939391,1653.80907 292.089789,1653.8124 C292.187881,1653.8124 292.292979,1653.81699 292.421199,1653.81699 L292.672735,1653.81699 L292.92427,1653.81699 L293.082618,1653.81699 C294.088412,1653.79149 295.088066,1653.66171 296.063208,1653.43004 C297.774633,1653.01847 299.4285,1652.42076 300.99092,1651.64916 C301.533322,1651.41492 301.989967,1651.0367 302.303949,1650.56164 C302.613214,1650.10683 302.67078,1649.54116 302.458794,1649.04004 C302.232915,1648.56541 301.791121,1648.21048 301.255067,1648.07299 C300.734828,1647.91205 300.191486,1647.82574 299.643559,1647.81699 L299.641457,1647.81699 Z" id="Fill_19-2-Copy" transform="translate(299.000000, 1652.500000) scale(-1, 1) rotate(60.000000) translate(-299.000000, -1652.500000) "></path>
        </g>
    </g>
</svg>