<svg width="18" height="18" viewBox="0 0 18 18" fill="none" xmlns="http://www.w3.org/2000/svg">
<circle cx="9" cy="9" r="9" fill="url(#paint0_linear_13946_35894)"/>
<circle cx="9" cy="9" r="8.125" stroke="#44A5D8" stroke-opacity="0.5" stroke-width="1.75"/>
<path d="M9.90147 12.5399C10.168 12.7223 10.4957 12.7924 10.8135 12.7349C11.7725 12.5865 11.2585 10.9748 11.079 10.3464C10.8693 9.61047 10.5065 8.7413 10.7325 7.97433C10.8166 7.76892 10.9598 7.59306 11.1438 7.469C11.3279 7.34494 11.5446 7.27824 11.7666 7.27734C12.8905 7.27734 13.2095 8.83328 13.2095 9.69499C13.2095 10.6613 12.9495 12.698 11.3357 13.0278C10.3351 13.2326 9.94589 12.5791 9.90088 12.5399" fill="white"/>
<path d="M12.4793 12.7701C12.4793 12.7701 11.7128 13.541 10.8337 13.4152C8.40215 13.0689 9.69156 10.5702 9.93863 9.30264C10.2335 7.81275 10.5193 5.99833 9.93863 4.54067C9.74676 4.0886 9.38839 3.72763 8.93772 3.5325C8.48705 3.33737 7.9786 3.32302 7.51764 3.49243C6.2072 3.97596 5.82077 5.99833 5.69203 7.24332C5.65025 7.62851 5.62788 8.01556 5.625 8.403C5.625 10.3216 6.51167 14.625 9.59544 14.625C11.4983 14.625 12.2812 12.8988 12.4789 12.7701" fill="white"/>
<defs>
<linearGradient id="paint0_linear_13946_35894" x1="8.87946" y1="-2.25" x2="9" y2="18" gradientUnits="userSpaceOnUse">
<stop stop-color="#0C64F2"/>
<stop offset="1" stop-color="#44A5D8"/>
</linearGradient>
</defs>
</svg>
