<svg width="327" height="50" viewBox="0 0 327 50" fill="none" xmlns="http://www.w3.org/2000/svg">
<g filter="url(#filter0_d_9768_180343)">
<rect x="4.78809" y="2" width="318" height="42" rx="10" fill="url(#paint0_linear_9768_180343)"/>
</g>
<mask id="mask0_9768_180343" style="mask-type:luminance" maskUnits="userSpaceOnUse" x="4" y="2" width="319" height="42">
<rect x="4.78809" y="2" width="318" height="42" rx="10" fill="white"/>
</mask>
<g mask="url(#mask0_9768_180343)">
<path fill-rule="evenodd" clip-rule="evenodd" d="M137.85 -75.0237C146.108 -76.8524 154.666 -76.8524 162.925 -75.0237L431.164 -15.6268C491.77 -2.20658 491.77 84.1945 431.164 97.6146C422.905 99.4433 414.347 99.4433 406.088 97.6146L137.849 38.2177C77.2434 24.7975 77.2435 -61.6035 137.85 -75.0237Z" fill="#258FE0" fill-opacity="0.2" style="mix-blend-mode:color-burn"/>
<path fill-rule="evenodd" clip-rule="evenodd" d="M382.528 3.51627C390.787 1.68758 399.345 1.68757 407.604 3.51627L675.842 62.9133C736.448 76.3334 736.448 162.734 675.842 176.155C667.584 177.983 659.025 177.983 650.767 176.155L382.528 116.758C321.922 103.337 321.922 16.9365 382.528 3.51627Z" fill="#258FE0" fill-opacity="0.1" style="mix-blend-mode:color-burn"/>
<path fill-rule="evenodd" clip-rule="evenodd" d="M134.056 190.225C73.4504 176.804 73.4505 90.4034 134.057 76.9832L402.295 17.5863C410.554 15.7576 419.112 15.7576 427.371 17.5863C487.977 31.0065 487.977 117.407 427.371 130.828L159.132 190.225C150.873 192.053 142.315 192.053 134.056 190.225Z" fill="#258FE0" fill-opacity="0.2" style="mix-blend-mode:color-burn"/>
</g>
<g clip-path="url(#clip0_9768_180343)">
<path d="M32.4473 27.706C32.0133 28.154 31.4953 28.392 30.9633 28.392C30.5433 28.392 30.2073 28.252 29.8153 27.832C31.8173 27.104 33.1473 25.326 33.1473 23.1C33.1473 20.16 30.8373 18.004 27.7013 18.004C24.5653 18.004 22.2553 20.16 22.2553 23.1C22.2553 25.69 24.0473 27.678 26.6233 28.112C28.2613 29.82 29.3113 30.366 30.9073 30.366C32.0273 30.366 32.9933 29.932 33.6513 29.134L32.4473 27.706ZM25.0553 23.1C25.0553 21.406 26.2173 20.3 27.7013 20.3C29.1853 20.3 30.3473 21.406 30.3473 23.1C30.3473 24.794 29.1853 25.9 27.7013 25.9C26.2173 25.9 25.0553 24.794 25.0553 23.1ZM40.1211 28.196C43.0191 28.196 44.7271 26.558 44.7271 23.632V18.2H41.9971V23.548C41.9971 25.228 41.2971 25.9 40.1491 25.9C38.9871 25.9 38.2871 25.228 38.2871 23.548V18.2H35.5151V23.632C35.5151 26.558 37.2231 28.196 40.1211 28.196ZM56.4703 18.2H53.7823L51.4583 22.092L49.1343 18.2H46.2083L49.9463 24.444V28H52.7183V24.486L56.4703 18.2ZM68.1215 18.2H63.4875V22.176H62.2275V23.884H63.4875V28H68.1215C71.3695 28 73.5955 26.11 73.5955 23.1C73.5955 20.09 71.3695 18.2 68.1215 18.2ZM68.0095 25.788H66.2595V23.884H68.5275V22.176H66.2595V20.412H68.0095C69.6755 20.412 70.7955 21.406 70.7955 23.1C70.7955 24.794 69.6755 25.788 68.0095 25.788ZM76.0484 28H78.8204V18.2H76.0484V28ZM77.4344 31.052C78.0644 31.052 78.5404 30.632 78.5404 29.974C78.5404 29.316 78.0644 28.868 77.4344 28.868C76.8044 28.868 76.3284 29.316 76.3284 29.974C76.3284 30.632 76.8044 31.052 77.4344 31.052ZM88.4005 18.2V23.422L84.0745 18.2H81.7925V28H84.5085V22.778L88.8345 28H91.1165V18.2H88.4005ZM100.624 18.2V21.882H96.8438V18.2H94.0718V28H96.8438V24.178H100.624V28H103.396V18.2H100.624ZM116.297 18.2H111.663V22.176H110.403V23.884H111.663V28H116.297C119.545 28 121.771 26.11 121.771 23.1C121.771 20.09 119.545 18.2 116.297 18.2ZM116.185 25.788H114.435V23.884H116.703V22.176H114.435V20.412H116.185C117.851 20.412 118.971 21.406 118.971 23.1C118.971 24.794 117.851 25.788 116.185 25.788ZM131.336 14.77C131.588 14.77 131.784 14.924 131.784 15.148C131.784 15.316 131.658 15.512 131.28 15.708L131.91 16.282C132.47 16.058 132.946 15.61 132.946 15.008C132.946 14.294 132.4 13.846 131.56 13.846C131.098 13.846 130.636 13.958 130.286 14.182L130.706 14.938C130.93 14.826 131.112 14.77 131.336 14.77ZM129.166 16.576L130.356 17.402H132.134L130.3 15.694H128.032L126.198 17.402H127.976L129.166 16.576ZM129.166 18.004C126.03 18.004 123.72 20.16 123.72 23.1C123.72 26.04 126.03 28.196 129.166 28.196C132.302 28.196 134.612 26.04 134.612 23.1C134.612 20.16 132.302 18.004 129.166 18.004ZM129.166 25.9C127.682 25.9 126.52 24.794 126.52 23.1C126.52 21.406 127.682 20.3 129.166 20.3C130.65 20.3 131.812 21.406 131.812 23.1C131.812 24.794 130.65 25.9 129.166 25.9ZM137.064 28H139.836V18.2H137.064V28ZM159.278 28L159.25 18.2H156.968L153.608 23.856L150.164 18.2H147.882V28H150.444V22.946L152.95 27.034H154.182L156.702 22.806L156.73 28H159.278ZM166.762 28.196C169.66 28.196 171.368 26.558 171.368 23.632V18.2H168.638V23.548C168.638 25.228 167.938 25.9 166.79 25.9C165.628 25.9 164.928 25.228 164.928 23.548V18.2H162.156V23.632C162.156 26.558 163.864 28.196 166.762 28.196ZM178.306 14.49C178.74 14.49 179.244 15.204 180.238 15.204C181.358 15.204 181.988 14.476 182.002 13.3H180.714C180.686 13.636 180.462 13.902 180.098 13.902C179.65 13.902 179.118 13.188 178.152 13.188C177.06 13.188 176.388 13.874 176.374 15.092H177.704C177.732 14.728 177.956 14.49 178.306 14.49ZM179.188 16.576L180.378 17.402H182.156L180.322 15.694H178.054L176.22 17.402H177.998L179.188 16.576ZM179.188 18.004C176.052 18.004 173.742 20.16 173.742 23.1C173.742 26.04 176.052 28.196 179.188 28.196C182.324 28.196 184.634 26.04 184.634 23.1C184.634 20.16 182.324 18.004 179.188 18.004ZM179.188 25.9C177.704 25.9 176.542 24.794 176.542 23.1C176.542 21.406 177.704 20.3 179.188 20.3C180.672 20.3 181.834 21.406 181.834 23.1C181.834 24.794 180.672 25.9 179.188 25.9ZM193.693 18.2V23.422L189.367 18.2H187.085V28H189.801V22.778L194.127 28H196.409V18.2H193.693ZM205.931 25.578C205.441 25.802 204.951 25.9 204.433 25.9C202.781 25.9 201.661 24.752 201.661 23.1C201.661 21.406 202.781 20.3 204.461 20.3C205.399 20.3 206.169 20.65 206.841 21.392L208.605 19.796C207.639 18.634 206.155 18.004 204.321 18.004C201.143 18.004 198.861 20.118 198.861 23.1C198.861 26.082 201.143 28.196 204.265 28.196C205.693 28.196 207.247 27.762 208.381 26.95V22.89H205.931V25.578ZM222.82 18.2V23.422L218.494 18.2H216.212V28H218.928V22.778L223.254 28H225.536V18.2H222.82ZM235.044 18.2V21.882H231.264V18.2H228.492V28H231.264V24.178H235.044V28H237.816V18.2H235.044ZM245.293 16.338L246.497 17.402H248.261L246.441 15.274H244.145L242.325 17.402H244.089L245.293 16.338ZM250.991 28L246.651 18.2H243.921L239.595 28H242.423L243.193 26.096H247.337L248.107 28H250.991ZM244.005 24.052L245.265 20.916L246.525 24.052H244.005ZM245.293 28.868C244.663 28.868 244.187 29.316 244.187 29.974C244.187 30.632 244.663 31.052 245.293 31.052C245.923 31.052 246.399 30.632 246.399 29.974C246.399 29.316 245.923 28.868 245.293 28.868ZM259.385 18.2V23.422L255.059 18.2H252.777V28H255.493V22.778L259.819 28H262.101V18.2H259.385ZM279.818 27.706C279.384 28.154 278.866 28.392 278.334 28.392C277.914 28.392 277.578 28.252 277.186 27.832C279.188 27.104 280.518 25.326 280.518 23.1C280.518 20.16 278.208 18.004 275.072 18.004C271.936 18.004 269.626 20.16 269.626 23.1C269.626 25.69 271.418 27.678 273.994 28.112C275.632 29.82 276.682 30.366 278.278 30.366C279.398 30.366 280.364 29.932 281.022 29.134L279.818 27.706ZM272.426 23.1C272.426 21.406 273.588 20.3 275.072 20.3C276.556 20.3 277.718 21.406 277.718 23.1C277.718 24.794 276.556 25.9 275.072 25.9C273.588 25.9 272.426 24.794 272.426 23.1ZM287.492 28.196C290.39 28.196 292.098 26.558 292.098 23.632V18.2H289.368V23.548C289.368 25.228 288.668 25.9 287.52 25.9C286.358 25.9 285.658 25.228 285.658 23.548V18.2H282.886V23.632C282.886 26.558 284.594 28.196 287.492 28.196ZM300.665 17.402L298.789 15.274H296.129L298.761 17.402H300.665ZM302.107 28H304.991L300.651 18.2H297.921L293.595 28H296.423L297.193 26.096H301.337L302.107 28ZM298.005 24.052L299.265 20.916L300.525 24.052H298.005Z" fill="white"/>
</g>
<defs>
<filter id="filter0_d_9768_180343" x="0.788086" y="0" width="326" height="50" filterUnits="userSpaceOnUse" color-interpolation-filters="sRGB">
<feFlood flood-opacity="0" result="BackgroundImageFix"/>
<feColorMatrix in="SourceAlpha" type="matrix" values="0 0 0 0 0 0 0 0 0 0 0 0 0 0 0 0 0 0 127 0" result="hardAlpha"/>
<feOffset dy="2"/>
<feGaussianBlur stdDeviation="2"/>
<feColorMatrix type="matrix" values="0 0 0 0 0 0 0 0 0 0 0 0 0 0 0 0 0 0 0.3 0"/>
<feBlend mode="normal" in2="BackgroundImageFix" result="effect1_dropShadow_9768_180343"/>
<feBlend mode="normal" in="SourceGraphic" in2="effect1_dropShadow_9768_180343" result="shape"/>
</filter>
<linearGradient id="paint0_linear_9768_180343" x1="163.788" y1="-19" x2="152.884" y2="63.5598" gradientUnits="userSpaceOnUse">
<stop stop-color="#7CD1F5"/>
<stop offset="1" stop-color="#1C80DF"/>
</linearGradient>
<clipPath id="clip0_9768_180343">
<rect width="285" height="18" fill="white" transform="translate(21.2881 14)"/>
</clipPath>
</defs>
</svg>
