<svg width="145" height="42" viewBox="0 0 145 42" fill="none" xmlns="http://www.w3.org/2000/svg">
<g clip-path="url(#clip0_9768_180605)">
<path d="M3.37172 0H141.191C143.053 0 144.563 1.075 144.563 2.4V39.6C144.563 40.925 143.053 42 141.191 42H3.37172C1.50969 42 0 40.925 0 39.6V2.4C0 1.075 1.50969 0 3.37172 0Z" fill="url(#paint0_linear_9768_180605)"/>
<path d="M41.4916 16.2H43.7596V26H41.4916V16.2ZM37.0396 26H34.7716V16.2H37.0396V26ZM41.6596 21.982H36.8716V20.064H41.6596V21.982ZM50.5443 26V24.53L50.4043 24.208V21.576C50.4043 21.1093 50.2596 20.7453 49.9703 20.484C49.6903 20.2227 49.2563 20.092 48.6683 20.092C48.2669 20.092 47.8703 20.1573 47.4783 20.288C47.0956 20.4093 46.7689 20.5773 46.4983 20.792L45.7143 19.266C46.1249 18.9767 46.6196 18.7527 47.1983 18.594C47.7769 18.4353 48.3649 18.356 48.9623 18.356C50.1103 18.356 51.0016 18.6267 51.6363 19.168C52.2709 19.7093 52.5883 20.554 52.5883 21.702V26H50.5443ZM48.2483 26.112C47.6603 26.112 47.1563 26.014 46.7363 25.818C46.3163 25.6127 45.9943 25.3373 45.7703 24.992C45.5463 24.6467 45.4343 24.2593 45.4343 23.83C45.4343 23.382 45.5416 22.99 45.7563 22.654C45.9803 22.318 46.3303 22.0567 46.8063 21.87C47.2823 21.674 47.9029 21.576 48.6683 21.576H50.6703V22.85H48.9063C48.3929 22.85 48.0383 22.934 47.8423 23.102C47.6556 23.27 47.5623 23.48 47.5623 23.732C47.5623 24.012 47.6696 24.236 47.8843 24.404C48.1083 24.5627 48.4116 24.642 48.7943 24.642C49.1583 24.642 49.4849 24.558 49.7743 24.39C50.0636 24.2127 50.2736 23.956 50.4043 23.62L50.7403 24.628C50.5816 25.1133 50.2923 25.482 49.8723 25.734C49.4523 25.986 48.9109 26.112 48.2483 26.112ZM49.0183 28.94C48.7476 28.94 48.5189 28.856 48.3323 28.688C48.1456 28.52 48.0523 28.2913 48.0523 28.002C48.0523 27.7127 48.1456 27.4747 48.3323 27.288C48.5189 27.1107 48.7476 27.022 49.0183 27.022C49.2889 27.022 49.5176 27.1107 49.7043 27.288C49.8909 27.4747 49.9843 27.7127 49.9843 28.002C49.9843 28.2913 49.8909 28.52 49.7043 28.688C49.5176 28.856 49.2889 28.94 49.0183 28.94ZM59.1429 18.356C59.7402 18.356 60.2722 18.4773 60.7389 18.72C61.2149 18.9533 61.5882 19.3173 61.8589 19.812C62.1296 20.2973 62.2649 20.9227 62.2649 21.688V26H60.0809V22.024C60.0809 21.4173 59.9456 20.9693 59.6749 20.68C59.4136 20.3907 59.0402 20.246 58.5549 20.246C58.2096 20.246 57.8969 20.3207 57.6169 20.47C57.3462 20.61 57.1316 20.8293 56.9729 21.128C56.8236 21.4267 56.7489 21.8093 56.7489 22.276V26H54.5649V18.468H56.6509V20.554L56.2589 19.924C56.5296 19.42 56.9169 19.0327 57.4209 18.762C57.9249 18.4913 58.4989 18.356 59.1429 18.356ZM67.8413 28.828C67.1319 28.828 66.4459 28.7393 65.7833 28.562C65.1299 28.394 64.5839 28.1373 64.1453 27.792L65.0133 26.224C65.3306 26.4853 65.7319 26.6907 66.2173 26.84C66.7119 26.9987 67.1973 27.078 67.6733 27.078C68.4479 27.078 69.0079 26.9053 69.3533 26.56C69.7079 26.2147 69.8853 25.7013 69.8853 25.02V23.886L70.0253 21.996L69.9973 20.092V18.468H72.0693V24.74C72.0693 26.14 71.7053 27.1713 70.9773 27.834C70.2493 28.4967 69.2039 28.828 67.8413 28.828ZM67.5053 25.636C66.8053 25.636 66.1706 25.4867 65.6013 25.188C65.0413 24.88 64.5886 24.4553 64.2433 23.914C63.9073 23.3633 63.7393 22.724 63.7393 21.996C63.7393 21.2587 63.9073 20.6193 64.2433 20.078C64.5886 19.5273 65.0413 19.1027 65.6013 18.804C66.1706 18.5053 66.8053 18.356 67.5053 18.356C68.1399 18.356 68.6999 18.4867 69.1853 18.748C69.6706 19 70.0486 19.3967 70.3193 19.938C70.5899 20.47 70.7253 21.156 70.7253 21.996C70.7253 22.8267 70.5899 23.5127 70.3193 24.054C70.0486 24.586 69.6706 24.9827 69.1853 25.244C68.6999 25.5053 68.1399 25.636 67.5053 25.636ZM67.9393 23.844C68.3219 23.844 68.6626 23.7693 68.9613 23.62C69.2599 23.4613 69.4933 23.242 69.6613 22.962C69.8293 22.682 69.9133 22.36 69.9133 21.996C69.9133 21.6227 69.8293 21.3007 69.6613 21.03C69.4933 20.75 69.2599 20.5353 68.9613 20.386C68.6626 20.2273 68.3219 20.148 67.9393 20.148C67.5566 20.148 67.2159 20.2273 66.9173 20.386C66.6186 20.5353 66.3806 20.75 66.2033 21.03C66.0353 21.3007 65.9513 21.6227 65.9513 21.996C65.9513 22.36 66.0353 22.682 66.2033 22.962C66.3806 23.242 66.6186 23.4613 66.9173 23.62C67.2159 23.7693 67.5566 23.844 67.9393 23.844ZM82.9529 26.168C82.1782 26.168 81.4642 26.0467 80.8109 25.804C80.1669 25.552 79.6022 25.1973 79.1169 24.74C78.6409 24.2827 78.2675 23.746 77.9969 23.13C77.7355 22.514 77.6049 21.8373 77.6049 21.1C77.6049 20.3627 77.7355 19.686 77.9969 19.07C78.2675 18.454 78.6455 17.9173 79.1309 17.46C79.6162 17.0027 80.1855 16.6527 80.8389 16.41C81.4922 16.158 82.2109 16.032 82.9949 16.032C83.8629 16.032 84.6422 16.1767 85.3329 16.466C86.0329 16.7553 86.6209 17.1753 87.0969 17.726L85.6409 19.07C85.2862 18.6967 84.8989 18.4213 84.4789 18.244C84.0589 18.0573 83.6015 17.964 83.1069 17.964C82.6309 17.964 82.1969 18.0387 81.8049 18.188C81.4129 18.3373 81.0722 18.552 80.7829 18.832C80.5029 19.112 80.2835 19.4433 80.1249 19.826C79.9755 20.2087 79.9009 20.6333 79.9009 21.1C79.9009 21.5573 79.9755 21.9773 80.1249 22.36C80.2835 22.7427 80.5029 23.0787 80.7829 23.368C81.0722 23.648 81.4082 23.8627 81.7909 24.012C82.1829 24.1613 82.6122 24.236 83.0789 24.236C83.5269 24.236 83.9609 24.166 84.3809 24.026C84.8102 23.8767 85.2255 23.6293 85.6269 23.284L86.9149 24.922C86.3829 25.3233 85.7622 25.6313 85.0529 25.846C84.3529 26.0607 83.6529 26.168 82.9529 26.168ZM84.8429 24.628V20.946H86.9149V24.922L84.8429 24.628ZM92.4516 26.112C91.649 26.112 90.935 25.944 90.3096 25.608C89.6936 25.272 89.2036 24.8147 88.8396 24.236C88.485 23.648 88.3076 22.9807 88.3076 22.234C88.3076 21.478 88.485 20.8107 88.8396 20.232C89.2036 19.644 89.6936 19.1867 90.3096 18.86C90.935 18.524 91.649 18.356 92.4516 18.356C93.245 18.356 93.9543 18.524 94.5796 18.86C95.205 19.1867 95.695 19.6393 96.0496 20.218C96.4043 20.7967 96.5816 21.4687 96.5816 22.234C96.5816 22.9807 96.4043 23.648 96.0496 24.236C95.695 24.8147 95.205 25.272 94.5796 25.608C93.9543 25.944 93.245 26.112 92.4516 26.112ZM92.4516 24.32C92.8156 24.32 93.1423 24.236 93.4316 24.068C93.721 23.9 93.9496 23.662 94.1176 23.354C94.2856 23.0367 94.3696 22.6633 94.3696 22.234C94.3696 21.7953 94.2856 21.422 94.1176 21.114C93.9496 20.806 93.721 20.568 93.4316 20.4C93.1423 20.232 92.8156 20.148 92.4516 20.148C92.0876 20.148 91.761 20.232 91.4716 20.4C91.1823 20.568 90.949 20.806 90.7716 21.114C90.6036 21.422 90.5196 21.7953 90.5196 22.234C90.5196 22.6633 90.6036 23.0367 90.7716 23.354C90.949 23.662 91.1823 23.9 91.4716 24.068C91.761 24.236 92.0876 24.32 92.4516 24.32ZM98.0415 26V15.612H100.225V26H98.0415ZM105.486 26.112C104.777 26.112 104.138 25.9533 103.568 25.636C102.999 25.3093 102.546 24.8567 102.21 24.278C101.884 23.6993 101.72 23.018 101.72 22.234C101.72 21.4407 101.884 20.7547 102.21 20.176C102.546 19.5973 102.999 19.1493 103.568 18.832C104.138 18.5147 104.777 18.356 105.486 18.356C106.121 18.356 106.676 18.496 107.152 18.776C107.628 19.056 107.997 19.4807 108.258 20.05C108.52 20.6193 108.65 21.3473 108.65 22.234C108.65 23.1113 108.524 23.8393 108.272 24.418C108.02 24.9873 107.656 25.412 107.18 25.692C106.714 25.972 106.149 26.112 105.486 26.112ZM105.864 24.32C106.219 24.32 106.541 24.236 106.83 24.068C107.12 23.9 107.348 23.662 107.516 23.354C107.694 23.0367 107.782 22.6633 107.782 22.234C107.782 21.7953 107.694 21.422 107.516 21.114C107.348 20.806 107.12 20.568 106.83 20.4C106.541 20.232 106.219 20.148 105.864 20.148C105.5 20.148 105.174 20.232 104.884 20.4C104.595 20.568 104.362 20.806 104.184 21.114C104.016 21.422 103.932 21.7953 103.932 22.234C103.932 22.6633 104.016 23.0367 104.184 23.354C104.362 23.662 104.595 23.9 104.884 24.068C105.174 24.236 105.5 24.32 105.864 24.32ZM107.838 26V24.46L107.88 22.22L107.74 19.994V15.612H109.924V26H107.838Z" fill="#845535"/>
</g>
<defs>
<linearGradient id="paint0_linear_9768_180605" x1="0" y1="0" x2="0" y2="42" gradientUnits="userSpaceOnUse">
<stop stop-color="#FBEF8E"/>
<stop offset="1" stop-color="#E4BF51"/>
</linearGradient>
<clipPath id="clip0_9768_180605">
<rect width="144.563" height="42" fill="white"/>
</clipPath>
</defs>
</svg>
