<svg width="150" height="42" viewBox="0 0 150 42" fill="none" xmlns="http://www.w3.org/2000/svg">
<g clip-path="url(#clip0_9768_180474)">
<g filter="url(#filter0_d_9768_180474)">
<path d="M4.32422 0H145.77C147.681 0 149.231 1.075 149.231 2.4V39.6C149.231 40.925 147.681 42 145.77 42H4.32422C2.41319 42 0.86377 40.925 0.86377 39.6V2.4C0.86377 1.075 2.41319 0 4.32422 0Z" fill="url(#paint0_linear_9768_180474)"/>
</g>
<path d="M30.4656 16.2H32.7336V26H30.4656V16.2ZM26.0136 26H23.7456V16.2H26.0136V26ZM30.6336 21.982H25.8456V20.064H30.6336V21.982ZM39.5183 26V24.53L39.3783 24.208V21.576C39.3783 21.1093 39.2336 20.7453 38.9443 20.484C38.6643 20.2227 38.2303 20.092 37.6423 20.092C37.241 20.092 36.8443 20.1573 36.4523 20.288C36.0696 20.4093 35.743 20.5773 35.4723 20.792L34.6883 19.266C35.099 18.9767 35.5936 18.7527 36.1723 18.594C36.751 18.4353 37.339 18.356 37.9363 18.356C39.0843 18.356 39.9756 18.6267 40.6103 19.168C41.245 19.7093 41.5623 20.554 41.5623 21.702V26H39.5183ZM37.2223 26.112C36.6343 26.112 36.1303 26.014 35.7103 25.818C35.2903 25.6127 34.9683 25.3373 34.7443 24.992C34.5203 24.6467 34.4083 24.2593 34.4083 23.83C34.4083 23.382 34.5156 22.99 34.7303 22.654C34.9543 22.318 35.3043 22.0567 35.7803 21.87C36.2563 21.674 36.877 21.576 37.6423 21.576H39.6443V22.85H37.8803C37.367 22.85 37.0123 22.934 36.8163 23.102C36.6296 23.27 36.5363 23.48 36.5363 23.732C36.5363 24.012 36.6436 24.236 36.8583 24.404C37.0823 24.5627 37.3856 24.642 37.7683 24.642C38.1323 24.642 38.459 24.558 38.7483 24.39C39.0376 24.2127 39.2476 23.956 39.3783 23.62L39.7143 24.628C39.5556 25.1133 39.2663 25.482 38.8463 25.734C38.4263 25.986 37.885 26.112 37.2223 26.112ZM37.9923 28.94C37.7216 28.94 37.493 28.856 37.3063 28.688C37.1196 28.52 37.0263 28.2913 37.0263 28.002C37.0263 27.7127 37.1196 27.4747 37.3063 27.288C37.493 27.1107 37.7216 27.022 37.9923 27.022C38.263 27.022 38.4916 27.1107 38.6783 27.288C38.865 27.4747 38.9583 27.7127 38.9583 28.002C38.9583 28.2913 38.865 28.52 38.6783 28.688C38.4916 28.856 38.263 28.94 37.9923 28.94ZM48.1169 18.356C48.7142 18.356 49.2462 18.4773 49.7129 18.72C50.1889 18.9533 50.5622 19.3173 50.8329 19.812C51.1036 20.2973 51.2389 20.9227 51.2389 21.688V26H49.0549V22.024C49.0549 21.4173 48.9196 20.9693 48.6489 20.68C48.3876 20.3907 48.0142 20.246 47.5289 20.246C47.1836 20.246 46.8709 20.3207 46.5909 20.47C46.3202 20.61 46.1056 20.8293 45.9469 21.128C45.7976 21.4267 45.7229 21.8093 45.7229 22.276V26H43.5389V18.468H45.6249V20.554L45.2329 19.924C45.5036 19.42 45.8909 19.0327 46.3949 18.762C46.8989 18.4913 47.4729 18.356 48.1169 18.356ZM56.8153 28.828C56.106 28.828 55.42 28.7393 54.7573 28.562C54.104 28.394 53.558 28.1373 53.1193 27.792L53.9873 26.224C54.3046 26.4853 54.706 26.6907 55.1913 26.84C55.686 26.9987 56.1713 27.078 56.6473 27.078C57.422 27.078 57.982 26.9053 58.3273 26.56C58.682 26.2147 58.8593 25.7013 58.8593 25.02V23.886L58.9993 21.996L58.9713 20.092V18.468H61.0433V24.74C61.0433 26.14 60.6793 27.1713 59.9513 27.834C59.2233 28.4967 58.178 28.828 56.8153 28.828ZM56.4793 25.636C55.7793 25.636 55.1446 25.4867 54.5753 25.188C54.0153 24.88 53.5626 24.4553 53.2173 23.914C52.8813 23.3633 52.7133 22.724 52.7133 21.996C52.7133 21.2587 52.8813 20.6193 53.2173 20.078C53.5626 19.5273 54.0153 19.1027 54.5753 18.804C55.1446 18.5053 55.7793 18.356 56.4793 18.356C57.114 18.356 57.674 18.4867 58.1593 18.748C58.6446 19 59.0226 19.3967 59.2933 19.938C59.564 20.47 59.6993 21.156 59.6993 21.996C59.6993 22.8267 59.564 23.5127 59.2933 24.054C59.0226 24.586 58.6446 24.9827 58.1593 25.244C57.674 25.5053 57.114 25.636 56.4793 25.636ZM56.9133 23.844C57.296 23.844 57.6366 23.7693 57.9353 23.62C58.234 23.4613 58.4673 23.242 58.6353 22.962C58.8033 22.682 58.8873 22.36 58.8873 21.996C58.8873 21.6227 58.8033 21.3007 58.6353 21.03C58.4673 20.75 58.234 20.5353 57.9353 20.386C57.6366 20.2273 57.296 20.148 56.9133 20.148C56.5306 20.148 56.19 20.2273 55.8913 20.386C55.5926 20.5353 55.3546 20.75 55.1773 21.03C55.0093 21.3007 54.9253 21.6227 54.9253 21.996C54.9253 22.36 55.0093 22.682 55.1773 22.962C55.3546 23.242 55.5926 23.4613 55.8913 23.62C56.19 23.7693 56.5306 23.844 56.9133 23.844ZM67.1949 26V16.2H69.0709L73.2429 23.116H72.2489L76.3509 16.2H78.2129L78.2409 26H76.1129L76.0989 19.462H76.4909L73.2149 24.964H72.1929L68.8469 19.462H69.3229V26H67.1949ZM84.15 26.112C83.2913 26.112 82.5353 25.944 81.882 25.608C81.238 25.272 80.7386 24.8147 80.384 24.236C80.0293 23.648 79.852 22.9807 79.852 22.234C79.852 21.478 80.0246 20.8107 80.37 20.232C80.7246 19.644 81.2053 19.1867 81.812 18.86C82.4186 18.524 83.1046 18.356 83.87 18.356C84.6073 18.356 85.27 18.5147 85.858 18.832C86.4553 19.14 86.9266 19.588 87.272 20.176C87.6173 20.7547 87.79 21.45 87.79 22.262C87.79 22.346 87.7853 22.444 87.776 22.556C87.7666 22.6587 87.7573 22.7567 87.748 22.85H81.63V21.576H86.6L85.76 21.954C85.76 21.562 85.6806 21.2213 85.522 20.932C85.3633 20.6427 85.144 20.4187 84.864 20.26C84.584 20.092 84.2573 20.008 83.884 20.008C83.5106 20.008 83.1793 20.092 82.89 20.26C82.61 20.4187 82.3906 20.6473 82.232 20.946C82.0733 21.2353 81.994 21.5807 81.994 21.982V22.318C81.994 22.7287 82.0826 23.0927 82.26 23.41C82.4466 23.718 82.7033 23.956 83.03 24.124C83.366 24.2827 83.758 24.362 84.206 24.362C84.6073 24.362 84.9573 24.3013 85.256 24.18C85.564 24.0587 85.844 23.8767 86.096 23.634L87.258 24.894C86.9126 25.286 86.4786 25.5893 85.956 25.804C85.4333 26.0093 84.8313 26.112 84.15 26.112ZM98.89 18.356C99.4873 18.356 100.015 18.4773 100.472 18.72C100.939 18.9533 101.303 19.3173 101.564 19.812C101.835 20.2973 101.97 20.9227 101.97 21.688V26H99.786V22.024C99.786 21.4173 99.66 20.9693 99.408 20.68C99.156 20.3907 98.8013 20.246 98.344 20.246C98.0267 20.246 97.742 20.3207 97.49 20.47C97.238 20.61 97.042 20.8247 96.902 21.114C96.762 21.4033 96.692 21.772 96.692 22.22V26H94.508V22.024C94.508 21.4173 94.382 20.9693 94.13 20.68C93.8873 20.3907 93.5373 20.246 93.08 20.246C92.7627 20.246 92.478 20.3207 92.226 20.47C91.974 20.61 91.778 20.8247 91.638 21.114C91.498 21.4033 91.428 21.772 91.428 22.22V26H89.244V18.468H91.33V20.526L90.938 19.924C91.1993 19.4107 91.568 19.0233 92.044 18.762C92.5293 18.4913 93.08 18.356 93.696 18.356C94.3867 18.356 94.9887 18.5333 95.502 18.888C96.0247 19.2333 96.37 19.7653 96.538 20.484L95.768 20.274C96.02 19.686 96.4213 19.2193 96.972 18.874C97.532 18.5287 98.1713 18.356 98.89 18.356ZM108.38 26.112C107.717 26.112 107.148 25.972 106.672 25.692C106.196 25.412 105.832 24.9873 105.58 24.418C105.328 23.8393 105.202 23.1113 105.202 22.234C105.202 21.3473 105.332 20.6193 105.594 20.05C105.864 19.4807 106.238 19.056 106.714 18.776C107.19 18.496 107.745 18.356 108.38 18.356C109.089 18.356 109.724 18.5147 110.284 18.832C110.853 19.1493 111.301 19.5973 111.628 20.176C111.964 20.7547 112.132 21.4407 112.132 22.234C112.132 23.018 111.964 23.6993 111.628 24.278C111.301 24.8567 110.853 25.3093 110.284 25.636C109.724 25.9533 109.089 26.112 108.38 26.112ZM103.928 26V15.612H106.112V19.994L105.972 22.22L106.014 24.46V26H103.928ZM108.002 24.32C108.366 24.32 108.688 24.236 108.968 24.068C109.257 23.9 109.486 23.662 109.654 23.354C109.831 23.0367 109.92 22.6633 109.92 22.234C109.92 21.7953 109.831 21.422 109.654 21.114C109.486 20.806 109.257 20.568 108.968 20.4C108.688 20.232 108.366 20.148 108.002 20.148C107.638 20.148 107.311 20.232 107.022 20.4C106.732 20.568 106.504 20.806 106.336 21.114C106.168 21.422 106.084 21.7953 106.084 22.234C106.084 22.6633 106.168 23.0367 106.336 23.354C106.504 23.662 106.732 23.9 107.022 24.068C107.311 24.236 107.638 24.32 108.002 24.32ZM117.332 26.112C116.473 26.112 115.717 25.944 115.064 25.608C114.42 25.272 113.92 24.8147 113.566 24.236C113.211 23.648 113.034 22.9807 113.034 22.234C113.034 21.478 113.206 20.8107 113.552 20.232C113.906 19.644 114.387 19.1867 114.994 18.86C115.6 18.524 116.286 18.356 117.052 18.356C117.789 18.356 118.452 18.5147 119.04 18.832C119.637 19.14 120.108 19.588 120.454 20.176C120.799 20.7547 120.972 21.45 120.972 22.262C120.972 22.346 120.967 22.444 120.958 22.556C120.948 22.6587 120.939 22.7567 120.93 22.85H114.812V21.576H119.782L118.942 21.954C118.942 21.562 118.862 21.2213 118.704 20.932C118.545 20.6427 118.326 20.4187 118.046 20.26C117.766 20.092 117.439 20.008 117.066 20.008C116.692 20.008 116.361 20.092 116.072 20.26C115.792 20.4187 115.572 20.6473 115.414 20.946C115.255 21.2353 115.176 21.5807 115.176 21.982V22.318C115.176 22.7287 115.264 23.0927 115.442 23.41C115.628 23.718 115.885 23.956 116.212 24.124C116.548 24.2827 116.94 24.362 117.388 24.362C117.789 24.362 118.139 24.3013 118.438 24.18C118.746 24.0587 119.026 23.8767 119.278 23.634L120.44 24.894C120.094 25.286 119.66 25.5893 119.138 25.804C118.615 26.0093 118.013 26.112 117.332 26.112ZM122.426 26V18.468H124.512V20.596L124.218 19.98C124.442 19.448 124.801 19.0467 125.296 18.776C125.79 18.496 126.392 18.356 127.102 18.356V20.372C127.008 20.3627 126.924 20.358 126.85 20.358C126.775 20.3487 126.696 20.344 126.612 20.344C126.014 20.344 125.529 20.5167 125.156 20.862C124.792 21.198 124.61 21.7253 124.61 22.444V26H122.426Z" fill="url(#paint1_linear_9768_180474)"/>
</g>
<defs>
<filter id="filter0_d_9768_180474" x="-3.13623" y="-2" width="156.367" height="50" filterUnits="userSpaceOnUse" color-interpolation-filters="sRGB">
<feFlood flood-opacity="0" result="BackgroundImageFix"/>
<feColorMatrix in="SourceAlpha" type="matrix" values="0 0 0 0 0 0 0 0 0 0 0 0 0 0 0 0 0 0 127 0" result="hardAlpha"/>
<feOffset dy="2"/>
<feGaussianBlur stdDeviation="2"/>
<feColorMatrix type="matrix" values="0 0 0 0 0 0 0 0 0 0 0 0 0 0 0 0 0 0 0.051 0"/>
<feBlend mode="normal" in2="BackgroundImageFix" result="effect1_dropShadow_9768_180474"/>
<feBlend mode="normal" in="SourceGraphic" in2="effect1_dropShadow_9768_180474" result="shape"/>
</filter>
<linearGradient id="paint0_linear_9768_180474" x1="0.86377" y1="0" x2="0.86377" y2="42" gradientUnits="userSpaceOnUse">
<stop stop-color="#1599D8"/>
<stop offset="1" stop-color="#0E85CB"/>
</linearGradient>
<linearGradient id="paint1_linear_9768_180474" x1="-103.943" y1="20.4731" x2="133.46" y2="20.4731" gradientUnits="userSpaceOnUse">
<stop stop-color="#FFE500"/>
<stop offset="0.16" stop-color="#FEC831"/>
<stop offset="1" stop-color="#FFF900"/>
</linearGradient>
<clipPath id="clip0_9768_180474">
<rect width="148.367" height="42" fill="white" transform="translate(0.86377)"/>
</clipPath>
</defs>
</svg>
