<svg width="145" height="42" viewBox="0 0 145 42" fill="none" xmlns="http://www.w3.org/2000/svg">
<g clip-path="url(#clip0_9798_178997)">
<path d="M3.37172 0H141.191C143.053 0 144.563 1.075 144.563 2.4V39.6C144.563 40.925 143.053 42 141.191 42H3.37172C1.50969 42 0 40.925 0 39.6V2.4C0 1.075 1.50969 0 3.37172 0Z" fill="url(#paint0_linear_9798_178997)"/>
<path d="M24.9699 16.2H27.2379V26H24.9699V16.2ZM20.5179 26H18.2499V16.2H20.5179V26ZM25.1379 21.982H20.3499V20.064H25.1379V21.982ZM34.0225 26V24.53L33.8825 24.208V21.576C33.8825 21.1093 33.7379 20.7453 33.4485 20.484C33.1685 20.2227 32.7345 20.092 32.1465 20.092C31.7452 20.092 31.3485 20.1573 30.9565 20.288C30.5739 20.4093 30.2472 20.5773 29.9765 20.792L29.1925 19.266C29.6032 18.9767 30.0979 18.7527 30.6765 18.594C31.2552 18.4353 31.8432 18.356 32.4405 18.356C33.5885 18.356 34.4799 18.6267 35.1145 19.168C35.7492 19.7093 36.0665 20.554 36.0665 21.702V26H34.0225ZM31.7265 26.112C31.1385 26.112 30.6345 26.014 30.2145 25.818C29.7945 25.6127 29.4725 25.3373 29.2485 24.992C29.0245 24.6467 28.9125 24.2593 28.9125 23.83C28.9125 23.382 29.0199 22.99 29.2345 22.654C29.4585 22.318 29.8085 22.0567 30.2845 21.87C30.7605 21.674 31.3812 21.576 32.1465 21.576H34.1485V22.85H32.3845C31.8712 22.85 31.5165 22.934 31.3205 23.102C31.1339 23.27 31.0405 23.48 31.0405 23.732C31.0405 24.012 31.1479 24.236 31.3625 24.404C31.5865 24.5627 31.8899 24.642 32.2725 24.642C32.6365 24.642 32.9632 24.558 33.2525 24.39C33.5419 24.2127 33.7519 23.956 33.8825 23.62L34.2185 24.628C34.0599 25.1133 33.7705 25.482 33.3505 25.734C32.9305 25.986 32.3892 26.112 31.7265 26.112ZM32.4965 28.94C32.2259 28.94 31.9972 28.856 31.8105 28.688C31.6239 28.52 31.5305 28.2913 31.5305 28.002C31.5305 27.7127 31.6239 27.4747 31.8105 27.288C31.9972 27.1107 32.2259 27.022 32.4965 27.022C32.7672 27.022 32.9959 27.1107 33.1825 27.288C33.3692 27.4747 33.4625 27.7127 33.4625 28.002C33.4625 28.2913 33.3692 28.52 33.1825 28.688C32.9959 28.856 32.7672 28.94 32.4965 28.94ZM42.6212 18.356C43.2185 18.356 43.7505 18.4773 44.2172 18.72C44.6932 18.9533 45.0665 19.3173 45.3372 19.812C45.6078 20.2973 45.7432 20.9227 45.7432 21.688V26H43.5592V22.024C43.5592 21.4173 43.4238 20.9693 43.1532 20.68C42.8918 20.3907 42.5185 20.246 42.0332 20.246C41.6878 20.246 41.3752 20.3207 41.0952 20.47C40.8245 20.61 40.6098 20.8293 40.4512 21.128C40.3018 21.4267 40.2272 21.8093 40.2272 22.276V26H38.0432V18.468H40.1292V20.554L39.7372 19.924C40.0078 19.42 40.3952 19.0327 40.8992 18.762C41.4032 18.4913 41.9772 18.356 42.6212 18.356ZM51.3195 28.828C50.6102 28.828 49.9242 28.7393 49.2615 28.562C48.6082 28.394 48.0622 28.1373 47.6235 27.792L48.4915 26.224C48.8089 26.4853 49.2102 26.6907 49.6955 26.84C50.1902 26.9987 50.6755 27.078 51.1515 27.078C51.9262 27.078 52.4862 26.9053 52.8315 26.56C53.1862 26.2147 53.3635 25.7013 53.3635 25.02V23.886L53.5035 21.996L53.4755 20.092V18.468H55.5475V24.74C55.5475 26.14 55.1835 27.1713 54.4555 27.834C53.7275 28.4967 52.6822 28.828 51.3195 28.828ZM50.9835 25.636C50.2835 25.636 49.6489 25.4867 49.0795 25.188C48.5195 24.88 48.0669 24.4553 47.7215 23.914C47.3855 23.3633 47.2175 22.724 47.2175 21.996C47.2175 21.2587 47.3855 20.6193 47.7215 20.078C48.0669 19.5273 48.5195 19.1027 49.0795 18.804C49.6489 18.5053 50.2835 18.356 50.9835 18.356C51.6182 18.356 52.1782 18.4867 52.6635 18.748C53.1489 19 53.5269 19.3967 53.7975 19.938C54.0682 20.47 54.2035 21.156 54.2035 21.996C54.2035 22.8267 54.0682 23.5127 53.7975 24.054C53.5269 24.586 53.1489 24.9827 52.6635 25.244C52.1782 25.5053 51.6182 25.636 50.9835 25.636ZM51.4175 23.844C51.8002 23.844 52.1409 23.7693 52.4395 23.62C52.7382 23.4613 52.9715 23.242 53.1395 22.962C53.3075 22.682 53.3915 22.36 53.3915 21.996C53.3915 21.6227 53.3075 21.3007 53.1395 21.03C52.9715 20.75 52.7382 20.5353 52.4395 20.386C52.1409 20.2273 51.8002 20.148 51.4175 20.148C51.0349 20.148 50.6942 20.2273 50.3955 20.386C50.0969 20.5353 49.8589 20.75 49.6815 21.03C49.5135 21.3007 49.4295 21.6227 49.4295 21.996C49.4295 22.36 49.5135 22.682 49.6815 22.962C49.8589 23.242 50.0969 23.4613 50.3955 23.62C50.6942 23.7693 51.0349 23.844 51.4175 23.844ZM61.6991 26V16.2H65.9411C66.8184 16.2 67.5744 16.3447 68.2091 16.634C68.8438 16.914 69.3338 17.32 69.6791 17.852C70.0244 18.384 70.1971 19.0187 70.1971 19.756C70.1971 20.484 70.0244 21.114 69.6791 21.646C69.3338 22.178 68.8438 22.5887 68.2091 22.878C67.5744 23.158 66.8184 23.298 65.9411 23.298H62.9591L63.9671 22.276V26H61.6991ZM63.9671 22.528L62.9591 21.45H65.8151C66.5151 21.45 67.0378 21.3007 67.3831 21.002C67.7284 20.7033 67.9011 20.288 67.9011 19.756C67.9011 19.2147 67.7284 18.7947 67.3831 18.496C67.0378 18.1973 66.5151 18.048 65.8151 18.048H62.9591L63.9671 16.97V22.528ZM71.799 26V15.612H73.983V26H71.799ZM80.63 26V24.53L80.49 24.208V21.576C80.49 21.1093 80.3453 20.7453 80.056 20.484C79.776 20.2227 79.342 20.092 78.754 20.092C78.3526 20.092 77.956 20.1573 77.564 20.288C77.1813 20.4093 76.8546 20.5773 76.584 20.792L75.8 19.266C76.2106 18.9767 76.7053 18.7527 77.284 18.594C77.8626 18.4353 78.4506 18.356 79.048 18.356C80.196 18.356 81.0873 18.6267 81.722 19.168C82.3566 19.7093 82.674 20.554 82.674 21.702V26H80.63ZM78.334 26.112C77.746 26.112 77.242 26.014 76.822 25.818C76.402 25.6127 76.08 25.3373 75.856 24.992C75.632 24.6467 75.52 24.2593 75.52 23.83C75.52 23.382 75.6273 22.99 75.842 22.654C76.066 22.318 76.416 22.0567 76.892 21.87C77.368 21.674 77.9886 21.576 78.754 21.576H80.756V22.85H78.992C78.4786 22.85 78.124 22.934 77.928 23.102C77.7413 23.27 77.648 23.48 77.648 23.732C77.648 24.012 77.7553 24.236 77.97 24.404C78.194 24.5627 78.4973 24.642 78.88 24.642C79.244 24.642 79.5706 24.558 79.86 24.39C80.1493 24.2127 80.3593 23.956 80.49 23.62L80.826 24.628C80.6673 25.1133 80.378 25.482 79.958 25.734C79.538 25.986 78.9966 26.112 78.334 26.112ZM87.7306 26.112C86.8439 26.112 86.1532 25.888 85.6586 25.44C85.1639 24.9827 84.9166 24.306 84.9166 23.41V16.802H87.1006V23.382C87.1006 23.6993 87.1846 23.9467 87.3526 24.124C87.5206 24.292 87.7492 24.376 88.0386 24.376C88.3839 24.376 88.6779 24.2827 88.9206 24.096L89.5086 25.636C89.2846 25.7947 89.0139 25.916 88.6966 26C88.3886 26.0747 88.0666 26.112 87.7306 26.112ZM83.7546 20.316V18.636H88.9766V20.316H83.7546ZM90.7346 26V18.468H92.9186V26H90.7346ZM91.8266 17.418C91.4252 17.418 91.0986 17.3013 90.8466 17.068C90.5946 16.8347 90.4686 16.5453 90.4686 16.2C90.4686 15.8547 90.5946 15.5653 90.8466 15.332C91.0986 15.0987 91.4252 14.982 91.8266 14.982C92.2279 14.982 92.5546 15.094 92.8066 15.318C93.0586 15.5327 93.1846 15.8127 93.1846 16.158C93.1846 16.522 93.0586 16.8253 92.8066 17.068C92.5639 17.3013 92.2372 17.418 91.8266 17.418ZM99.5235 18.356C100.121 18.356 100.653 18.4773 101.12 18.72C101.596 18.9533 101.969 19.3173 102.24 19.812C102.51 20.2973 102.646 20.9227 102.646 21.688V26H100.462V22.024C100.462 21.4173 100.326 20.9693 100.056 20.68C99.7942 20.3907 99.4208 20.246 98.9355 20.246C98.5902 20.246 98.2775 20.3207 97.9975 20.47C97.7268 20.61 97.5122 20.8293 97.3535 21.128C97.2042 21.4267 97.1295 21.8093 97.1295 22.276V26H94.9455V18.468H97.0315V20.554L96.6395 19.924C96.9102 19.42 97.2975 19.0327 97.8015 18.762C98.3055 18.4913 98.8795 18.356 99.5235 18.356ZM107.803 26.112C107.178 26.112 106.618 25.9907 106.123 25.748C105.638 25.5053 105.26 25.1367 104.989 24.642C104.719 24.138 104.583 23.4987 104.583 22.724V18.468H106.767V22.402C106.767 23.0273 106.898 23.4893 107.159 23.788C107.43 24.0773 107.808 24.222 108.293 24.222C108.629 24.222 108.928 24.152 109.189 24.012C109.451 23.8627 109.656 23.6387 109.805 23.34C109.955 23.032 110.029 22.6493 110.029 22.192V18.468H112.213V26H110.141V23.928L110.519 24.53C110.267 25.0527 109.894 25.4493 109.399 25.72C108.914 25.9813 108.382 26.112 107.803 26.112ZM123.883 18.356C124.48 18.356 125.007 18.4773 125.465 18.72C125.931 18.9533 126.295 19.3173 126.557 19.812C126.827 20.2973 126.963 20.9227 126.963 21.688V26H124.779V22.024C124.779 21.4173 124.653 20.9693 124.401 20.68C124.149 20.3907 123.794 20.246 123.337 20.246C123.019 20.246 122.735 20.3207 122.483 20.47C122.231 20.61 122.035 20.8247 121.895 21.114C121.755 21.4033 121.685 21.772 121.685 22.22V26H119.501V22.024C119.501 21.4173 119.375 20.9693 119.123 20.68C118.88 20.3907 118.53 20.246 118.073 20.246C117.755 20.246 117.471 20.3207 117.219 20.47C116.967 20.61 116.771 20.8247 116.631 21.114C116.491 21.4033 116.421 21.772 116.421 22.22V26H114.237V18.468H116.323V20.526L115.931 19.924C116.192 19.4107 116.561 19.0233 117.037 18.762C117.522 18.4913 118.073 18.356 118.689 18.356C119.379 18.356 119.981 18.5333 120.495 18.888C121.017 19.2333 121.363 19.7653 121.531 20.484L120.761 20.274C121.013 19.686 121.414 19.2193 121.965 18.874C122.525 18.5287 123.164 18.356 123.883 18.356Z" fill="url(#paint1_linear_9798_178997)"/>
</g>
<defs>
<linearGradient id="paint0_linear_9798_178997" x1="0" y1="0" x2="0" y2="42" gradientUnits="userSpaceOnUse">
<stop stop-color="#414141"/>
<stop offset="1" stop-color="#0D0D0D"/>
</linearGradient>
<linearGradient id="paint1_linear_9798_178997" x1="-2.80076" y1="29.0313" x2="-2.80076" y2="11.9698" gradientUnits="userSpaceOnUse">
<stop stop-color="#CEA156"/>
<stop offset="0.1443" stop-color="#EFCD7A"/>
<stop offset="0.199" stop-color="#F8F1C8"/>
<stop offset="0.2136" stop-color="#F7EFC3"/>
<stop offset="0.2304" stop-color="#F4E7B5"/>
<stop offset="0.2485" stop-color="#EFDC9E"/>
<stop offset="0.2672" stop-color="#E9CB7E"/>
<stop offset="0.2836" stop-color="#E2BA5B"/>
<stop offset="0.4378" stop-color="#A46E20"/>
<stop offset="0.6617" stop-color="#E8C270"/>
<stop offset="0.7761" stop-color="#FBECC9"/>
<stop offset="0.9005" stop-color="#D0A14C"/>
<stop offset="1" stop-color="#D9B674"/>
</linearGradient>
<clipPath id="clip0_9798_178997">
<rect width="144.563" height="42" fill="white"/>
</clipPath>
</defs>
</svg>
