<svg width="62" height="43" viewBox="0 0 62 43" fill="none" xmlns="http://www.w3.org/2000/svg">
<rect x="2" y="1" width="57" height="40" rx="17.1111" fill="url(#paint0_linear_11166_41942)" fill-opacity="0.5"/>
<g clip-path="url(#clip0_11166_41942)">
<path d="M19.5514 34.1055L17.7434 31.6415L15.9434 34.1055H15.2634L17.3914 31.2255L15.3994 28.5055H16.0794L17.7674 30.7935L19.4474 28.5055H20.0874L18.1034 31.2095L20.2394 34.1055H19.5514ZM24.7505 29.8975V34.1055H24.2065V33.3375C24.0572 33.5935 23.8518 33.7935 23.5905 33.9375C23.3292 34.0761 23.0305 34.1455 22.6945 34.1455C22.1452 34.1455 21.7105 33.9935 21.3905 33.6895C21.0758 33.3801 20.9185 32.9295 20.9185 32.3375V29.8975H21.4865V32.2815C21.4865 32.7241 21.5958 33.0601 21.8145 33.2895C22.0332 33.5188 22.3452 33.6335 22.7505 33.6335C23.1932 33.6335 23.5425 33.5001 23.7985 33.2335C24.0545 32.9615 24.1825 32.5855 24.1825 32.1055V29.8975H24.7505Z" fill="#222222"/>
<g clip-path="url(#clip1_11166_41942)">
<path d="M16.288 25.224C15.5093 25.224 14.7307 25.128 13.952 24.936C13.184 24.744 12.512 24.472 11.936 24.12L13.088 21.736C13.536 22.0347 14.032 22.264 14.576 22.424C15.1307 22.584 15.6693 22.664 16.192 22.664C16.736 22.664 17.168 22.5627 17.488 22.36C17.808 22.1573 17.968 21.8693 17.968 21.496C17.968 21.1653 17.8347 20.904 17.568 20.712C17.3013 20.5093 16.864 20.408 16.256 20.408H14.928V18.408L17.936 15.16L18.24 16.248H12.512V13.8H20.608V15.784L17.6 19.032L16.048 18.152H16.912C18.3093 18.152 19.3653 18.4667 20.08 19.096C20.8053 19.7147 21.168 20.5147 21.168 21.496C21.168 22.136 20.992 22.7387 20.64 23.304C20.2987 23.8693 19.7707 24.3333 19.056 24.696C18.3413 25.048 17.4187 25.224 16.288 25.224ZM27.3686 25.224C26.3233 25.224 25.4113 25.016 24.6326 24.6C23.8646 24.184 23.262 23.5653 22.8246 22.744C22.398 21.9227 22.1846 20.9093 22.1846 19.704C22.1846 18.4027 22.4353 17.2987 22.9366 16.392C23.4486 15.4747 24.1473 14.776 25.0326 14.296C25.9286 13.816 26.9633 13.576 28.1366 13.576C28.766 13.576 29.3686 13.6507 29.9446 13.8C30.5313 13.9387 31.0273 14.136 31.4326 14.392L30.2806 16.664C29.9606 16.44 29.6246 16.2907 29.2726 16.216C28.9313 16.1307 28.5793 16.088 28.2166 16.088C27.3526 16.088 26.6593 16.3493 26.1366 16.872C25.6246 17.3947 25.3686 18.1573 25.3686 19.16C25.3686 19.3413 25.3686 19.5333 25.3686 19.736C25.3793 19.928 25.4006 20.1253 25.4326 20.328L24.6326 19.672C24.846 19.2773 25.102 18.9467 25.4006 18.68C25.71 18.4133 26.0726 18.2107 26.4886 18.072C26.9153 17.9333 27.39 17.864 27.9126 17.864C28.6166 17.864 29.2566 18.0133 29.8326 18.312C30.4193 18.6 30.8886 19.0107 31.2406 19.544C31.5926 20.0667 31.7686 20.6853 31.7686 21.4C31.7686 22.1787 31.5713 22.856 31.1766 23.432C30.782 23.9973 30.254 24.44 29.5926 24.76C28.9313 25.0693 28.19 25.224 27.3686 25.224ZM27.1766 22.968C27.4753 22.968 27.7366 22.9093 27.9606 22.792C28.1953 22.6747 28.3766 22.5093 28.5046 22.296C28.6326 22.0827 28.6966 21.832 28.6966 21.544C28.6966 21.1173 28.5526 20.776 28.2646 20.52C27.9873 20.264 27.6193 20.136 27.1606 20.136C26.8513 20.136 26.5793 20.1947 26.3446 20.312C26.1206 20.4293 25.9393 20.5947 25.8006 20.808C25.6726 21.0213 25.6086 21.272 25.6086 21.56C25.6086 21.8373 25.6726 22.0827 25.8006 22.296C25.9286 22.4987 26.11 22.664 26.3446 22.792C26.5793 22.9093 26.8566 22.968 27.1766 22.968Z" fill="#007AD4"/>
<circle cx="45" cy="18" r="9" fill="url(#paint1_linear_11166_41942)"/>
<circle cx="45" cy="18" r="8.125" stroke="#44A5D8" stroke-opacity="0.5" stroke-width="1.75"/>
<path d="M45.9015 21.5399C46.168 21.7223 46.4957 21.7924 46.8135 21.7349C47.7725 21.5865 47.2585 19.9748 47.079 19.3464C46.8693 18.6105 46.5065 17.7413 46.7325 16.9743C46.8166 16.7689 46.9598 16.5931 47.1438 16.469C47.3279 16.3449 47.5446 16.2782 47.7666 16.2773C48.8905 16.2773 49.2095 17.8333 49.2095 18.695C49.2095 19.6613 48.9495 21.698 47.3357 22.0278C46.3351 22.2326 45.9459 21.5791 45.9009 21.5399" fill="white"/>
<path d="M48.4793 21.7701C48.4793 21.7701 47.7127 22.541 46.8337 22.4152C44.4021 22.0689 45.6916 19.5702 45.9386 18.3026C46.2335 16.8127 46.5193 14.9983 45.9386 13.5407C45.7468 13.0886 45.3884 12.7276 44.9377 12.5325C44.487 12.3374 43.9786 12.323 43.5176 12.4924C42.2072 12.976 41.8208 14.9983 41.692 16.2433C41.6502 16.6285 41.6279 17.0156 41.625 17.403C41.625 19.3216 42.5117 23.625 45.5954 23.625C47.4983 23.625 48.2812 21.8988 48.4789 21.7701" fill="white"/>
</g>
</g>
<rect x="2" y="2.11133" width="58" height="38.8889" rx="15.8889" stroke="#FFEA97" stroke-width="2.44444" stroke-linecap="round" stroke-linejoin="round"/>
<defs>
<linearGradient id="paint0_linear_11166_41942" x1="-501.792" y1="265.182" x2="194.127" y2="265.178" gradientUnits="userSpaceOnUse">
<stop stop-color="#B07515"/>
<stop offset="0.09" stop-color="#E1BA60"/>
<stop offset="0.14" stop-color="#F5D77F"/>
<stop offset="0.26" stop-color="#FFFFD7"/>
<stop offset="0.324642" stop-color="#F5D77F"/>
<stop offset="0.512241" stop-color="#E2BB61"/>
<stop offset="0.597311" stop-color="#E1BA60"/>
<stop offset="0.677099" stop-color="#F5D77F"/>
<stop offset="0.752643" stop-color="#FFFFD7"/>
<stop offset="0.854989" stop-color="#F5D77F"/>
<stop offset="1" stop-color="#B07515"/>
</linearGradient>
<linearGradient id="paint1_linear_11166_41942" x1="44.8795" y1="6.75" x2="45" y2="27" gradientUnits="userSpaceOnUse">
<stop stop-color="#0C64F2"/>
<stop offset="1" stop-color="#44A5D8"/>
</linearGradient>
<clipPath id="clip0_11166_41942">
<rect width="44" height="30.7023" fill="white" transform="translate(13.1274 5.40234)"/>
</clipPath>
<clipPath id="clip1_11166_41942">
<rect width="44" height="24" fill="white" transform="translate(13.1274 5.40234)"/>
</clipPath>
</defs>
</svg>
