<svg width="62" height="43" viewBox="0 0 62 43" fill="none" xmlns="http://www.w3.org/2000/svg">
<rect x="2" y="1" width="57" height="40" rx="17.1111" fill="url(#paint0_linear_13964_10821)" fill-opacity="0.5"/>
<g clip-path="url(#clip0_13964_10821)">
<path d="M19.5514 34.1055L17.7434 31.6415L15.9434 34.1055H15.2634L17.3914 31.2255L15.3994 28.5055H16.0794L17.7674 30.7935L19.4474 28.5055H20.0874L18.1034 31.2095L20.2394 34.1055H19.5514ZM24.7505 29.8975V34.1055H24.2065V33.3375C24.0572 33.5935 23.8518 33.7935 23.5905 33.9375C23.3292 34.0761 23.0305 34.1455 22.6945 34.1455C22.1452 34.1455 21.7105 33.9935 21.3905 33.6895C21.0758 33.3801 20.9185 32.9295 20.9185 32.3375V29.8975H21.4865V32.2815C21.4865 32.7241 21.5958 33.0601 21.8145 33.2895C22.0332 33.5188 22.3452 33.6335 22.7505 33.6335C23.1932 33.6335 23.5425 33.5001 23.7985 33.2335C24.0545 32.9615 24.1825 32.5855 24.1825 32.1055V29.8975H24.7505Z" fill="#222222"/>
<g clip-path="url(#clip1_13964_10821)">
<path d="M16.464 25.224C15.696 25.224 14.9227 25.128 14.144 24.936C13.3653 24.744 12.6933 24.472 12.128 24.12L13.264 21.736C13.7227 22.0347 14.2187 22.264 14.752 22.424C15.296 22.584 15.8347 22.664 16.368 22.664C16.9013 22.664 17.3333 22.5627 17.664 22.36C17.9947 22.1467 18.16 21.8533 18.16 21.48C18.16 21.256 18.096 21.0587 17.968 20.888C17.84 20.7067 17.6213 20.5733 17.312 20.488C17.0027 20.392 16.56 20.344 15.984 20.344H12.944L13.504 13.8H20.64V16.248H14.624L16.24 14.856L15.872 19.272L14.256 17.88H16.736C17.8453 17.88 18.736 18.04 19.408 18.36C20.08 18.6693 20.5707 19.0907 20.88 19.624C21.1893 20.1467 21.344 20.7387 21.344 21.4C21.344 22.0613 21.168 22.6853 20.816 23.272C20.4747 23.848 19.9467 24.3173 19.232 24.68C18.5173 25.0427 17.5947 25.224 16.464 25.224ZM22.1508 22.856V20.792L27.1748 13.8H30.4548L25.5748 20.792L24.0707 20.344H32.8228V22.856H22.1508ZM28.0708 25V22.856L28.1668 20.344V18.44H31.1588V25H28.0708Z" fill="#007AD4"/>
<circle cx="45" cy="18" r="9" fill="url(#paint1_linear_13964_10821)"/>
<circle cx="45" cy="18" r="8.125" stroke="#44A5D8" stroke-opacity="0.5" stroke-width="1.75"/>
<path d="M45.9015 21.5399C46.168 21.7223 46.4957 21.7924 46.8135 21.7349C47.7725 21.5865 47.2585 19.9748 47.079 19.3464C46.8693 18.6105 46.5065 17.7413 46.7325 16.9743C46.8166 16.7689 46.9598 16.5931 47.1438 16.469C47.3279 16.3449 47.5446 16.2782 47.7666 16.2773C48.8905 16.2773 49.2095 17.8333 49.2095 18.695C49.2095 19.6613 48.9495 21.698 47.3357 22.0278C46.3351 22.2326 45.9459 21.5791 45.9009 21.5399" fill="white"/>
<path d="M48.4793 21.7701C48.4793 21.7701 47.7128 22.541 46.8337 22.4152C44.4021 22.0689 45.6916 19.5702 45.9386 18.3026C46.2335 16.8127 46.5193 14.9983 45.9386 13.5407C45.7468 13.0886 45.3884 12.7276 44.9377 12.5325C44.487 12.3374 43.9786 12.323 43.5176 12.4924C42.2072 12.976 41.8208 14.9983 41.692 16.2433C41.6502 16.6285 41.6279 17.0156 41.625 17.403C41.625 19.3216 42.5117 23.625 45.5954 23.625C47.4983 23.625 48.2812 21.8988 48.4789 21.7701" fill="white"/>
</g>
</g>
<rect x="2" y="2.11133" width="58" height="38.8889" rx="15.8889" stroke="#FFEA97" stroke-width="2.44444" stroke-linecap="round" stroke-linejoin="round"/>
<defs>
<linearGradient id="paint0_linear_13964_10821" x1="-501.792" y1="265.182" x2="194.127" y2="265.178" gradientUnits="userSpaceOnUse">
<stop stop-color="#B07515"/>
<stop offset="0.09" stop-color="#E1BA60"/>
<stop offset="0.14" stop-color="#F5D77F"/>
<stop offset="0.26" stop-color="#FFFFD7"/>
<stop offset="0.324642" stop-color="#F5D77F"/>
<stop offset="0.512241" stop-color="#E2BB61"/>
<stop offset="0.597311" stop-color="#E1BA60"/>
<stop offset="0.677099" stop-color="#F5D77F"/>
<stop offset="0.752643" stop-color="#FFFFD7"/>
<stop offset="0.854989" stop-color="#F5D77F"/>
<stop offset="1" stop-color="#B07515"/>
</linearGradient>
<linearGradient id="paint1_linear_13964_10821" x1="44.8795" y1="6.75" x2="45" y2="27" gradientUnits="userSpaceOnUse">
<stop stop-color="#0C64F2"/>
<stop offset="1" stop-color="#44A5D8"/>
</linearGradient>
<clipPath id="clip0_13964_10821">
<rect width="44" height="30.7023" fill="white" transform="translate(13.1274 5.40234)"/>
</clipPath>
<clipPath id="clip1_13964_10821">
<rect width="44" height="24" fill="white" transform="translate(13.1274 5.40234)"/>
</clipPath>
</defs>
</svg>
