<svg width="61" height="43" viewBox="0 0 61 43" fill="none" xmlns="http://www.w3.org/2000/svg">
<rect x="2" y="1" width="57" height="40" rx="17.1111" fill="url(#paint0_linear_11166_42046)" fill-opacity="0.5"/>
<g clip-path="url(#clip0_11166_42046)">
<path d="M20.2394 34.1055L18.1034 31.2095L20.0874 28.5055H19.4474L17.7674 30.7935L16.0794 28.5055H15.3994L17.3914 31.2255L15.2634 34.1055H15.9434L17.7434 31.6415L19.5514 34.1055H20.2394ZM24.1825 29.8975V32.1055C24.1825 33.0655 23.6305 33.6335 22.7505 33.6335C21.9505 33.6335 21.4865 33.1775 21.4865 32.2815V29.8975H20.9185V32.3375C20.9185 33.5455 21.6225 34.1455 22.6945 34.1455C23.3665 34.1455 23.9105 33.8495 24.2065 33.3375V34.1055H24.7505V29.8975H24.1825Z" fill="#222222"/>
<g clip-path="url(#clip1_11166_42046)">
<path d="M20.6154 24.1283C19.6554 24.1283 18.8021 23.899 18.0554 23.4403C17.3194 22.9816 16.7381 22.3203 16.3114 21.4563C15.8848 20.5923 15.6714 19.5416 15.6714 18.3043C15.6714 17.067 15.8848 16.0163 16.3114 15.1523C16.7381 14.2883 17.3194 13.627 18.0554 13.1683C18.8021 12.7096 19.6554 12.4803 20.6154 12.4803C21.5648 12.4803 22.4074 12.7096 23.1434 13.1683C23.8901 13.627 24.4768 14.2883 24.9034 15.1523C25.3301 16.0163 25.5434 17.067 25.5434 18.3043C25.5434 19.5416 25.3301 20.5923 24.9034 21.4563C24.4768 22.3203 23.8901 22.9816 23.1434 23.4403C22.4074 23.899 21.5648 24.1283 20.6154 24.1283ZM20.6154 21.5363C20.9568 21.5363 21.2554 21.4296 21.5114 21.2163C21.7781 21.003 21.9861 20.6616 22.1354 20.1923C22.2848 19.7123 22.3594 19.083 22.3594 18.3043C22.3594 17.515 22.2848 16.8856 22.1354 16.4163C21.9861 15.947 21.7781 15.6056 21.5114 15.3923C21.2554 15.179 20.9568 15.0723 20.6154 15.0723C20.2741 15.0723 19.9701 15.179 19.7034 15.3923C19.4474 15.6056 19.2394 15.947 19.0794 16.4163C18.9301 16.8856 18.8554 17.515 18.8554 18.3043C18.8554 19.083 18.9301 19.7123 19.0794 20.1923C19.2394 20.6616 19.4474 21.003 19.7034 21.2163C19.9701 21.4296 20.2741 21.5363 20.6154 21.5363Z" fill="#007AD4"/>
<circle cx="42" cy="18" r="9" fill="url(#paint1_linear_11166_42046)"/>
<circle cx="42" cy="18" r="8.125" stroke="#44A5D8" stroke-opacity="0.5" stroke-width="1.75"/>
<path d="M42.9015 21.5399C43.168 21.7223 43.4957 21.7924 43.8135 21.7349C44.7725 21.5865 44.2585 19.9748 44.079 19.3464C43.8693 18.6105 43.5065 17.7413 43.7325 16.9743C43.8166 16.7689 43.9598 16.5931 44.1438 16.469C44.3279 16.3449 44.5446 16.2782 44.7666 16.2773C45.8905 16.2773 46.2095 17.8333 46.2095 18.695C46.2095 19.6613 45.9495 21.698 44.3357 22.0278C43.3351 22.2326 42.9459 21.5791 42.9009 21.5399" fill="white"/>
<path d="M45.4793 21.7701C45.4793 21.7701 44.7128 22.541 43.8337 22.4152C41.4021 22.0689 42.6916 19.5702 42.9386 18.3026C43.2335 16.8127 43.5193 14.9983 42.9386 13.5407C42.7468 13.0886 42.3884 12.7276 41.9377 12.5325C41.487 12.3374 40.9786 12.323 40.5176 12.4924C39.2072 12.976 38.8208 14.9983 38.692 16.2433C38.6502 16.6285 38.6279 17.0156 38.625 17.403C38.625 19.3216 39.5117 23.625 42.5954 23.625C44.4983 23.625 45.2812 21.8988 45.4789 21.7701" fill="white"/>
</g>
</g>
<rect x="2" y="2.11133" width="57" height="38.8889" rx="15.8889" stroke="#FFEA97" stroke-width="2.44444" stroke-linecap="round" stroke-linejoin="round"/>
<defs>
<linearGradient id="paint0_linear_11166_42046" x1="-501.792" y1="265.182" x2="194.127" y2="265.178" gradientUnits="userSpaceOnUse">
<stop stop-color="#B07515"/>
<stop offset="0.09" stop-color="#E1BA60"/>
<stop offset="0.14" stop-color="#F5D77F"/>
<stop offset="0.26" stop-color="#FFFFD7"/>
<stop offset="0.324642" stop-color="#F5D77F"/>
<stop offset="0.512241" stop-color="#E2BB61"/>
<stop offset="0.597311" stop-color="#E1BA60"/>
<stop offset="0.677099" stop-color="#F5D77F"/>
<stop offset="0.752643" stop-color="#FFFFD7"/>
<stop offset="0.854989" stop-color="#F5D77F"/>
<stop offset="1" stop-color="#B07515"/>
</linearGradient>
<linearGradient id="paint1_linear_11166_42046" x1="41.8795" y1="6.75" x2="42" y2="27" gradientUnits="userSpaceOnUse">
<stop stop-color="#0C64F2"/>
<stop offset="1" stop-color="#44A5D8"/>
</linearGradient>
<clipPath id="clip0_11166_42046">
<rect width="37" height="30.7023" fill="white" transform="translate(15.1274 5.40234)"/>
</clipPath>
<clipPath id="clip1_11166_42046">
<rect width="37" height="24" fill="white" transform="translate(15.1274 5.40234)"/>
</clipPath>
</defs>
</svg>
