<svg width="62" height="43" viewBox="0 0 62 43" fill="none" xmlns="http://www.w3.org/2000/svg">
<rect x="2" y="1" width="57" height="40" rx="17.1111" fill="url(#paint0_linear_13964_10808)" fill-opacity="0.5"/>
<g clip-path="url(#clip0_13964_10808)">
<path d="M19.5514 34.1055L17.7434 31.6415L15.9434 34.1055H15.2634L17.3914 31.2255L15.3994 28.5055H16.0794L17.7674 30.7935L19.4474 28.5055H20.0874L18.1034 31.2095L20.2394 34.1055H19.5514ZM24.7505 29.8975V34.1055H24.2065V33.3375C24.0572 33.5935 23.8518 33.7935 23.5905 33.9375C23.3292 34.0761 23.0305 34.1455 22.6945 34.1455C22.1452 34.1455 21.7105 33.9935 21.3905 33.6895C21.0758 33.3801 20.9185 32.9295 20.9185 32.3375V29.8975H21.4865V32.2815C21.4865 32.7241 21.5958 33.0601 21.8145 33.2895C22.0332 33.5188 22.3452 33.6335 22.7505 33.6335C23.1932 33.6335 23.5425 33.5001 23.7985 33.2335C24.0545 32.9615 24.1825 32.5855 24.1825 32.1055V29.8975H24.7505Z" fill="#222222"/>
<g clip-path="url(#clip1_13964_10808)">
<path d="M14.176 25V14.936L15.536 16.248H12.096V13.8H17.344V25H14.176ZM23.8284 25.224C22.8577 25.224 22.0097 25.08 21.2844 24.792C20.559 24.504 19.9884 24.0987 19.5724 23.576C19.167 23.0427 18.9644 22.4187 18.9644 21.704C18.9644 21 19.167 20.4027 19.5724 19.912C19.9884 19.4107 20.559 19.032 21.2844 18.776C22.0204 18.5093 22.8684 18.376 23.8284 18.376C24.7884 18.376 25.631 18.5093 26.3564 18.776C27.0924 19.032 27.663 19.4107 28.0684 19.912C28.4844 20.4027 28.6924 21 28.6924 21.704C28.6924 22.4187 28.4897 23.0427 28.0844 23.576C27.679 24.0987 27.1084 24.504 26.3724 24.792C25.647 25.08 24.799 25.224 23.8284 25.224ZM23.8284 23C24.3404 23 24.7457 22.8773 25.0444 22.632C25.3537 22.3867 25.5084 22.0453 25.5084 21.608C25.5084 21.1813 25.3537 20.8453 25.0444 20.6C24.7457 20.344 24.3404 20.216 23.8284 20.216C23.3164 20.216 22.9057 20.344 22.5964 20.6C22.2977 20.8453 22.1484 21.1813 22.1484 21.608C22.1484 22.0453 22.2977 22.3867 22.5964 22.632C22.9057 22.8773 23.3164 23 23.8284 23ZM23.8284 19.944C22.9537 19.944 22.1804 19.8213 21.5084 19.576C20.847 19.3307 20.3244 18.9787 19.9404 18.52C19.5564 18.0507 19.3644 17.4907 19.3644 16.84C19.3644 16.168 19.551 15.592 19.9244 15.112C20.3084 14.632 20.8364 14.2587 21.5084 13.992C22.1804 13.7147 22.9537 13.576 23.8284 13.576C24.7137 13.576 25.487 13.7147 26.1484 13.992C26.8204 14.2587 27.343 14.632 27.7164 15.112C28.1004 15.592 28.2924 16.168 28.2924 16.84C28.2924 17.4907 28.1004 18.0507 27.7164 18.52C27.343 18.9787 26.8204 19.3307 26.1484 19.576C25.4764 19.8213 24.703 19.944 23.8284 19.944ZM23.8284 18.152C24.2337 18.152 24.559 18.0507 24.8044 17.848C25.0497 17.6347 25.1724 17.3467 25.1724 16.984C25.1724 16.6 25.0444 16.3067 24.7884 16.104C24.543 15.9013 24.223 15.8 23.8284 15.8C23.4337 15.8 23.1137 15.9013 22.8684 16.104C22.623 16.3067 22.5004 16.6 22.5004 16.984C22.5004 17.3467 22.623 17.6347 22.8684 17.848C23.1137 18.0507 23.4337 18.152 23.8284 18.152Z" fill="#007AD4"/>
<circle cx="45" cy="18" r="9" fill="url(#paint1_linear_13964_10808)"/>
<circle cx="45" cy="18" r="8.125" stroke="#44A5D8" stroke-opacity="0.5" stroke-width="1.75"/>
<path d="M45.9015 21.5399C46.168 21.7223 46.4957 21.7924 46.8135 21.7349C47.7725 21.5865 47.2585 19.9748 47.079 19.3464C46.8693 18.6105 46.5065 17.7413 46.7325 16.9743C46.8166 16.7689 46.9598 16.5931 47.1438 16.469C47.3279 16.3449 47.5446 16.2782 47.7666 16.2773C48.8905 16.2773 49.2095 17.8333 49.2095 18.695C49.2095 19.6613 48.9495 21.698 47.3357 22.0278C46.3351 22.2326 45.9459 21.5791 45.9009 21.5399" fill="white"/>
<path d="M48.4793 21.7701C48.4793 21.7701 47.7128 22.541 46.8337 22.4152C44.4021 22.0689 45.6916 19.5702 45.9386 18.3026C46.2335 16.8127 46.5193 14.9983 45.9386 13.5407C45.7468 13.0886 45.3884 12.7276 44.9377 12.5325C44.487 12.3374 43.9786 12.323 43.5176 12.4924C42.2072 12.976 41.8208 14.9983 41.692 16.2433C41.6502 16.6285 41.6279 17.0156 41.625 17.403C41.625 19.3216 42.5117 23.625 45.5954 23.625C47.4983 23.625 48.2812 21.8988 48.4789 21.7701" fill="white"/>
</g>
</g>
<rect x="2" y="2.11133" width="58" height="38.8889" rx="15.8889" stroke="#FFEA97" stroke-width="2.44444" stroke-linecap="round" stroke-linejoin="round"/>
<defs>
<linearGradient id="paint0_linear_13964_10808" x1="-501.792" y1="265.182" x2="194.127" y2="265.178" gradientUnits="userSpaceOnUse">
<stop stop-color="#B07515"/>
<stop offset="0.09" stop-color="#E1BA60"/>
<stop offset="0.14" stop-color="#F5D77F"/>
<stop offset="0.26" stop-color="#FFFFD7"/>
<stop offset="0.324642" stop-color="#F5D77F"/>
<stop offset="0.512241" stop-color="#E2BB61"/>
<stop offset="0.597311" stop-color="#E1BA60"/>
<stop offset="0.677099" stop-color="#F5D77F"/>
<stop offset="0.752643" stop-color="#FFFFD7"/>
<stop offset="0.854989" stop-color="#F5D77F"/>
<stop offset="1" stop-color="#B07515"/>
</linearGradient>
<linearGradient id="paint1_linear_13964_10808" x1="44.8795" y1="6.75" x2="45" y2="27" gradientUnits="userSpaceOnUse">
<stop stop-color="#0C64F2"/>
<stop offset="1" stop-color="#44A5D8"/>
</linearGradient>
<clipPath id="clip0_13964_10808">
<rect width="44" height="30.7023" fill="white" transform="translate(13.1274 5.40234)"/>
</clipPath>
<clipPath id="clip1_13964_10808">
<rect width="44" height="24" fill="white" transform="translate(13.1274 5.40234)"/>
</clipPath>
</defs>
</svg>
