<svg width="145" height="42" viewBox="0 0 145 42" fill="none" xmlns="http://www.w3.org/2000/svg">
<g clip-path="url(#clip0_9768_180595)">
<path d="M3.37172 0H141.191C143.053 0 144.563 1.075 144.563 2.4V39.6C144.563 40.925 143.053 42 141.191 42H3.37172C1.50969 42 0 40.925 0 39.6V2.4C0 1.075 1.50969 0 3.37172 0Z" fill="url(#paint0_linear_9768_180595)"/>
<path d="M40.1251 16.2H42.3931V26H40.1251V16.2ZM35.6731 26H33.4051V16.2H35.6731V26ZM40.2931 21.982H35.5051V20.064H40.2931V21.982ZM49.1777 26V24.53L49.0377 24.208V21.576C49.0377 21.1093 48.893 20.7453 48.6037 20.484C48.3237 20.2227 47.8897 20.092 47.3017 20.092C46.9004 20.092 46.5037 20.1573 46.1117 20.288C45.729 20.4093 45.4024 20.5773 45.1317 20.792L44.3477 19.266C44.7584 18.9767 45.253 18.7527 45.8317 18.594C46.4104 18.4353 46.9984 18.356 47.5957 18.356C48.7437 18.356 49.635 18.6267 50.2697 19.168C50.9044 19.7093 51.2217 20.554 51.2217 21.702V26H49.1777ZM46.8817 26.112C46.2937 26.112 45.7897 26.014 45.3697 25.818C44.9497 25.6127 44.6277 25.3373 44.4037 24.992C44.1797 24.6467 44.0677 24.2593 44.0677 23.83C44.0677 23.382 44.175 22.99 44.3897 22.654C44.6137 22.318 44.9637 22.0567 45.4397 21.87C45.9157 21.674 46.5364 21.576 47.3017 21.576H49.3037V22.85H47.5397C47.0264 22.85 46.6717 22.934 46.4757 23.102C46.289 23.27 46.1957 23.48 46.1957 23.732C46.1957 24.012 46.303 24.236 46.5177 24.404C46.7417 24.5627 47.045 24.642 47.4277 24.642C47.7917 24.642 48.1184 24.558 48.4077 24.39C48.697 24.2127 48.907 23.956 49.0377 23.62L49.3737 24.628C49.215 25.1133 48.9257 25.482 48.5057 25.734C48.0857 25.986 47.5444 26.112 46.8817 26.112ZM47.6517 28.94C47.381 28.94 47.1524 28.856 46.9657 28.688C46.779 28.52 46.6857 28.2913 46.6857 28.002C46.6857 27.7127 46.779 27.4747 46.9657 27.288C47.1524 27.1107 47.381 27.022 47.6517 27.022C47.9224 27.022 48.151 27.1107 48.3377 27.288C48.5244 27.4747 48.6177 27.7127 48.6177 28.002C48.6177 28.2913 48.5244 28.52 48.3377 28.688C48.151 28.856 47.9224 28.94 47.6517 28.94ZM57.7763 18.356C58.3737 18.356 58.9057 18.4773 59.3723 18.72C59.8483 18.9533 60.2217 19.3173 60.4923 19.812C60.763 20.2973 60.8983 20.9227 60.8983 21.688V26H58.7143V22.024C58.7143 21.4173 58.579 20.9693 58.3083 20.68C58.047 20.3907 57.6737 20.246 57.1883 20.246C56.843 20.246 56.5303 20.3207 56.2503 20.47C55.9797 20.61 55.765 20.8293 55.6063 21.128C55.457 21.4267 55.3823 21.8093 55.3823 22.276V26H53.1983V18.468H55.2843V20.554L54.8923 19.924C55.163 19.42 55.5503 19.0327 56.0543 18.762C56.5583 18.4913 57.1323 18.356 57.7763 18.356ZM66.4747 28.828C65.7654 28.828 65.0794 28.7393 64.4167 28.562C63.7634 28.394 63.2174 28.1373 62.7787 27.792L63.6467 26.224C63.964 26.4853 64.3654 26.6907 64.8507 26.84C65.3454 26.9987 65.8307 27.078 66.3067 27.078C67.0814 27.078 67.6414 26.9053 67.9867 26.56C68.3414 26.2147 68.5187 25.7013 68.5187 25.02V23.886L68.6587 21.996L68.6307 20.092V18.468H70.7027V24.74C70.7027 26.14 70.3387 27.1713 69.6107 27.834C68.8827 28.4967 67.8374 28.828 66.4747 28.828ZM66.1387 25.636C65.4387 25.636 64.804 25.4867 64.2347 25.188C63.6747 24.88 63.222 24.4553 62.8767 23.914C62.5407 23.3633 62.3727 22.724 62.3727 21.996C62.3727 21.2587 62.5407 20.6193 62.8767 20.078C63.222 19.5273 63.6747 19.1027 64.2347 18.804C64.804 18.5053 65.4387 18.356 66.1387 18.356C66.7734 18.356 67.3334 18.4867 67.8187 18.748C68.304 19 68.682 19.3967 68.9527 19.938C69.2234 20.47 69.3587 21.156 69.3587 21.996C69.3587 22.8267 69.2234 23.5127 68.9527 24.054C68.682 24.586 68.304 24.9827 67.8187 25.244C67.3334 25.5053 66.7734 25.636 66.1387 25.636ZM66.5727 23.844C66.9554 23.844 67.296 23.7693 67.5947 23.62C67.8934 23.4613 68.1267 23.242 68.2947 22.962C68.4627 22.682 68.5467 22.36 68.5467 21.996C68.5467 21.6227 68.4627 21.3007 68.2947 21.03C68.1267 20.75 67.8934 20.5353 67.5947 20.386C67.296 20.2273 66.9554 20.148 66.5727 20.148C66.19 20.148 65.8494 20.2273 65.5507 20.386C65.252 20.5353 65.014 20.75 64.8367 21.03C64.6687 21.3007 64.5847 21.6227 64.5847 21.996C64.5847 22.36 64.6687 22.682 64.8367 22.962C65.014 23.242 65.252 23.4613 65.5507 23.62C65.8494 23.7693 66.19 23.844 66.5727 23.844ZM78.8843 26V18.048H75.7483V16.2H84.2883V18.048H81.1523V26H78.8843ZM85.3546 26V18.468H87.5386V26H85.3546ZM86.4466 17.418C86.0453 17.418 85.7186 17.3013 85.4666 17.068C85.2146 16.8347 85.0886 16.5453 85.0886 16.2C85.0886 15.8547 85.2146 15.5653 85.4666 15.332C85.7186 15.0987 86.0453 14.982 86.4466 14.982C86.8479 14.982 87.1746 15.094 87.4266 15.318C87.6786 15.5327 87.8046 15.8127 87.8046 16.158C87.8046 16.522 87.6786 16.8253 87.4266 17.068C87.1839 17.3013 86.8573 17.418 86.4466 17.418ZM92.6455 26.112C91.7589 26.112 91.0682 25.888 90.5735 25.44C90.0789 24.9827 89.8315 24.306 89.8315 23.41V16.802H92.0155V23.382C92.0155 23.6993 92.0995 23.9467 92.2675 24.124C92.4355 24.292 92.6642 24.376 92.9535 24.376C93.2989 24.376 93.5929 24.2827 93.8355 24.096L94.4235 25.636C94.1995 25.7947 93.9289 25.916 93.6115 26C93.3035 26.0747 92.9815 26.112 92.6455 26.112ZM88.6695 20.316V18.636H93.8915V20.316H88.6695ZM100.27 26V24.53L100.13 24.208V21.576C100.13 21.1093 99.9848 20.7453 99.6955 20.484C99.4155 20.2227 98.9815 20.092 98.3935 20.092C97.9922 20.092 97.5955 20.1573 97.2035 20.288C96.8208 20.4093 96.4942 20.5773 96.2235 20.792L95.4395 19.266C95.8502 18.9767 96.3448 18.7527 96.9235 18.594C97.5022 18.4353 98.0902 18.356 98.6875 18.356C99.8355 18.356 100.727 18.6267 101.362 19.168C101.996 19.7093 102.314 20.554 102.314 21.702V26H100.27ZM97.9735 26.112C97.3855 26.112 96.8815 26.014 96.4615 25.818C96.0415 25.6127 95.7195 25.3373 95.4955 24.992C95.2715 24.6467 95.1595 24.2593 95.1595 23.83C95.1595 23.382 95.2668 22.99 95.4815 22.654C95.7055 22.318 96.0555 22.0567 96.5315 21.87C97.0075 21.674 97.6282 21.576 98.3935 21.576H100.396V22.85H98.6315C98.1182 22.85 97.7635 22.934 97.5675 23.102C97.3808 23.27 97.2875 23.48 97.2875 23.732C97.2875 24.012 97.3948 24.236 97.6095 24.404C97.8335 24.5627 98.1368 24.642 98.5195 24.642C98.8835 24.642 99.2102 24.558 99.4995 24.39C99.7888 24.2127 99.9988 23.956 100.13 23.62L100.466 24.628C100.307 25.1133 100.018 25.482 99.5975 25.734C99.1775 25.986 98.6362 26.112 97.9735 26.112ZM108.868 18.356C109.465 18.356 109.997 18.4773 110.464 18.72C110.94 18.9533 111.313 19.3173 111.584 19.812C111.855 20.2973 111.99 20.9227 111.99 21.688V26H109.806V22.024C109.806 21.4173 109.671 20.9693 109.4 20.68C109.139 20.3907 108.765 20.246 108.28 20.246C107.935 20.246 107.622 20.3207 107.342 20.47C107.071 20.61 106.857 20.8293 106.698 21.128C106.549 21.4267 106.474 21.8093 106.474 22.276V26H104.29V18.468H106.376V20.554L105.984 19.924C106.255 19.42 106.642 19.0327 107.146 18.762C107.65 18.4913 108.224 18.356 108.868 18.356Z" fill="#444444"/>
</g>
<defs>
<linearGradient id="paint0_linear_9768_180595" x1="0" y1="0" x2="0" y2="42" gradientUnits="userSpaceOnUse">
<stop stop-color="white"/>
<stop offset="0.183211" stop-color="#E5E4E2"/>
<stop offset="0.498" stop-color="#D6D5D3"/>
<stop offset="0.784555" stop-color="#C7C6C4"/>
<stop offset="1" stop-color="#F4F3F1"/>
</linearGradient>
<clipPath id="clip0_9768_180595">
<rect width="144.563" height="42" fill="white"/>
</clipPath>
</defs>
</svg>
