<?xml version="1.0" encoding="UTF-8"?>
<svg width="35px" height="37px" viewBox="0 0 35 37" version="1.1" xmlns="http://www.w3.org/2000/svg" xmlns:xlink="http://www.w3.org/1999/xlink">
    <title>Group 34</title>
    <defs>
        <linearGradient x1="50%" y1="29.2332201%" x2="50%" y2="260.478145%" id="linearGradient-1">
            <stop stop-color="#FFE500" offset="0%"></stop>
            <stop stop-color="#FEC831" offset="16%"></stop>
            <stop stop-color="#FFF900" offset="100%"></stop>
        </linearGradient>
        <linearGradient x1="33.2459107%" y1="38.4799787%" x2="141.940668%" y2="74.2087538%" id="linearGradient-2">
            <stop stop-color="#FFAE00" stop-opacity="0" offset="0%"></stop>
            <stop stop-color="#FFAE00" offset="100%"></stop>
        </linearGradient>
        <linearGradient x1="33.2459107%" y1="38.4799787%" x2="50%" y2="132.866666%" id="linearGradient-3">
            <stop stop-color="#FFAE00" stop-opacity="0" offset="0%"></stop>
            <stop stop-color="#FFAE00" offset="100%"></stop>
        </linearGradient>
        <linearGradient x1="86.9940781%" y1="76.353421%" x2="33.2459107%" y2="40.221512%" id="linearGradient-4">
            <stop stop-color="#FFAE00" offset="0%"></stop>
            <stop stop-color="#FFAE00" stop-opacity="0" offset="100%"></stop>
        </linearGradient>
    </defs>
    <g id="Landing-Page-" stroke="none" stroke-width="1" fill="none" fill-rule="evenodd">
        <g id="Chính-sách-thành-viên" transform="translate(-299.000000, -4992.000000)" fill-rule="nonzero">
            <g id="+1" transform="translate(299.000000, 4992.425885)">
                <path d="M35,17.3568902 C35,24.3777217 30.7355731,30.7071075 24.1955161,33.3932209 C17.655459,36.0793344 10.1279635,34.5930925 5.12361715,29.627632 C0.119270762,24.6621715 -1.37622224,17.1955372 1.3345891,10.7099329 C4.04540045,4.22432857 10.4285686,-0.00277860647 17.5071844,0 C22.1474864,0.000912650782 26.5973686,1.83009159 29.8779079,5.08513967 C33.1584471,8.34018776 35.0009186,12.7544684 35,17.3568902 Z" id="Path" fill="#A6CF06"></path>
                <polyline id="Path" fill="#A6CF06" points="4.81115907 27.6428571 3.88888889 36 14.9074074 33.0975821"></polyline>
                <g id="Group-16" transform="translate(4.000000, 11.000000)">
                    <g id="Group-5" transform="translate(0.000000, 1.000000)" fill="#FFFFFF">
                        <polygon id="Path" points="7 7.42306293 4.44097095 7.42306293 4.44097095 10 2.5435822 10 2.5435822 7.42306293 0 7.42306293 0 5.57439069 2.5435822 5.57439069 2.5435822 3 4.44097095 3 4.44097095 5.57439069 7 5.57439069"></polygon>
                        <polygon id="1" points="13 10 13 0 8 0 8 2.18571429 9.98170732 2.18571429 9.98170732 10"></polygon>
                    </g>
                    <g id="Group-9-Copy" transform="translate(16.000000, 0.000000)">
                        <g id="Gold">
                            <ellipse id="Oval" fill="#FDDB00" cx="5.99993071" cy="6.44719403" rx="4.41689951" ry="4.0390753"></ellipse>
                            <path d="M4.95920059,10.3732571 C5.01174797,10.3848253 5.06429536,10.3959485 5.11781584,10.405737 L5.11781584,5.33353403 L4.95920059,5.33353403 L4.95920059,10.3732571 Z" id="Path" fill="#FFDE00"></path>
                            <path d="M9.33133752,9.09942226 L9.33133752,4.27993959 L9.17028952,4.27993959 L9.17028952,9.25959709 C9.22526965,9.20754027 9.27927668,9.15414866 9.33133752,9.09942226 Z" id="Path" fill="#FFDE00"></path>
                            <path d="M8.47452323,9.79351319 C8.64115022,9.69029543 8.7998156,9.57671849 8.94939589,9.4535866 L8.94939589,4.74622632 L8.47452323,4.74622632 L8.47452323,9.79351319 Z" id="Path" fill="#FFDE00"></path>
                            <path d="M2.15959277,8.44315038 C2.5519809,9.07322661 3.12188113,9.59560637 3.80996985,9.95591267 L3.80996985,5.09104713 L2.15959277,5.09104713 L2.15959277,8.44315038 Z" id="Path" fill="#FFDE00"></path>
                            <path d="M4.20504833,10.1387789 C4.35959798,10.2017908 4.51798911,10.256608 4.67943443,10.3029581 L4.67943443,5.33486882 L4.20504833,5.33486882 L4.20504833,10.1387789 Z" id="Path" fill="#FFDE00"></path>
                            <circle id="Oval" fill="#FFFE00" transform="translate(5.999957, 6.031996) rotate(-45.000000) translate(-5.999957, -6.031996) " cx="5.99995703" cy="6.03199567" r="4.23228433"></circle>
                            <circle id="Oval" fill="#FFDE00" transform="translate(6.000043, 5.968004) rotate(-45.000000) translate(-6.000043, -5.968004) " cx="6.00004297" cy="5.96800433" r="4.23228433"></circle>
                            <path d="M6.28066997,1.93782763 L1.5927622,6.22472898 C1.64504112,7.00643897 1.94607331,7.75712295 2.45882092,8.38441961 L8.64238293,2.72980318 C7.95640752,2.2609163 7.13550287,1.98563458 6.28066997,1.93782763 Z" id="Path" fill="#FFFB00" style="mix-blend-mode: overlay;" opacity="0.6"></path>
                            <path d="M10.4002875,5.6289676 C10.3594878,5.1772393 10.2352815,4.73509827 10.0329424,4.32131809 L4.19920973,9.65602979 C4.65169584,9.84106069 5.13519574,9.95464234 5.62917973,9.991952 L10.4002875,5.6289676 Z" id="Path" fill="#FFFB00" style="mix-blend-mode: overlay;" opacity="0.6"></path>
                            <path d="M9.59893993,3.62811702 C9.53276915,3.54269044 9.46319252,3.45948851 9.3897235,3.3794011 L3.1691837,9.06783222 C3.25676267,9.13501666 3.34774749,9.19864166 3.44116506,9.25915216 L9.59893993,3.62811702 Z" id="Path" fill="#FFFB00" style="mix-blend-mode: overlay;" opacity="0.6"></path>
                            <circle id="Oval" fill="#FFFF66" opacity="0.36" transform="translate(6.000043, 5.968004) rotate(-45.000000) translate(-6.000043, -5.968004) " cx="6.00004297" cy="5.96800433" r="3.78005743"></circle>
                            <path d="M5.99993071,1.9876598 C8.42664143,1.9878456 10.3987007,3.77829992 10.4163437,5.99736971 C10.4163437,5.98758125 10.4163437,5.97779279 10.4163437,5.96800433 C10.3909311,3.75394395 8.42098938,1.97132073 5.99968744,1.97132073 C3.57838549,1.97132073 1.60844373,3.75394395 1.5830312,5.96800433 C1.5830312,5.97779279 1.5830312,5.98758125 1.5830312,5.99736971 C1.60041089,3.77802464 3.57292089,1.98735838 5.99993071,1.9876598 Z" id="Path" fill="#FFFF00"></path>
                            <ellipse id="Oval" fill="#FFF900" transform="translate(6.000028, 6.016974) rotate(-80.570000) translate(-6.000028, -6.016974) " cx="6.00002818" cy="6.01697352" rx="3.20209945" ry="3.48477666"></ellipse>
                            <ellipse id="Oval" fill="url(#linearGradient-1)" transform="translate(6.016944, 5.983832) rotate(-45.000000) translate(-6.016944, -5.983832) " cx="6.01694417" cy="5.98383228" rx="3.33432608" ry="3.33435507"></ellipse>
                            <path d="M5.99993071,9.02600879 C4.09969686,9.02664066 2.54772039,7.63767204 2.50747591,5.90037495 C2.50747591,5.92262146 2.50747591,5.94486796 2.50747591,5.96800433 C2.50747591,7.73184063 4.07110118,9.16171247 5.99993071,9.16171247 C7.92876024,9.16171247 9.49238552,7.73184063 9.49238552,5.96800433 C9.49238552,5.94531289 9.49238552,5.92351132 9.49238552,5.90037495 C9.45214103,7.63767204 7.90016457,9.02664066 5.99993071,9.02600879 Z" id="Path" fill="#FFDE00" style="mix-blend-mode: multiply;"></path>
                            <path d="M5.99993071,2.82946752 C7.91687953,2.82940624 9.47538442,4.24267939 9.49141242,5.99558999 C9.49141242,5.98624646 9.49141242,5.97734786 9.49141242,5.96800433 C9.45959651,4.22519414 7.9055463,2.82760431 5.99944416,2.82760431 C4.09334203,2.82760431 2.53929182,4.22519414 2.50747591,5.96800433 C2.50747591,5.97734786 2.50747591,5.98624646 2.50747591,5.99558999 C2.52377104,4.24243424 4.0827116,2.82915991 5.99993071,2.82946752 Z" id="Path" fill="#FFF128"></path>
                            <polygon id="Path" fill="#FFFF98" points="9.18050706 3.09420092 9.77847683 3.15871578 9.18245326 3.21878134 9.12990588 3.75180758 9.05935615 3.21744655 8.46138639 3.14091857 9.05740995 3.0924212 9.10995734 2.54738184"></polygon>
                            <polygon id="Path" fill="#FFFF98" points="3.04560004 8.8102177 3.64308325 8.87473256 3.04754624 8.93479812 2.99451231 9.46782436 2.92444913 8.93346333 2.32599281 8.85693536 2.92201638 8.80843798 2.97505031 8.26339863"></polygon>
                            <polygon id="Path" fill="#FFFF98" points="3.52339199 9.36904989 3.74477217 9.39307611 3.52436509 9.41532262 3.50490309 9.61242664 3.4786294 9.41487769 3.25773577 9.38640216 3.47814285 9.36860496 3.49760485 9.16705163"></polygon>
                            <polygon id="Path" fill="#FFFF98" points="9.97990846 4.15624903 10.3214665 4.19273329 9.98088156 4.22743784 9.95071547 4.53221495 9.91033183 4.22654798 9.56877384 4.1824999 9.90935873 4.15491424 9.93952482 3.84346318"></polygon>
                            <polygon id="Path" fill="#FFFF98" points="8.66768352 2.36051121 8.90122745 2.38587222 8.66865662 2.40945352 8.64822153 2.6176808 8.62048819 2.40856366 8.38694426 2.37875334 8.61951509 2.36006628 8.64043673 2.14694477"></polygon>
                            <polygon id="Path" fill="#FFFF98" points="9.79258677 2.5215759 9.94536342 2.53803831 9.79307332 2.55361086 9.77993648 2.68931454 9.76193413 2.55316593 9.60915748 2.53358901 9.76144758 2.52113097 9.77458443 2.38231278"></polygon>
                        </g>
                        <g id="V" transform="translate(3.610003, 4.051386)">
                            <polygon id="Path" fill="url(#linearGradient-2)" points="4.69843906 0.333409907 3.10259801 4.0174887 1.85141955 4.0174887 0.255578502 0.333409907 1.62490161 0.333409907 2.52564351 2.48534534 3.44726059 0.333409907"></polygon>
                            <polygon id="Path" fill="url(#linearGradient-3)" points="4.61324622 0.166746521 3.01740518 3.85082532 1.76622671 3.85082532 0.170385668 0.166746521 1.53970878 0.166746521 2.44045068 2.31868196 3.36206776 0.166746521"></polygon>
                            <polygon id="Path" fill="#FFFB00" points="4.44286055 8.31343755e-05 2.84701951 3.68416193 1.59584104 3.68416193 0 8.31343755e-05 1.36932311 8.31343755e-05 2.27006501 2.15201857 3.19168209 8.31343755e-05"></polygon>
                            <polygon id="Path" fill="#FFFB00" points="4.44286055 8.31343755e-05 2.84701951 3.68416193 1.59584104 3.68416193 0 8.31343755e-05 1.36932311 8.31343755e-05 2.27006501 2.15201857 3.19168209 8.31343755e-05"></polygon>
                            <path d="M4.44286055,8.31343755e-05 L3.789,1.507 L1.469,3.394 L1.122,2.592 L2.116,1.785 L2.27006501,2.15201857 L2.593,1.397 L4.311,0 L4.44286055,8.31343755e-05 Z M1.817,1.07 L1.908,1.287 L0.911,2.104 L0.817,1.888 L1.817,1.07 Z M1.36932311,8.31343755e-05 L1.545,0.421 L0.533,1.231 L0,8.31343755e-05 L1.36932311,8.31343755e-05 Z" id="Combined-Shape" fill-opacity="0.6" fill="url(#linearGradient-4)" style="mix-blend-mode: darken;"></path>
                        </g>
                        <g id="Blink" transform="translate(1.722617, 3.393376)">
                            <path d="M0.501617149,0.532531495 C0.429287893,0.57344188 0.337547967,0.569679475 0.269373049,0.523006784 C0.201198132,0.476334093 0.170091082,0.395995202 0.190624036,0.319624961 C0.21115699,0.243254719 0.279263149,0.185979171 0.363038101,0.174629114 C0.446813054,0.163279057 0.529664165,0.200102506 0.572779733,0.267849474 C0.630989426,0.359313656 0.599267811,0.477298988 0.501617149,0.532531495 Z" id="Path" fill="#FFFFFF" opacity="0.36"></path>
                            <path d="M0.422231333,0.459008712 C0.397561637,0.420482773 0.406417425,0.434599147 0.39534769,0.416953679 C0.376056308,0.487476998 0.352078546,0.556819615 0.323552549,0.624582021 C0.306157251,0.653991134 0.323552549,0.563411065 0.362454762,0.421070955 L0.365617544,0.40930731 C0.343478073,0.421070955 0.321338602,0.433422783 0.298566575,0.444892337 C0.20368313,0.494005557 0.176799487,0.506063293 0.093618333,0.545177414 C0.0650862884,0.560749049 0.0341524191,0.572155403 0.00189766891,0.578997895 L0,0.577233348 C0.0172663803,0.55694832 0.0387873686,0.540138842 0.0632556304,0.527826037 C0.0923532204,0.509298296 0.108483406,0.498416924 0.138213552,0.481653729 C0.246064402,0.418424135 0.229617938,0.428423234 0.339050179,0.36784046 C0.262937353,0.350104368 0.188139276,0.327804834 0.115125247,0.301081772 C0.0834974321,0.28490676 0.180911103,0.301081772 0.333989729,0.337254982 L0.346324576,0.340195893 C0.300147966,0.264908563 0.255236469,0.188738959 0.213171474,0.11139299 C0.19453593,0.0794863702 0.178671554,0.0462463588 0.165729752,0.0119901866 C0.150232122,-0.0391816709 0.239422561,0.078160692 0.364668709,0.274025388 L0.391236074,0.31608042 C0.410527456,0.245557102 0.434505218,0.176214484 0.463031215,0.108452079 C0.480426513,0.0790429654 0.463031215,0.169328944 0.424129002,0.311963144 L0.42096622,0.32372679 C0.443421969,0.311963144 0.46556144,0.299611317 0.488017189,0.288141762 C0.582900634,0.239028543 0.609784277,0.226970806 0.693281709,0.187562594 C0.721779002,0.172206782 0.752588833,0.160905985 0.784686095,0.154036205 L0.786900042,0.155800752 C0.75383297,0.186674853 0.716375081,0.213193305 0.675570133,0.234617176 C0.609151721,0.27461357 0.598081985,0.280495393 0.530714739,0.319021331 L0.446901029,0.36519364 C0.522799647,0.382954045 0.59738563,0.405253339 0.670193404,0.431952327 C0.701821219,0.44812734 0.604723827,0.431952327 0.451328923,0.395779118 L0.438994075,0.392838206 C0.485170685,0.468125537 0.530082183,0.544295141 0.572147177,0.621641109 C0.591455665,0.65343914 0.607854472,0.686690546 0.621170291,0.721043913 C0.636351642,0.77221577 0.547477481,0.654873408 0.422231333,0.459008712 Z" id="Path" fill="#FFFF98"></path>
                            <path d="M3.1586699,3.78488536 C3.05142699,3.75344397 2.97516167,3.66496799 2.96550655,3.56079507 C2.95585143,3.45662216 3.01471259,3.35731767 3.11458896,3.30927855 C3.21446533,3.26123942 3.33563978,3.27394933 3.42149729,3.34146997 C3.5073548,3.40899061 3.54094578,3.51799235 3.50657587,3.6175475 C3.45987131,3.75283095 3.30440008,3.82761041 3.1586699,3.78488536 L3.1586699,3.78488536 Z" id="Path" fill="#FFFFFF" opacity="0.36"></path>
                            <path d="M3.16815825,3.64636843 C3.18808377,3.58990293 3.1804931,3.61019522 3.18998144,3.58460929 C3.095098,3.62284114 3.00337733,3.67283663 2.90374971,3.69989302 C2.85599171,3.71018621 2.96921929,3.64636843 3.15677224,3.55725882 L3.17226986,3.55020063 C3.14064205,3.53990744 3.10711657,3.52990834 3.07485619,3.51902697 C2.93790775,3.47256057 2.9024846,3.46020874 2.78704308,3.41638916 C2.74548913,3.40334735 2.70626046,3.38461336 2.67065272,3.36080594 L2.67065272,3.35727685 C2.70792833,3.35577788 2.74514656,3.36127905 2.78008496,3.37345186 C2.82531273,3.38433323 2.85093126,3.39050914 2.89552648,3.40286097 C3.05809345,3.44756282 3.0327912,3.44109282 3.19377678,3.49108831 C3.15202806,3.40286097 3.09889333,3.31757454 3.06979574,3.22493584 C3.05872601,3.18052807 3.12735837,3.28610679 3.22319065,3.46020874 L3.23078132,3.47432512 C3.27126493,3.36521731 3.3136462,3.25669768 3.36013909,3.15082487 C3.37776495,3.10544439 3.39956334,3.06156053 3.42529239,3.01966022 C3.46640855,2.960842 3.41833427,3.14611941 3.31775781,3.43432872 C3.29783229,3.49079422 3.30542297,3.47020784 3.29593462,3.49579377 C3.39081807,3.45756192 3.48253873,3.40756643 3.58216635,3.38051005 C3.62992435,3.37051095 3.51669677,3.43432872 3.32914383,3.52314425 L3.3136462,3.53020243 C3.34527401,3.54078971 3.3787995,3.55049472 3.41105987,3.56137609 C3.54800831,3.60784249 3.58343146,3.62019432 3.69887299,3.6640139 C3.74042693,3.67705571 3.7796556,3.69578971 3.81526335,3.71959712 L3.81526335,3.72312622 C3.76750535,3.72724349 3.67610096,3.7004812 3.63277085,3.68901165 C3.53156185,3.66224935 3.51574794,3.65695571 3.41517149,3.62813478 C3.33293917,3.60343113 3.37405533,3.61607704 3.29213928,3.59078521 C3.333888,3.67901255 3.38702273,3.76429898 3.41612032,3.85723178 C3.42719006,3.90134545 3.3585577,3.79606082 3.26272542,3.62195887 L3.25513474,3.60813658 C3.21465114,3.7169503 3.17226986,3.82546993 3.12609325,3.93163683 C3.10820129,3.97691531 3.08641296,4.02077892 3.06093995,4.06280148 C3.01950752,4.12044334 3.0675818,3.93457774 3.16815825,3.64636843 Z" id="Path" fill="#FFFF98"></path>
                            <path d="M5.08480385,3.74577124 C5.0580862,3.69058866 5.08432887,3.62570278 5.14353132,3.60056561 C5.20273377,3.57542844 5.2726537,3.599484 5.30000244,3.65439862 C5.32735118,3.70931323 5.30185384,3.77445555 5.24294293,3.8001781 C5.21424919,3.81270677 5.18134803,3.81400215 5.15161803,3.8037737 C5.12188802,3.79354526 5.09781721,3.77264901 5.08480385,3.74577124 L5.08480385,3.74577124 Z" id="Path" fill="#FFFFFF" opacity="0.36"></path>
                            <path d="M5.1347758,3.70871575 L5.16197572,3.6972462 C5.12050009,3.6826433 5.0800435,3.66565111 5.04084119,3.64636843 C5.02376217,3.63519297 5.07784573,3.65019162 5.16165944,3.67989482 L5.16861756,3.68224755 C5.16260827,3.66989572 5.15659899,3.65754389 5.15122226,3.64489798 C5.12781768,3.59137339 5.12212467,3.57725702 5.10378054,3.53108471 C5.09639139,3.5150671 5.09159515,3.49811991 5.08954802,3.48079512 L5.08954802,3.48079512 C5.10091632,3.49118672 5.10975954,3.50372157 5.11548283,3.51755651 C5.1246549,3.53402562 5.13003163,3.54314244 5.13857114,3.55990564 C5.17019895,3.62019432 5.16482222,3.6110775 5.19423609,3.67224845 C5.21004803,3.63367703 5.22842773,3.5960586 5.24926849,3.55961155 C5.26128706,3.54373063 5.24515687,3.59402021 5.21321278,3.67195436 L5.21068255,3.67813027 C5.25907311,3.65901435 5.30809622,3.64048661 5.35775189,3.62342932 C5.37826856,3.6157615 5.39942398,3.60966338 5.42100753,3.60519567 C5.45263534,3.60049021 5.37609603,3.63931024 5.24958477,3.69342301 L5.22238485,3.70459848 C5.26378248,3.71914631 5.30413754,3.73614022 5.3432031,3.75547624 C5.36028212,3.76665171 5.30619856,3.75165306 5.22238485,3.72194985 L5.215743,3.71959712 C5.22143601,3.73194895 5.2274453,3.74430078 5.23282202,3.7569467 C5.25622661,3.81047129 5.26191961,3.82458766 5.28026375,3.87075997 C5.28760769,3.88681157 5.29250459,3.90373827 5.29481254,3.92104955 L5.29481254,3.92104955 C5.27805237,3.90182813 5.26441285,3.88042606 5.25432894,3.85752587 C5.23440342,3.82047038 5.23155691,3.81429447 5.21258022,3.77635671 C5.19739887,3.74518305 5.20498955,3.76076988 5.19012447,3.72959622 C5.17431253,3.76816764 5.15593283,3.80578607 5.13509208,3.84223313 C5.12338978,3.85811405 5.13951997,3.80782446 5.17114779,3.72989031 L5.17399429,3.7237144 C5.12528745,3.74283032 5.07626434,3.76135807 5.02660867,3.77841535 C5.006108,3.78612495 4.98494881,3.79222416 4.96335304,3.796649 C4.93109267,3.80076628 5.00794826,3.76165216 5.1347758,3.70871575 Z" id="Path" fill="#FFFF98"></path>
                        </g>
                    </g>
                </g>
            </g>
        </g>
    </g>
</svg>