<svg width="326" height="50" viewBox="0 0 326 50" fill="none" xmlns="http://www.w3.org/2000/svg">
<g filter="url(#filter0_d_11166_43053)">
<rect x="4" y="2" width="318" height="42" rx="10" fill="url(#paint0_linear_11166_43053)"/>
</g>
<mask id="mask0_11166_43053" style="mask-type:luminance" maskUnits="userSpaceOnUse" x="4" y="2" width="318" height="42">
<rect x="4" y="2" width="318" height="42" rx="10" fill="white"/>
</mask>
<g mask="url(#mask0_11166_43053)">
<path fill-rule="evenodd" clip-rule="evenodd" d="M137.061 -75.0236C145.32 -76.8523 153.878 -76.8523 162.137 -75.0236L430.376 -15.6266C490.982 -2.20645 490.982 84.1946 430.376 97.6148V97.6148C422.117 99.4435 413.559 99.4435 405.3 97.6148L137.061 38.2178C76.4554 24.7976 76.4554 -61.6034 137.061 -75.0236V-75.0236Z" fill="#258FE0" fill-opacity="0.2" style="mix-blend-mode:color-burn"/>
<path fill-rule="evenodd" clip-rule="evenodd" d="M381.74 3.51544C389.999 1.68675 398.557 1.68675 406.816 3.51544L675.054 62.9124C735.66 76.3326 735.66 162.734 675.054 176.154V176.154C666.796 177.983 658.237 177.983 649.979 176.154L381.74 116.757C321.134 103.337 321.134 16.9356 381.74 3.51544V3.51544Z" fill="#258FE0" fill-opacity="0.1" style="mix-blend-mode:color-burn"/>
<path fill-rule="evenodd" clip-rule="evenodd" d="M133.268 190.224C72.6621 176.804 72.6621 90.403 133.268 76.9828L401.507 17.5858C409.765 15.7572 418.324 15.7571 426.582 17.5858V17.5858C487.188 31.006 487.188 117.407 426.582 130.827L158.344 190.224C150.085 192.053 141.527 192.053 133.268 190.224V190.224Z" fill="#258FE0" fill-opacity="0.2" style="mix-blend-mode:color-burn"/>
</g>
<path d="M74.6892 28.196C73.9146 28.196 73.1959 28.0747 72.5332 27.832C71.8799 27.58 71.3106 27.2253 70.8252 26.768C70.3492 26.3107 69.9759 25.774 69.7052 25.158C69.4346 24.5327 69.2992 23.8467 69.2992 23.1C69.2992 22.3533 69.4346 21.672 69.7052 21.056C69.9759 20.4307 70.3492 19.8893 70.8252 19.432C71.3106 18.9747 71.8799 18.6247 72.5332 18.382C73.1959 18.13 73.9146 18.004 74.6892 18.004C75.5946 18.004 76.4019 18.1627 77.1112 18.48C77.8299 18.7973 78.4272 19.2547 78.9032 19.852L77.1392 21.448C76.8219 21.0747 76.4719 20.79 76.0892 20.594C75.7159 20.398 75.2959 20.3 74.8292 20.3C74.4279 20.3 74.0592 20.3653 73.7232 20.496C73.3872 20.6267 73.0979 20.818 72.8552 21.07C72.6219 21.3127 72.4352 21.6067 72.2952 21.952C72.1646 22.2973 72.0992 22.68 72.0992 23.1C72.0992 23.52 72.1646 23.9027 72.2952 24.248C72.4352 24.5933 72.6219 24.892 72.8552 25.144C73.0979 25.3867 73.3872 25.5733 73.7232 25.704C74.0592 25.8347 74.4279 25.9 74.8292 25.9C75.2959 25.9 75.7159 25.802 76.0892 25.606C76.4719 25.41 76.8219 25.1253 77.1392 24.752L78.9032 26.348C78.4272 26.936 77.8299 27.3933 77.1112 27.72C76.4019 28.0373 75.5946 28.196 74.6892 28.196ZM87.6912 18.2H90.4632V28H87.6912V18.2ZM83.9112 28H81.1392V18.2H83.9112V28ZM87.8872 24.178H83.7152V21.882H87.8872V24.178ZM93.4185 28V18.2H96.1905V28H93.4185ZM93.4325 17.402L95.3085 15.274H97.9685L95.3365 17.402H93.4325ZM99.1626 28V18.2H101.445L106.849 24.724H105.771V18.2H108.487V28H106.205L100.801 21.476H101.879V28H99.1626ZM117.994 18.2H120.766V28H117.994V18.2ZM114.214 28H111.442V18.2H114.214V28ZM118.19 24.178H114.018V21.882H118.19V24.178ZM132.239 28.196C131.437 28.196 130.662 28.098 129.915 27.902C129.178 27.6967 128.576 27.4353 128.109 27.118L129.019 25.074C129.458 25.354 129.962 25.5873 130.531 25.774C131.11 25.9513 131.684 26.04 132.253 26.04C132.636 26.04 132.944 26.0073 133.177 25.942C133.411 25.8673 133.579 25.774 133.681 25.662C133.793 25.5407 133.849 25.4007 133.849 25.242C133.849 25.018 133.747 24.8407 133.541 24.71C133.336 24.5793 133.07 24.472 132.743 24.388C132.417 24.304 132.053 24.22 131.651 24.136C131.259 24.052 130.863 23.9447 130.461 23.814C130.069 23.6833 129.71 23.5153 129.383 23.31C129.057 23.0953 128.791 22.82 128.585 22.484C128.38 22.1387 128.277 21.7047 128.277 21.182C128.277 20.594 128.436 20.062 128.753 19.586C129.08 19.11 129.565 18.7273 130.209 18.438C130.853 18.1487 131.656 18.004 132.617 18.004C133.261 18.004 133.891 18.0787 134.507 18.228C135.133 18.368 135.688 18.578 136.173 18.858L135.319 20.916C134.853 20.664 134.391 20.4773 133.933 20.356C133.476 20.2253 133.033 20.16 132.603 20.16C132.221 20.16 131.913 20.202 131.679 20.286C131.446 20.3607 131.278 20.4633 131.175 20.594C131.073 20.7247 131.021 20.874 131.021 21.042C131.021 21.2567 131.119 21.4293 131.315 21.56C131.521 21.6813 131.787 21.784 132.113 21.868C132.449 21.9427 132.813 22.022 133.205 22.106C133.607 22.19 134.003 22.2973 134.395 22.428C134.797 22.5493 135.161 22.7173 135.487 22.932C135.814 23.1373 136.075 23.4127 136.271 23.758C136.477 24.094 136.579 24.5187 136.579 25.032C136.579 25.6013 136.416 26.1287 136.089 26.614C135.772 27.09 135.291 27.4727 134.647 27.762C134.013 28.0513 133.21 28.196 132.239 28.196ZM137.684 28L142.01 18.2H144.74L149.08 28H146.196L142.808 19.558H143.9L140.512 28H137.684ZM140.05 26.096L140.764 24.052H145.552L146.266 26.096H140.05ZM142.01 17.402L143.886 15.274H146.546L143.914 17.402H142.01ZM155.615 28.196C154.84 28.196 154.122 28.0747 153.459 27.832C152.806 27.58 152.236 27.2253 151.751 26.768C151.275 26.3107 150.902 25.774 150.631 25.158C150.36 24.5327 150.225 23.8467 150.225 23.1C150.225 22.3533 150.36 21.672 150.631 21.056C150.902 20.4307 151.275 19.8893 151.751 19.432C152.236 18.9747 152.806 18.6247 153.459 18.382C154.122 18.13 154.84 18.004 155.615 18.004C156.52 18.004 157.328 18.1627 158.037 18.48C158.756 18.7973 159.353 19.2547 159.829 19.852L158.065 21.448C157.748 21.0747 157.398 20.79 157.015 20.594C156.642 20.398 156.222 20.3 155.755 20.3C155.354 20.3 154.985 20.3653 154.649 20.496C154.313 20.6267 154.024 20.818 153.781 21.07C153.548 21.3127 153.361 21.6067 153.221 21.952C153.09 22.2973 153.025 22.68 153.025 23.1C153.025 23.52 153.09 23.9027 153.221 24.248C153.361 24.5933 153.548 24.892 153.781 25.144C154.024 25.3867 154.313 25.5733 154.649 25.704C154.985 25.8347 155.354 25.9 155.755 25.9C156.222 25.9 156.642 25.802 157.015 25.606C157.398 25.41 157.748 25.1253 158.065 24.752L159.829 26.348C159.353 26.936 158.756 27.3933 158.037 27.72C157.328 28.0373 156.52 28.196 155.615 28.196ZM168.617 18.2H171.389V28H168.617V18.2ZM164.837 28H162.065V18.2H164.837V28ZM168.813 24.178H164.641V21.882H168.813V24.178ZM179.656 28V18.2H184.29C185.373 18.2 186.325 18.4007 187.146 18.802C187.968 19.2033 188.607 19.768 189.064 20.496C189.531 21.224 189.764 22.092 189.764 23.1C189.764 24.0987 189.531 24.9667 189.064 25.704C188.607 26.432 187.968 26.9967 187.146 27.398C186.325 27.7993 185.373 28 184.29 28H179.656ZM182.428 25.788H184.178C184.738 25.788 185.224 25.6853 185.634 25.48C186.054 25.2653 186.381 24.9573 186.614 24.556C186.848 24.1453 186.964 23.66 186.964 23.1C186.964 22.5307 186.848 22.0453 186.614 21.644C186.381 21.2427 186.054 20.9393 185.634 20.734C185.224 20.5193 184.738 20.412 184.178 20.412H182.428V25.788ZM178.396 23.884V22.176H184.696V23.884H178.396ZM190.905 28L195.231 18.2H197.961L202.301 28H199.417L196.029 19.558H197.121L193.733 28H190.905ZM193.271 26.096L193.985 24.052H198.773L199.487 26.096H193.271ZM196.603 31.052C196.295 31.052 196.033 30.954 195.819 30.758C195.604 30.562 195.497 30.3007 195.497 29.974C195.497 29.6473 195.604 29.3813 195.819 29.176C196.033 28.9707 196.295 28.868 196.603 28.868C196.911 28.868 197.172 28.9707 197.387 29.176C197.601 29.3813 197.709 29.6473 197.709 29.974C197.709 30.3007 197.601 30.562 197.387 30.758C197.172 30.954 196.911 31.052 196.603 31.052ZM196.603 17.528C195.819 17.528 195.17 17.3273 194.657 16.926C194.153 16.5247 193.887 15.974 193.859 15.274H195.483C195.501 15.5633 195.613 15.792 195.819 15.96C196.033 16.1187 196.295 16.198 196.603 16.198C196.911 16.198 197.172 16.1187 197.387 15.96C197.601 15.792 197.713 15.5633 197.723 15.274H199.347C199.319 15.974 199.048 16.5247 198.535 16.926C198.031 17.3273 197.387 17.528 196.603 17.528ZM208.836 28.196C208.061 28.196 207.342 28.0747 206.68 27.832C206.026 27.58 205.457 27.2253 204.972 26.768C204.496 26.3107 204.122 25.774 203.852 25.158C203.581 24.5327 203.446 23.8467 203.446 23.1C203.446 22.3533 203.581 21.672 203.852 21.056C204.122 20.4307 204.496 19.8893 204.972 19.432C205.457 18.9747 206.026 18.6247 206.68 18.382C207.342 18.13 208.061 18.004 208.836 18.004C209.741 18.004 210.548 18.1627 211.258 18.48C211.976 18.7973 212.574 19.2547 213.05 19.852L211.286 21.448C210.968 21.0747 210.618 20.79 210.236 20.594C209.862 20.398 209.442 20.3 208.976 20.3C208.574 20.3 208.206 20.3653 207.87 20.496C207.534 20.6267 207.244 20.818 207.002 21.07C206.768 21.3127 206.582 21.6067 206.442 21.952C206.311 22.2973 206.246 22.68 206.246 23.1C206.246 23.52 206.311 23.9027 206.442 24.248C206.582 24.5933 206.768 24.892 207.002 25.144C207.244 25.3867 207.534 25.5733 207.87 25.704C208.206 25.8347 208.574 25.9 208.976 25.9C209.442 25.9 209.862 25.802 210.236 25.606C210.618 25.41 210.968 25.1253 211.286 24.752L213.05 26.348C212.574 26.936 211.976 27.3933 211.258 27.72C210.548 28.0373 209.741 28.196 208.836 28.196ZM220.36 28V18.2H225.372C226.66 18.2 227.621 18.438 228.256 18.914C228.891 19.3807 229.208 19.9967 229.208 20.762C229.208 21.266 229.073 21.7093 228.802 22.092C228.541 22.4653 228.167 22.764 227.682 22.988C227.206 23.2027 226.637 23.31 225.974 23.31L226.254 22.638C226.945 22.638 227.547 22.7453 228.06 22.96C228.573 23.1653 228.97 23.4687 229.25 23.87C229.539 24.262 229.684 24.7427 229.684 25.312C229.684 26.1613 229.339 26.824 228.648 27.3C227.967 27.7667 226.968 28 225.652 28H220.36ZM223.104 25.998H225.428C225.904 25.998 226.263 25.9187 226.506 25.76C226.758 25.592 226.884 25.34 226.884 25.004C226.884 24.668 226.758 24.4207 226.506 24.262C226.263 24.094 225.904 24.01 225.428 24.01H222.908V22.092H225.008C225.475 22.092 225.825 22.0127 226.058 21.854C226.291 21.6953 226.408 21.4573 226.408 21.14C226.408 20.8227 226.291 20.5893 226.058 20.44C225.825 20.2813 225.475 20.202 225.008 20.202H223.104V25.998ZM232.12 28V18.2H234.892V28H232.12ZM240.412 21.994H244.962V24.066H240.412V21.994ZM240.608 25.858H245.732V28H237.864V18.2H245.55V20.342H240.608V25.858ZM241.756 31.052C241.448 31.052 241.186 30.954 240.972 30.758C240.757 30.562 240.65 30.3007 240.65 29.974C240.65 29.6473 240.757 29.3813 240.972 29.176C241.186 28.9707 241.448 28.868 241.756 28.868C242.064 28.868 242.325 28.9707 242.54 29.176C242.754 29.3813 242.862 29.6473 242.862 29.974C242.862 30.3007 242.754 30.562 242.54 30.758C242.325 30.954 242.064 31.052 241.756 31.052ZM238.746 17.402L240.566 15.274H242.862L244.682 17.402H242.918L240.944 15.652H242.484L240.51 17.402H238.746ZM250.356 28V20.398H247.346V18.2H256.124V20.398H253.128V28H250.356Z" fill="white"/>
<defs>
<filter id="filter0_d_11166_43053" x="0" y="0" width="326" height="50" filterUnits="userSpaceOnUse" color-interpolation-filters="sRGB">
<feFlood flood-opacity="0" result="BackgroundImageFix"/>
<feColorMatrix in="SourceAlpha" type="matrix" values="0 0 0 0 0 0 0 0 0 0 0 0 0 0 0 0 0 0 127 0" result="hardAlpha"/>
<feOffset dy="2"/>
<feGaussianBlur stdDeviation="2"/>
<feColorMatrix type="matrix" values="0 0 0 0 0 0 0 0 0 0 0 0 0 0 0 0 0 0 0.3 0"/>
<feBlend mode="normal" in2="BackgroundImageFix" result="effect1_dropShadow_11166_43053"/>
<feBlend mode="normal" in="SourceGraphic" in2="effect1_dropShadow_11166_43053" result="shape"/>
</filter>
<linearGradient id="paint0_linear_11166_43053" x1="4" y1="2" x2="15.0256" y2="83.6241" gradientUnits="userSpaceOnUse">
<stop stop-color="#44A5D8"/>
<stop offset="1" stop-color="#15C770"/>
</linearGradient>
</defs>
</svg>
